<?xml version="1.0" encoding="iso-8859-1"?>
<!-- Uploaded to: SVG Repo, www.svgrepo.com, Generator: SVG Repo Mixer Tools -->
<svg fill="#000000" height="800px" width="800px" version="1.1" id="Layer_1" xmlns="http://www.w3.org/2000/svg" xmlns:xlink="http://www.w3.org/1999/xlink" 
	 viewBox="0 0 510.545 510.545" xml:space="preserve">
<g>
	<g>
		<path d="M258.764,4.364c-4.655-5.818-13.964-5.818-18.618,0c-5.818,8.145-60.509,83.782-60.509,129.164
			s27.927,68.655,58.182,73.309v105.891c0,6.982,4.655,11.636,11.636,11.636c6.982,0,11.636-4.655,11.636-11.636V103.273
			c0-6.982-4.655-11.636-11.636-11.636c-6.982,0-11.636,4.655-11.636,11.636v80.291c-17.455-4.655-34.909-18.618-34.909-50.036
			c0-26.764,27.927-74.473,46.545-102.4C268.073,59.055,296,106.764,296,133.527c0,18.618-4.655,32.582-15.127,41.891
			c-4.655,4.655-5.818,11.636-1.164,16.291s11.636,5.818,16.291,1.164c10.473-9.309,23.273-26.764,23.273-59.345
			C319.273,88.145,264.582,12.509,258.764,4.364z"/>
	</g>
</g>
<g>
	<g>
		<path d="M404.218,438.4L320.436,336c-8.145-10.473-12.8-23.273-12.8-37.236v-55.855c0-6.982,4.655-11.636,11.636-11.636h11.636
			c6.982,0,11.636-4.655,11.636-11.636c0-6.982-4.655-11.636-11.636-11.636h-11.636c-19.782,0-34.909,15.127-34.909,34.909v57.018
			c0,18.618,6.982,37.236,18.618,51.2l17.455,20.945c-26.764-3.491-54.691,0-75.636,11.636c-19.782,10.473-50.036,12.8-74.473,6.982
			l30.255-40.727c10.473-13.964,15.127-30.255,15.127-47.709v-59.345c0-19.782-15.127-34.909-34.909-34.909h-11.636
			c-6.982,0-11.636,4.655-11.636,11.636c0,6.982,4.655,11.636,11.636,11.636H180.8c6.982,0,11.636,4.655,11.636,11.636v58.182
			c0,12.8-3.491,24.436-11.636,33.745L105.164,438.4c-4.655,5.818-6.982,12.8-6.982,20.945v16.291
			c0,19.782,15.127,34.909,34.909,34.909h244.364c19.782,0,34.909-15.127,34.909-34.909v-15.127
			C412.364,452.364,410.036,444.218,404.218,438.4z M389.091,475.636c0,6.982-4.655,11.636-11.636,11.636H133.091
			c-6.982,0-11.636-4.655-11.636-11.636v-15.127c0-2.327,1.164-4.655,2.327-6.982l30.255-41.891
			c12.8,4.655,27.927,6.982,43.055,6.982c20.945,0,41.891-4.655,58.182-12.8c24.436-12.8,65.164-13.964,90.764-1.164l40.727,50.036
			c1.164,2.327,2.327,4.655,2.327,6.982V475.636z"/>
	</g>
</g>
</svg>