<?xml version="1.0" encoding="iso-8859-1"?>
<!-- Uploaded to: SVG Repo, www.svgrepo.com, Generator: SVG Repo Mixer Tools -->
<svg fill="#000000" height="800px" width="800px" version="1.1" id="Layer_1" xmlns="http://www.w3.org/2000/svg" xmlns:xlink="http://www.w3.org/1999/xlink" 
	 viewBox="0 0 512 512" xml:space="preserve">
<g>
	<g>
		<path d="M302.545,0c-102.4,0-186.182,83.782-186.182,186.182c0,30.255,6.982,60.509,20.945,87.273
			c2.327,3.491,5.818,5.818,10.473,5.818h215.273c-1.164,2.327-1.164,4.655-2.327,6.982c-2.327,5.818,1.164,12.8,6.982,15.127
			c1.164,0,2.327,1.164,4.655,1.164c4.655,0,9.309-2.327,10.473-6.982c2.327-4.655,3.491-10.473,4.655-16.291h18.618
			c6.982,0,11.636-4.655,11.636-11.636S413.091,256,406.109,256h-12.8c3.491-18.618,5.818-38.4,6.982-58.182h65.164
			c-2.327,31.418-12.8,60.509-32.582,86.109c-3.491,4.655-2.327,12.8,2.327,16.291c2.327,1.164,4.655,2.327,6.982,2.327
			c3.491,0,6.982-1.164,9.309-4.655c24.436-32.582,37.236-70.982,37.236-111.709C488.727,83.782,404.945,0,302.545,0z
			 M174.545,197.818h29.091c1.164,19.782,3.491,39.564,6.982,58.182h-55.854c-10.473-22.109-15.127-45.382-15.127-69.818
			s5.818-48.873,16.291-69.818h54.691c-3.491,18.618-5.818,37.236-6.982,58.182h-29.091c-6.982,0-11.636,4.655-11.636,11.636
			S167.564,197.818,174.545,197.818z M169.891,93.091c17.455-26.764,44.218-47.709,75.636-59.345
			c-11.636,15.127-20.945,36.073-27.927,59.345H169.891z M290.909,256h-55.855c-4.655-18.618-6.982-38.4-6.982-58.182h62.836V256z
			 M290.909,174.545h-64c1.164-20.945,3.491-40.727,6.982-58.182h57.018V174.545z M302.545,46.545
			c-6.982,0-11.636,4.655-11.636,11.636v34.909h-50.036c13.964-41.891,36.073-69.818,61.673-69.818
			c25.6,0,47.709,27.927,61.673,69.818h-50.036V58.182C314.182,51.2,309.527,46.545,302.545,46.545z M370.036,256h-55.855V116.364
			h55.855c4.655,17.455,6.982,37.236,6.982,58.182h-27.927c-6.982,0-11.636,4.655-11.636,11.636s4.655,11.636,11.636,11.636h29.091
			C377.018,218.764,374.691,237.382,370.036,256z M400.291,174.545c-1.164-20.945-3.491-39.564-6.982-58.182h13.964
			c6.982,0,11.636-4.655,11.636-11.636s-4.655-11.636-11.636-11.636h-18.618c-6.982-23.273-16.291-44.218-27.927-59.345
			c57.018,22.109,100.073,76.8,103.564,140.8H400.291z"/>
	</g>
</g>
<g>
	<g>
		<path d="M508.509,340.945c-24.436-24.436-61.673-29.091-90.764-12.8l-48.873,23.273c-12.8,5.818-27.927,9.309-43.055,10.473
			c6.982-9.309,11.636-22.109,11.636-34.909s-10.473-23.273-23.273-23.273H193.164c-30.255,0-59.345,12.8-79.127,36.073
			l-40.727,46.545c-5.818-9.309-16.291-13.964-26.764-13.964H11.636C4.655,372.364,0,377.018,0,384s4.655,11.636,11.636,11.636
			h34.909c6.982,0,11.636,4.655,11.636,11.636v69.818c0,6.982-4.655,11.636-11.636,11.636H11.636C4.655,488.727,0,493.382,0,500.364
			S4.655,512,11.636,512h34.909c15.127,0,27.927-9.309,32.582-23.273h64c5.818,0,11.636,0,16.291-1.164l164.073-18.618
			c26.764-3.491,52.364-12.8,74.473-29.091L507.345,358.4c2.327-2.327,4.655-4.655,4.655-8.145S510.836,343.273,508.509,340.945z
			 M384,421.236c-18.618,13.964-39.564,22.109-62.836,24.436l-164.073,18.618c-4.655,0-9.309,1.164-13.964,1.164H81.455v-53.527
			l51.2-58.182c15.127-17.455,37.236-27.927,61.673-27.927h119.855c0,19.782-15.127,34.909-34.909,34.909h-11.636h-58.182
			c-6.982,0-11.636,4.655-11.636,11.636c0,6.982,4.655,11.636,11.636,11.636h58.182h11.636h43.055c19.782,0,38.4-4.655,55.855-12.8
			l50.036-23.273c16.291-9.309,37.236-9.309,53.527,1.164L384,421.236z"/>
	</g>
</g>
</svg>