<?xml version="1.0" encoding="iso-8859-1"?>
<!-- Uploaded to: SVG Repo, www.svgrepo.com, Generator: SVG Repo Mixer Tools -->
<svg fill="#000000" height="800px" width="800px" version="1.1" id="Layer_1" xmlns="http://www.w3.org/2000/svg" xmlns:xlink="http://www.w3.org/1999/xlink" 
	 viewBox="0 0 512 512" xml:space="preserve">
<g>
	<g>
		<circle cx="116.364" cy="430.545" r="11.636"/>
	</g>
</g>
<g>
	<g>
		<circle cx="395.636" cy="430.545" r="11.636"/>
	</g>
</g>
<g>
	<g>
		<circle cx="256" cy="337.455" r="11.636"/>
	</g>
</g>
<g>
	<g>
		<path d="M465.455,295.564l-58.182-11.636c-11.636-2.327-22.109-8.146-30.255-16.291l-61.673-61.673
			c-12.8-12.8-30.255-19.782-48.873-19.782h-45.382v-11.636c0-12.8,10.473-23.273,23.273-23.273h69.818
			c25.6,0,46.545-20.945,46.545-46.545c0-25.6-20.945-46.545-46.545-46.545H185.018c-4.655-19.782-23.273-34.909-45.382-34.909
			h-23.273c-6.982,0-11.636,4.655-11.636,11.636H81.455c-6.982,0-11.636,4.655-11.636,11.636s4.655,11.636,11.636,11.636h23.273
			v23.273H81.455c-6.982,0-11.636,4.655-11.636,11.636c0,6.982,4.655,11.636,11.636,11.636h23.273
			c0,6.982,4.655,11.636,11.636,11.636h23.273c6.982,0,11.636-4.655,11.636-11.636s-4.655-11.636-11.636-11.636H128V46.545h11.636
			c12.8,0,23.273,10.473,23.273,23.273c0,6.982,4.655,11.636,11.636,11.636h139.636c12.8,0,23.273,10.473,23.273,23.273
			c0,12.8-10.473,23.273-23.273,23.273h-69.818c-25.6,0-46.545,20.945-46.545,46.545v11.636h-40.727
			c-22.109,0-43.055,10.473-55.855,27.927l-25.6,34.909c-3.491,4.655-2.327,12.8,2.327,16.291s11.636,2.327,15.127-2.327
			l25.6-34.909c9.309-11.636,22.109-18.618,37.236-18.618h41.891v69.818H34.909C15.127,279.273,0,294.4,0,314.182V384
			c0,32.582,25.6,58.182,58.182,58.182h1.164c5.818,26.764,29.091,46.545,57.018,46.545c32.582,0,58.182-25.6,58.182-58.182
			s-25.6-58.182-58.182-58.182c-27.927,0-51.2,19.782-57.018,46.545h-1.164c-19.782,0-34.909-15.127-34.909-34.909v-69.818
			c0-6.982,4.655-11.636,11.636-11.636h162.909v128c0,6.982,4.655,11.636,11.636,11.636h129.164
			c5.818,26.764,29.091,46.545,57.018,46.545c27.927,0,51.2-19.782,57.018-46.545h24.436c19.782,0,34.909-15.127,34.909-34.909
			v-54.691C512,324.655,492.218,300.218,465.455,295.564z M116.364,395.636c19.782,0,34.909,15.127,34.909,34.909
			c0,19.782-15.127,34.909-34.909,34.909s-34.909-15.127-34.909-34.909C81.455,410.764,96.582,395.636,116.364,395.636z
			 M395.636,465.454c-19.782,0-34.909-15.127-34.909-34.909c0-19.782,15.127-34.909,34.909-34.909
			c19.782,0,34.909,15.127,34.909,34.909C430.545,450.327,415.418,465.454,395.636,465.454z M477.091,418.909h-24.436
			c-5.818-26.764-29.091-46.545-57.018-46.545c-27.927,0-51.2,19.782-57.018,46.545H221.091V302.545h104.727
			c6.982,0,11.636-4.655,11.636-11.636s-4.655-11.636-11.636-11.636H221.091v-69.818h45.382c12.8,0,24.436,4.655,32.582,13.964
			l60.509,61.673c11.636,11.636,25.6,18.618,41.891,22.109l58.182,11.636c16.291,3.491,27.927,17.455,27.927,33.745v54.691h1.164
			C488.727,414.254,484.073,418.909,477.091,418.909z"/>
	</g>
</g>
</svg>