<?xml version="1.0" encoding="iso-8859-1"?>
<!-- Uploaded to: SVG Repo, www.svgrepo.com, Generator: SVG Repo Mixer Tools -->
<svg fill="#000000" height="800px" width="800px" version="1.1" id="Layer_1" xmlns="http://www.w3.org/2000/svg" xmlns:xlink="http://www.w3.org/1999/xlink" 
	 viewBox="0 0 512 512" xml:space="preserve">
<g>
	<g>
		<path d="M255.783,186.182c-19.782,0-34.909,15.127-34.909,34.909c0,19.782,15.127,34.909,34.909,34.909
			c19.782,0,34.909-15.127,34.909-34.909C290.692,201.309,275.565,186.182,255.783,186.182z M255.783,232.727
			c-6.982,0-11.636-4.655-11.636-11.636c0-6.982,4.655-11.636,11.636-11.636c6.982,0,11.636,4.655,11.636,11.636
			C267.419,228.073,262.764,232.727,255.783,232.727z"/>
	</g>
</g>
<g>
	<g>
		<path d="M410.546,97.745c-3.491-4.655-11.636-5.818-16.291-2.327c-4.655,3.491-5.818,11.636-2.327,16.291
			c25.6,31.418,38.4,68.655,38.4,109.382c0,6.982,0,15.127-1.164,22.109c-1.164,5.818,3.491,11.636,10.473,12.8h1.164
			c5.818,0,10.473-4.655,11.636-10.473c1.164-8.145,1.164-16.291,1.164-24.436C453.601,175.709,438.474,132.655,410.546,97.745z"/>
	</g>
</g>
<g>
	<g>
		<path d="M192.946,30.255c-2.327-5.818-9.309-9.309-15.127-6.982C121.964,45.382,76.583,90.764,59.128,147.782
			c-2.327,5.818,1.164,12.8,6.982,15.127c1.164,0,2.327,0,3.491,0c4.655,0,9.309-3.491,11.636-8.145
			C97.528,104.727,137.092,64,185.964,45.382C191.783,43.055,195.274,36.073,192.946,30.255z"/>
	</g>
</g>
<g>
	<g>
		<path d="M398.91,171.055c-2.327-5.818-9.309-9.309-15.127-6.982s-9.309,9.309-6.982,15.127c4.655,12.8,6.982,26.764,6.982,41.891
			c0,6.982,4.655,11.636,11.636,11.636c6.982,0,11.636-4.655,11.636-11.636C407.055,203.636,404.728,187.345,398.91,171.055z"/>
	</g>
</g>
<g>
	<g>
		<path d="M184.801,82.618c-3.491-5.818-10.473-6.982-16.291-4.655c-23.273,12.8-41.891,32.582-55.855,55.855
			c-3.491,5.818-1.164,12.8,4.655,16.291c2.327,1.164,3.491,1.164,5.818,1.164c3.491,0,8.145-2.327,10.473-5.818
			c11.636-19.782,27.927-36.073,46.545-46.545C185.964,95.418,187.128,88.436,184.801,82.618z"/>
	</g>
</g>
<g>
	<g>
		<path d="M372.146,488.727h-34.909c-6.982,0-11.636,4.655-11.636,11.636S330.255,512,337.237,512h34.909
			c6.982,0,11.636-4.655,11.636-11.636S379.128,488.727,372.146,488.727z"/>
	</g>
</g>
<g>
	<g>
		<path d="M174.328,488.727h-34.909c-6.982,0-11.636,4.655-11.636,11.636S132.437,512,139.419,512h34.909
			c6.982,0,11.636-4.655,11.636-11.636S181.31,488.727,174.328,488.727z"/>
	</g>
</g>
<g>
	<g>
		<path d="M290.692,161.745L280.219,22.109C279.055,9.309,268.583,0,255.783,0c-12.8,0-23.273,9.309-24.436,22.109l-10.473,139.636
			c0,6.982,4.655,12.8,10.473,12.8s11.636-4.655,12.8-10.473l10.473-139.636c0-1.164,2.327-1.164,2.327,0l10.473,139.636
			c0,5.818,5.818,10.473,11.636,10.473h1.164C287.201,174.545,291.855,168.727,290.692,161.745z"/>
	</g>
</g>
<g>
	<g>
		<path d="M431.492,296.727L320.946,217.6c-5.818-3.491-12.8-2.327-16.291,2.327c-3.491,5.818-2.327,12.8,2.327,16.291
			l110.545,79.127v1.164h-1.164l-112.873-55.855c-9.309-4.655-22.109-2.327-29.091,4.655c-4.655,6.982-6.982,13.964-6.982,20.945
			l10.473,202.473H232.51l11.636-202.473c0-6.982-2.327-13.964-6.982-19.782c-8.146-8.145-19.782-9.309-30.255-4.655L94.037,317.673
			h-1.164v-1.164l110.545-79.127c4.655-3.491,6.982-10.473,2.327-16.291c-3.491-4.655-10.473-6.982-16.291-2.327L78.91,297.891
			c-10.473,6.982-13.964,20.945-6.982,32.582c6.982,9.309,20.945,13.964,32.582,8.146l112.873-55.855c1.164,0,2.327,0,3.491,0
			c0,0,1.164,1.164,1.164,2.327l-11.636,215.273c0,3.491,1.164,5.818,3.491,8.145c2.327,2.327,5.818,3.491,8.146,3.491h69.818
			c3.491,0,5.818-1.164,8.145-3.491c2.327-2.327,3.491-5.818,3.491-8.145l-11.636-215.273c0-1.164,0-1.164,1.164-2.327
			c1.164-1.164,2.327-1.164,2.327-1.164l112.873,55.855c11.636,5.818,25.6,1.164,31.418-9.309
			C445.455,317.673,441.965,303.709,431.492,296.727z"/>
	</g>
</g>
</svg>