<?xml version="1.0" encoding="iso-8859-1"?>
<!-- Uploaded to: SVG Repo, www.svgrepo.com, Generator: SVG Repo Mixer Tools -->
<svg fill="#000000" height="800px" width="800px" version="1.1" id="Layer_1" xmlns="http://www.w3.org/2000/svg" xmlns:xlink="http://www.w3.org/1999/xlink" 
	 viewBox="0 0 512 512" xml:space="preserve">
<g>
	<g>
		<path d="M265.309,157.091c-4.655-5.818-13.964-5.818-18.618,0c-5.818,8.145-60.509,83.782-60.509,129.164
			c0,30.255,12.8,47.709,23.273,57.018c9.309,9.309,22.109,13.964,34.909,16.291V384c0,6.982,4.655,11.636,11.636,11.636
			s11.636-4.655,11.636-11.636V256c0-6.982-4.655-11.636-11.636-11.636s-11.636,4.655-11.636,11.636v80.291
			c-6.982-2.327-13.964-4.655-19.782-10.473c-10.473-9.309-15.127-22.109-15.127-39.564c0-26.764,27.927-74.473,46.545-102.4
			c18.618,27.927,46.545,75.636,46.545,102.4c0,18.618-4.655,32.582-15.127,41.891c-4.655,3.491-5.818,10.473-1.164,16.291
			c4.655,4.655,11.636,5.818,16.291,1.164c10.473-9.309,23.273-26.764,23.273-59.345
			C325.818,240.873,271.127,165.236,265.309,157.091z"/>
	</g>
</g>
<g>
	<g>
		<path d="M505.018,140.8l-62.836-24.436V23.273c6.982,0,11.636-4.655,11.636-11.636S449.164,0,442.182,0h-93.091
			c-6.982,0-11.636,4.655-11.636,11.636s4.655,11.636,11.636,11.636v34.909c0,6.982,4.655,11.636,11.636,11.636
			s11.636-4.655,11.636-11.636V23.273h46.545v84.945L260.655,47.709c-2.327-1.164-5.818-1.164-8.145,0L8.145,140.8
			C3.491,141.964,0,146.618,0,151.273v12.8c0,11.636,5.818,22.109,15.127,29.091s20.945,8.145,32.582,3.491L256,117.527
			l146.618,55.855c5.818,2.327,12.8-1.164,15.127-6.982s-1.164-12.8-6.982-15.127L259.491,93.091c-2.327-1.164-5.818-1.164-8.145,0
			L39.564,174.545c-3.491,1.164-6.982,1.164-10.473-1.164c-3.491-2.327-5.818-5.818-5.818-9.309v-4.655L256,70.982l232.727,88.436
			v4.655c0,3.491-2.327,6.982-4.655,9.309c-3.491,2.327-6.982,2.327-10.473,1.164l-15.127-5.818
			c-3.491-1.164-8.145-1.164-10.473,1.164c-3.491,2.327-4.655,5.818-4.655,9.309l-1.164,297.891c0,6.982-4.655,11.636-11.636,11.636
			H81.455c-6.982,0-11.636-4.655-11.636-11.636V232.727c0-6.982-4.655-11.636-11.636-11.636s-11.636,4.655-11.636,11.636v244.364
			c0,19.782,15.127,34.909,34.909,34.909h349.091c19.782,0,34.909-15.127,34.909-34.909V196.655
			c10.473,3.491,22.109,2.327,31.418-4.655S512,174.545,512,162.909v-11.636C512,146.618,508.509,141.964,505.018,140.8z"/>
	</g>
</g>
<g>
	<g>
		<path d="M354.909,215.273c-4.655-4.655-11.636-4.655-16.291,0s-4.655,11.636,0,16.291c45.382,45.382,45.382,118.691,0,164.073
			c-45.382,45.382-118.691,45.382-164.073,0c-45.382-45.382-45.382-118.691,0-164.073c3.491-4.655,3.491-11.636-1.164-16.291
			s-11.636-4.655-16.291,0c-54.691,54.691-54.691,143.127,0,197.818c26.764,26.764,62.836,40.727,98.909,40.727
			s70.982-13.964,98.909-40.727C409.6,358.4,409.6,269.964,354.909,215.273z"/>
	</g>
</g>
</svg>