<?xml version="1.0" encoding="iso-8859-1"?>
<!-- Uploaded to: SVG Repo, www.svgrepo.com, Generator: SVG Repo Mixer Tools -->
<svg fill="#000000" height="800px" width="800px" version="1.1" id="Layer_1" xmlns="http://www.w3.org/2000/svg" xmlns:xlink="http://www.w3.org/1999/xlink" 
	 viewBox="0 0 512 512" xml:space="preserve">
<g>
	<g>
		<g>
			<path d="M449.164,259.491c-2.327-2.327-5.818-3.491-10.473-3.491c-8.145,1.164-80.291,13.964-105.891,39.564
				c-23.273,23.273-26.764,50.036-10.473,73.309l-18.618,18.618c-16.291,16.291-29.091,29.091-38.4,41.891V243.2
				c19.782-2.327,38.4-10.473,53.527-22.109l17.455,17.455c2.327,2.327,5.818,3.491,8.146,3.491s5.818-1.164,8.145-3.491
				c4.655-4.655,4.655-11.636,0-16.291L336.291,204.8c11.636-15.127,19.782-33.745,22.109-53.527h24.436
				c6.982,0,11.636-4.655,11.636-11.636S389.818,128,382.836,128H358.4c-2.327-19.782-10.473-38.4-22.109-53.527l17.455-17.455
				c4.655-4.655,4.655-11.636,0-16.291s-11.636-4.655-16.291,0L320,58.182c-15.127-11.636-33.745-19.782-53.527-22.109V11.636
				C266.473,4.655,261.818,0,254.836,0S243.2,4.655,243.2,11.636v24.436c-19.782,2.327-38.4,10.473-53.527,22.109l-17.455-17.455
				c-4.655-4.655-11.636-4.655-16.291,0s-4.655,11.636,0,16.291l17.455,17.455C161.745,89.6,153.6,108.218,151.273,128h-24.436
				c-6.982,0-11.636,4.655-11.636,11.636s4.655,11.636,11.636,11.636h24.436c2.327,19.782,10.473,38.4,22.109,53.527l-17.455,17.455
				c-4.655,4.655-4.655,11.636,0,16.291c2.327,2.327,5.818,3.491,8.145,3.491s5.818-1.164,8.145-3.491l17.455-17.455
				c15.127,11.636,33.745,19.782,53.527,22.109v186.182c-9.309-12.8-22.109-26.764-38.4-41.891l-18.618-18.618
				c16.291-23.273,12.8-50.036-10.473-73.309c-25.6-25.6-96.582-38.4-104.727-39.564c-3.491-1.164-6.982,1.164-10.473,3.491
				c-2.327,2.327-3.491,5.818-3.491,10.473c1.164,8.146,13.964,80.291,39.564,105.891c8.145,8.145,17.455,13.964,26.764,17.455
				c1.164,0,2.327,0,3.491,0c4.655,0,9.309-3.491,11.636-8.145c2.327-5.818-1.164-12.8-6.982-15.127
				c-5.818-2.327-11.636-5.818-17.455-11.636c-13.964-13.964-24.436-51.2-29.091-76.8c24.436,5.818,62.836,16.291,75.636,29.091
				c13.964,13.964,17.455,27.927,10.473,40.727l-11.636-11.636c-4.655-4.655-11.636-4.655-16.291,0s-4.655,11.636,0,16.291
				l46.545,46.545c41.891,41.891,54.691,58.182,54.691,96.582c0,6.982,4.655,11.636,11.636,11.636s11.636-4.655,11.636-11.636
				c0-38.4,12.8-54.691,54.691-96.582l46.545-46.545c4.655-4.655,4.655-11.636,0-16.291c-4.655-4.655-11.636-4.655-16.291,0
				l-11.636,11.636c-6.982-12.8-3.491-26.764,10.473-40.727c13.964-13.964,51.2-24.436,75.636-29.091
				c-5.818,25.6-16.291,62.836-29.091,76.8c-5.818,5.818-11.636,9.309-17.455,11.636c-5.818,2.327-9.309,8.145-6.982,15.127
				c1.164,4.655,5.818,8.145,11.636,8.145c1.164,0,2.327,0,3.491,0c9.309-3.491,18.618-9.309,26.764-17.455
				c25.6-25.6,37.236-97.745,39.564-105.891C452.655,265.309,451.491,261.818,449.164,259.491z M254.836,221.091
				c-45.382,0-81.455-36.073-81.455-81.455c0-45.382,36.073-81.455,81.455-81.455s81.455,36.073,81.455,81.455
				C336.291,185.018,300.218,221.091,254.836,221.091z"/>
			<path d="M278.109,128h-23.273l20.945-27.927c3.491-4.655,2.327-12.8-2.327-16.291c-4.655-3.491-12.8-2.327-16.291,2.327
				l-34.909,46.545c-2.327,3.491-3.491,8.145-1.164,11.636s5.818,6.982,10.473,6.982h23.273L233.891,179.2
				c-3.491,4.655-2.327,12.8,2.327,16.291c2.327,1.164,4.655,2.327,6.982,2.327c3.491,0,6.982-1.164,9.309-4.655l34.909-46.545
				c2.327-3.491,3.491-8.145,1.164-11.636S282.764,128,278.109,128z"/>
			<path d="M336.291,488.727h-34.909c-6.982,0-11.636,4.655-11.636,11.636S294.4,512,301.382,512h34.909
				c6.982,0,11.636-4.655,11.636-11.636S343.273,488.727,336.291,488.727z"/>
			<path d="M208.291,488.727h-34.909c-6.982,0-11.636,4.655-11.636,11.636S166.4,512,173.382,512h34.909
				c6.982,0,11.636-4.655,11.636-11.636S215.273,488.727,208.291,488.727z"/>
		</g>
	</g>
</g>
</svg>