<svg width="728" height="800" viewBox="0 0 728 800" fill="none" xmlns="http://www.w3.org/2000/svg">
<path d="M509.091 218.181C514.545 236.363 518.181 254.545 520 274.545C521.819 283.636 530.909 290.909 540 289.091C549.091 287.272 556.364 278.181 554.545 269.091C552.727 250.909 549.091 234.545 545.455 216.364H654.545C663.636 234.545 670.909 254.545 678.181 276.364C680 285.455 690.909 290.909 700 289.091C709.091 287.272 714.545 276.364 712.727 267.272C670.909 110.909 527.272 0 363.636 0C163.636 0 0 163.636 0 363.636C0 563.636 161.819 725.455 361.819 727.272H363.636C403.636 727.272 441.817 721.817 478.181 709.091C487.272 705.455 492.727 696.364 489.091 685.455C485.455 676.364 476.364 670.909 467.272 674.545C479.998 661.819 490.908 645.455 501.817 627.272C507.272 618.181 503.636 607.272 494.544 601.817C485.452 596.362 474.544 599.998 469.089 609.091C443.634 652.727 412.725 681.817 379.998 689.091V545.455H489.089C499.998 545.455 507.27 538.181 507.27 527.273C507.27 516.364 499.997 509.092 489.089 509.092H379.998V381.819H490.908C501.817 381.819 509.089 374.545 509.089 363.637C509.089 352.73 501.816 345.456 490.908 345.456H381.817V218.183L509.091 218.181ZM636.362 181.819H538.181C521.817 129.092 498.181 85.4547 470.908 54.5453C538.181 78.1813 596.362 121.819 636.362 181.819ZM258.181 54.5453C230.908 85.4547 207.272 129.091 190.908 181.819H145.453C134.544 181.819 127.272 189.092 127.272 200C127.272 210.908 134.545 218.181 145.453 218.181H179.998C170.908 258.181 165.453 300 163.634 345.455H36.3625C45.4547 210.909 134.545 96.3641 258.181 54.5453ZM90.9094 545.455H189.091C205.455 598.181 229.091 641.819 256.364 672.728C189.091 649.091 130.909 603.636 90.9094 545.455ZM345.455 689.091C298.181 678.181 254.545 625.455 229.091 545.455H345.455V689.091ZM345.455 509.091H70.9094C50.9094 470.909 40 427.272 38.1828 381.817H165.456C165.456 407.272 167.275 432.727 170.911 456.362C172.73 465.453 180.002 472.727 189.092 472.727H190.911C200.002 470.908 207.275 461.817 205.456 452.727C201.82 429.091 200.002 405.453 200.002 381.817H290.911C301.82 381.817 309.092 374.544 309.092 363.636C309.092 352.728 301.819 345.455 290.911 345.455H200.002C201.82 300 207.275 256.364 218.183 218.181H345.456V509.091H345.455ZM363.636 72.7266C352.727 72.7266 345.455 80 345.455 90.9078V181.817H229.091C258.181 94.5437 309.091 36.3625 363.636 36.3625C418.181 36.3625 469.091 94.5437 498.181 181.817H381.817V90.9094C381.817 80 374.545 72.7266 363.636 72.7266Z" fill="white"/>
<path d="M703.636 623.636C696.363 614.545 690.909 601.817 690.909 589.091V367.273C690.909 327.273 660 292.728 621.819 290.909C601.819 290.909 581.819 296.364 567.274 310.909C554.547 325.455 545.455 343.636 545.455 363.636V589.091C545.455 601.819 541.819 614.545 532.728 623.636C512.728 649.091 505.455 680 510.909 710.909C518.183 754.545 552.728 789.091 594.545 798.183C601.817 800 610.909 800 618.181 800C643.636 800 667.272 790.909 687.272 776.364C712.727 756.364 727.272 725.455 727.272 690.909C727.272 665.455 718.181 641.819 703.636 623.636ZM663.636 747.273C645.455 761.819 623.636 767.273 601.817 761.819C574.544 756.364 550.908 732.728 545.453 703.638C541.817 681.819 547.272 661.819 559.999 645.456C572.725 629.092 579.999 609.092 579.999 587.275V363.636C579.999 352.727 583.634 343.636 590.908 336.363C599.999 330.908 609.089 327.272 618.181 327.272H620C638.181 329.091 654.545 345.453 654.545 367.272V589.091C654.545 609.091 661.819 630.909 674.545 645.455C685.455 658.181 690.909 674.545 690.909 690.909C690.909 712.727 681.817 732.727 663.636 747.273Z" fill="white"/>
<path d="M636.362 660V454.545C636.362 443.636 629.089 436.364 618.181 436.364C607.273 436.364 600 443.638 600 454.545V660C589.09 665.455 581.818 678.181 581.818 690.91C581.818 710.91 598.182 727.274 618.182 727.274C638.182 727.274 654.547 710.91 654.547 690.91C654.545 678.181 647.272 665.455 636.362 660Z" fill="white"/>
</svg>
