<svg width="873" height="990" viewBox="0 0 873 990" fill="none" xmlns="http://www.w3.org/2000/svg">
<mask id="mask0_13_8418" style="mask-type:luminance" maskUnits="userSpaceOnUse" x="0" y="0" width="873" height="990">
<path d="M0 0H872.862V990H0V0Z" fill="white"/>
</mask>
<g mask="url(#mask0_13_8418)">
<path d="M436.431 85.058C442.354 85.058 447.051 80.4765 447.051 74.6998V11.9534C447.051 6.17672 442.354 1.59521 436.431 1.59521C430.509 1.59521 425.811 6.17672 425.811 11.9534V74.6998C425.811 80.4765 430.509 85.058 436.431 85.058ZM731.538 124.299L685.791 168.72C681.503 172.704 681.503 179.277 685.791 183.261C687.833 185.253 690.488 186.249 693.348 186.249C696.003 186.249 698.657 185.253 700.904 183.261L746.651 138.841C750.735 134.857 750.735 128.283 746.651 124.299C742.362 120.316 735.622 120.316 731.538 124.299ZM862.243 413.332H797.503C791.58 413.332 786.883 417.913 786.883 423.491C786.883 429.267 791.58 433.849 797.503 433.849H862.243C868.165 433.849 873.067 429.267 873.067 423.491C873.067 417.913 868.165 413.332 862.243 413.332ZM691.305 652.764C687.221 648.78 680.481 648.78 676.397 652.764C672.108 656.748 672.108 663.322 676.193 667.305L722.143 711.726C724.186 713.718 727.045 714.714 729.7 714.714C732.355 714.714 735.01 713.718 737.256 711.726C741.341 707.742 741.341 701.169 737.256 697.185L691.305 652.764ZM179.719 186.249C182.374 186.249 185.029 185.253 187.275 183.261C191.36 179.277 191.36 172.704 187.275 168.72L141.324 124.299C137.24 120.316 130.5 120.116 126.212 124.299C122.127 128.283 122.127 134.658 126.212 138.841L172.163 183.261C174.205 185.253 176.86 186.249 179.719 186.249ZM75.3594 413.332H10.6198C4.69721 413.332 0 417.913 0 423.491C0 429.267 4.69721 433.849 10.6198 433.849H75.3594C81.282 433.849 86.1834 429.267 86.1834 423.491C85.9791 417.913 81.282 413.332 75.3594 413.332ZM181.557 652.764L135.606 697.185C131.522 701.169 131.522 707.742 135.606 711.726C137.853 713.718 140.508 714.714 143.162 714.714C146.022 714.714 148.677 713.718 150.719 711.726L196.67 667.305C200.754 663.322 200.754 656.748 196.67 652.764C192.381 648.78 185.641 648.78 181.557 652.764ZM509.34 905.742L391.706 887.815C391.706 887.815 391.706 887.815 391.501 887.815L374.142 885.424C369.037 884.827 364.135 887.815 362.501 892.595C360.255 899.766 359.029 907.136 359.029 914.706C359.234 934.625 367.811 953.35 382.924 967.293C398.037 981.038 417.642 988.408 438.678 988.408C438.882 988.408 439.086 988.408 439.29 988.408C482.382 988.209 517.1 956.338 518.326 916.1C518.326 910.921 514.65 906.539 509.34 905.742ZM439.086 967.891C422.748 967.493 408.656 962.513 397.628 952.354C386.6 942.195 380.473 928.849 380.269 914.507C380.269 912.116 380.473 909.527 380.882 907.136L495.861 924.466C490.755 949.167 467.474 967.692 439.086 967.891ZM545.284 824.271L332.684 788.815C326.762 787.818 321.248 791.603 320.227 797.181C319.41 802.758 323.29 807.937 329.008 808.933L541.608 844.39C542.22 844.589 542.833 844.589 543.446 844.589C548.551 844.589 553.044 841.004 553.861 836.024C554.882 830.446 551.002 825.267 545.284 824.271ZM447.051 122.108H425.811C264.064 122.108 132.543 261.943 132.543 433.65V436.637C132.951 484.046 152.148 533.646 191.156 588.225C196.057 594.798 201.163 601.372 206.473 607.746C214.029 617.108 221.177 626.072 227.099 635.833C242.212 660.533 252.832 684.635 261.409 713.917C267.536 734.036 290.41 759.134 311.853 762.322L583.474 803.356C584.087 803.356 584.699 803.555 585.108 803.555C590.213 803.555 594.911 799.969 595.728 794.79C596.544 789.213 592.664 783.835 586.742 783.038L315.121 742.004C303.684 740.211 286.325 722.682 282.036 708.14C272.846 677.265 261.614 651.768 245.48 625.474C238.945 614.519 230.98 604.559 223.219 594.998C218.318 589.022 213.212 582.847 208.719 576.472C172.163 525.479 154.191 479.664 153.782 436.438V433.65C153.782 273.098 275.909 142.625 425.811 142.625H447.051C596.953 142.625 719.08 273.297 719.08 433.65V436.438C718.672 479.664 700.7 525.479 664.143 576.472C659.65 582.847 654.545 589.022 649.643 594.998C641.883 604.559 633.918 614.519 627.383 625.474C611.249 651.768 583.065 703.161 574.692 750.37C573.671 755.947 577.551 761.326 583.27 762.322C589.192 763.118 594.706 759.533 595.523 753.955C603.692 708.34 633.305 656.151 645.763 635.833C651.685 626.072 658.833 617.108 666.39 607.746C671.7 601.372 676.805 594.798 681.707 588.225C720.714 533.646 739.911 484.046 740.32 436.637V433.65C740.32 261.943 608.798 122.108 447.051 122.108ZM516.896 863.114L362.91 839.808C357.191 839.012 351.677 842.796 350.86 848.374C349.839 853.951 353.924 859.33 359.642 860.126L513.629 883.432C514.037 883.631 514.65 883.631 515.262 883.631C520.368 883.631 524.861 880.046 525.678 874.867C526.699 869.289 522.615 864.11 516.896 863.114ZM507.093 355.366C519.347 349.39 530.784 343.812 542.22 341.223C545.896 340.426 548.756 337.837 549.981 334.251C553.657 322.698 515.671 279.672 485.445 265.728C457.262 252.78 414.987 249.593 373.325 307.161C365.769 310.348 357.804 314.332 349.635 319.909C344.734 323.096 343.508 329.47 346.98 334.052C349.022 337.04 352.29 338.434 355.762 338.434C357.804 338.434 359.846 337.837 361.684 336.641C369.241 331.662 376.184 328.275 383.128 325.487C406.206 361.541 429.487 372.696 451.34 372.696C471.354 372.696 490.143 363.533 507.093 355.366ZM404.572 319.71C424.178 316.921 439.495 321.901 446.847 325.287C449.502 326.283 453.382 326.881 456.037 325.885C461.551 323.893 464.41 317.917 462.368 312.539C461.143 309.551 458.692 307.559 455.833 306.563C447.255 302.579 430.304 297.201 408.656 298.595C423.565 284.652 438.882 277.68 454.403 278.477C484.424 280.269 510.974 308.953 523.431 325.487C514.445 328.674 505.868 332.857 497.495 337.04C462.572 353.971 436.84 366.322 404.572 319.71ZM355.966 411.14C344.325 404.169 333.501 397.595 325.332 389.627C322.473 387.038 318.593 386.042 315.121 386.839C302.867 389.827 284.691 443.41 287.959 475.68C291.226 505.758 310.424 542.211 383.128 546.394C389.868 551.175 397.424 555.557 406.614 559.541C408.044 560.138 409.473 560.338 410.903 560.338C414.987 560.338 418.868 558.146 420.706 554.163C422.952 548.984 420.501 543.008 415.192 540.617C406.818 537.231 400.283 533.247 394.156 528.865C431.734 456.756 389.663 431.458 355.966 411.14ZM315.529 494.603C301.438 469.106 312.874 432.255 321.043 413.332C328.6 418.909 336.769 423.889 344.734 428.67C378.023 448.589 402.325 463.529 377.818 514.324C365.156 499.583 361.684 484.444 360.663 476.476C360.255 473.688 358.825 470.301 356.579 468.509C351.882 465.122 345.142 465.919 341.466 470.301C339.628 472.891 338.811 475.879 339.424 478.867C340.649 488.03 344.529 504.762 357.191 521.893C336.973 516.913 322.881 507.949 315.529 494.603ZM484.629 559.342C505.664 559.342 542.016 550.776 562.643 537.829C589.192 521.096 613.904 487.631 583.678 423.291C584.699 415.124 585.312 406.559 584.495 396.998C584.087 391.221 578.981 387.038 573.058 387.436C567.34 387.835 562.847 392.815 563.256 398.591C563.868 407.157 563.46 414.726 562.234 421.897C478.91 423.69 475.234 471.297 472.579 509.742C471.558 522.69 470.741 535.239 467.065 545.996C466.044 549.382 466.861 553.167 469.312 555.756C471.354 558.146 477.072 559.342 484.629 559.342ZM493.819 511.136C496.474 473.289 498.72 445.601 556.72 442.812C548.96 460.541 536.91 470.501 530.171 475.082C527.924 476.477 525.474 479.464 524.861 482.054C523.636 487.631 527.312 493.01 533.03 494.205C533.847 494.404 534.664 494.404 535.277 494.404C537.932 494.404 540.178 493.607 542.016 492.014C549.981 486.835 563.46 475.48 573.263 456.756C578.164 476.277 576.734 492.611 567.953 505.161C551.002 529.064 511.995 536.633 490.96 538.426C492.389 529.462 493.002 520.1 493.819 511.136Z" fill="white"/>
</g>
</svg>
