<svg width="745" height="648" viewBox="0 0 745 648" fill="none" xmlns="http://www.w3.org/2000/svg">
<path fill-rule="evenodd" clip-rule="evenodd" d="M140.378 163.977V123.018C140.286 120.714 141.177 118.47 142.836 116.825C144.464 115.179 146.737 114.252 149.102 114.252C151.468 114.252 153.71 115.179 155.369 116.825C156.997 118.47 157.887 120.714 157.826 123.018V163.977C157.887 166.281 156.997 168.525 155.369 170.171C153.71 171.816 151.468 172.744 149.102 172.744C146.737 172.744 144.464 171.816 142.836 170.171C141.177 168.525 140.286 166.281 140.378 163.977ZM92.3671 181.061C93.4728 183.066 95.4081 184.562 97.6505 185.19C99.9235 185.818 102.35 185.519 104.408 184.382C106.436 183.245 107.91 181.331 108.494 179.117C109.077 176.873 108.709 174.509 107.48 172.564L86.4385 137.081C84.0119 133.101 78.7285 131.785 74.5817 134.089C70.4656 136.422 69.0219 141.539 71.3257 145.607L92.3672 181.091L92.3671 181.061ZM23.1608 198.714C21.1027 197.637 19.5669 195.752 18.9218 193.568C18.2767 191.354 18.5839 188.99 19.7512 186.985C20.9491 185.011 22.8844 183.545 25.1882 183.006C27.4612 182.438 29.888 182.797 31.8845 183.993L68.3152 204.488C72.4927 206.822 73.9364 212.028 71.5098 216.097C69.1138 220.165 63.7691 221.572 59.5917 219.238L23.1608 198.714ZM8.72392 268.245H50.7763C55.5989 268.245 59.5309 264.446 59.5309 259.748C59.5309 255.051 55.5991 251.251 50.7763 251.251H8.72392C3.90131 251.251 0 255.051 0 259.748C0 264.445 3.90107 268.245 8.72392 268.245ZM59.5922 300.259L23.1616 320.753C19.1376 323.147 17.8167 328.263 20.1819 332.242C22.5472 336.221 27.7384 337.657 31.8854 335.473L68.316 314.979C72.34 312.585 73.6609 307.469 71.3263 303.49C68.9611 299.481 63.7392 298.075 59.5922 300.259ZM74.5512 385.529C70.3736 383.166 68.93 377.96 71.3566 373.891L92.3981 338.407V338.437C94.8248 334.428 100.108 333.111 104.255 335.415C108.371 337.749 109.815 342.865 107.511 346.934L86.4694 382.418C84.0428 386.457 78.7285 387.863 74.5512 385.529ZM238.673 259.749C238.673 261.993 239.595 264.177 241.223 265.763C242.881 267.348 245.093 268.246 247.397 268.246H289.48C294.303 268.246 298.204 264.446 298.204 259.749C298.204 255.051 294.303 251.251 289.48 251.251H247.397C242.574 251.251 238.673 255.051 238.673 259.749ZM226.663 216.127C229.09 220.196 234.435 221.572 238.612 219.239L275.042 198.714C277.07 197.607 278.575 195.752 279.22 193.538C279.834 191.354 279.527 189.02 278.36 187.046C277.193 185.071 275.257 183.635 272.984 183.066C270.711 182.468 268.315 182.827 266.288 183.994L229.857 204.489H229.888C225.711 206.822 224.267 212.028 226.694 216.097L226.663 216.127ZM193.887 184.203C189.71 181.84 188.297 176.664 190.693 172.595L211.734 137.111C214.192 133.132 219.444 131.785 223.591 134.119C227.707 136.453 229.182 141.569 226.847 145.608L205.806 181.092C204.638 183.037 202.734 184.473 200.522 185.071C198.28 185.64 195.884 185.34 193.887 184.203ZM531.992 258.313L511.688 246.884H510.613L489.449 258.791L489.541 630.388H531.962V258.286L531.992 258.313ZM386.421 606.87C386.39 598.313 379.294 591.402 370.54 591.402H329.072V465.293L451.116 463.976C455.477 463.916 459.563 461.882 462.143 458.471C464.723 455.06 465.491 450.662 464.232 446.593L420.582 305.494H420.613C419.906 303.25 418.616 301.186 416.835 299.57L471.972 268.574L472.064 630.352H736.204V630.322C741.026 630.322 744.958 634.151 744.958 638.849C744.958 643.546 741.026 647.346 736.204 647.346H16.217C11.3944 647.346 7.49305 643.546 7.49305 638.849C7.49305 634.151 11.3941 630.322 16.217 630.322H386.421L386.421 606.87ZM368.911 313.069L373.212 338.649H412.622L404.667 312.948L368.911 313.069ZM446.135 447.044L436.858 417.065H386.359L391.519 447.613L446.165 447.044L446.135 447.044ZM431.636 400.042L417.905 355.642H376.099L383.563 400.042H431.636ZM358.406 355.642H304.804V400.042H365.839L358.375 355.642H358.406ZM304.804 313.277V338.648H355.549L351.248 313.128L304.804 313.277ZM287.356 313.337L240.85 313.486L236.611 338.649H287.356L287.325 313.337L287.356 313.337ZM223.126 313.546L187.279 313.666L179.077 338.648H218.917L223.126 313.546ZM158.865 400.042H208.535L215.999 355.642H173.455L158.865 400.042ZM226.259 400.042H287.325V355.642H233.723L226.259 400.042ZM223.402 417.067L217.934 449.469L287.325 448.721V417.067L223.402 417.067ZM304.807 448.542L373.921 447.794L368.76 417.037L304.807 417.067L304.807 448.542ZM484.074 203.507C484.043 214.187 490.647 223.791 500.784 227.891C510.89 231.96 522.532 229.716 530.303 222.176C538.044 214.636 540.348 203.267 536.17 193.424C531.962 183.55 522.102 177.148 511.136 177.148C496.207 177.148 484.074 188.936 484.074 203.507ZM685.061 277.855L555.649 205.092C555.096 219.453 547.294 232.618 534.792 240.246L664.361 313.099L691.761 305.829C690.01 298.169 686.601 283.18 685.034 277.855L685.061 277.855ZM490.31 19.6537V165.18C503.333 158.448 518.969 158.448 531.993 165.18V19.4775L511.812 0C505.884 5.26574 494.272 15.6479 490.279 19.6567L490.31 19.6537ZM332.211 296.191L388.393 296.012L487.546 240.243C475.044 232.614 467.242 219.45 466.689 205.089L337.12 277.941L332.211 296.191ZM166.918 319.917L171.464 306.065V306.095C173.276 300.5 178.59 296.7 184.611 296.7L201.044 296.64C219.475 271.957 216.894 237.909 194.932 216.126C172.969 194.343 138.043 191.203 112.363 208.736C86.7147 226.239 77.8068 259.269 91.2913 286.822C104.807 314.378 136.784 328.385 166.918 319.917ZM142.374 450.278L200.246 449.68L205.714 417.068H153.279L142.374 450.278ZM276.795 591.407H311.568V465.482L276.795 465.841V591.407ZM219.446 630.362H368.949V608.401H219.446V630.362Z" fill="white"/>
</svg>
