<svg width="874" height="843" viewBox="0 0 874 843" fill="none" xmlns="http://www.w3.org/2000/svg">
<mask id="mask0_13_8708" style="mask-type:luminance" maskUnits="userSpaceOnUse" x="0" y="0" width="874" height="843">
<path d="M0 0H874V842.307H0V0Z" fill="white"/>
</mask>
<g mask="url(#mask0_13_8708)">
<path d="M82.0758 297.766H371.839C379.262 297.766 385.257 303.943 385.257 311.269C385.257 318.882 379.119 324.914 371.839 324.914H82.0758C64.2332 324.484 64.376 298.054 82.0758 297.766ZM82.0758 433.65H311.317C329.017 433.219 329.16 406.646 311.317 406.359H82.0758C64.376 406.646 64.2332 433.219 82.0758 433.65ZM82.0758 542.099H210.828C228.528 541.811 228.528 515.238 210.828 514.951H82.0758C64.376 515.238 64.2332 541.811 82.0758 542.099ZM311.174 623.686H82.0758C64.376 623.974 64.2332 650.547 82.0758 650.834H311.174C328.874 650.547 329.017 623.83 311.174 623.686ZM791.068 841.732C770.228 841.732 750.101 833.114 735.827 817.601L633.911 707.86C614.355 687.175 572.675 642.072 552.977 620.957V712.025C552.977 728.975 539.274 742.764 522.43 742.764H504.73V757.99C535.991 764.167 559.828 792.033 559.828 825.357C559.828 832.827 553.69 838.86 546.411 838.86H105.485C98.0627 838.86 92.0676 832.683 92.0676 825.357C91.3539 793.326 116.048 763.592 147.165 757.99V742.764H30.5465C13.7031 742.764 0 728.975 0 712.025V126.978C0 123.387 1.42741 119.94 3.85399 117.354L116.333 4.02193C118.903 1.58005 122.329 0 125.897 0H522.002C538.845 0 552.691 13.9331 552.691 30.8827V336.693L615.354 388.834C659.176 426.468 614.641 496.134 562.969 471.571L551.692 485.504L568.964 499.868C580.811 509.78 584.094 526.155 578.242 539.8C651.753 587.345 766.231 658.016 839.6 706.998C893.698 751.67 861.296 842.307 791.068 841.732ZM530.709 353.499C526.855 351.057 462.336 294.175 458.768 295.755C435.216 288.286 418.943 320.031 439.212 335.113L568.964 443.13C578.242 451.893 593.229 451.174 601.223 441.263C609.074 431.927 607.646 417.706 598.368 409.95C598.225 409.662 530.709 353.499 530.709 353.499ZM541.272 455.34L432.504 364.559C418.372 381.652 348.715 466.831 333.014 485.792L441.782 576.429C454.2 561.203 526.998 472.577 541.272 455.34ZM435.644 606.737L304.465 497.427C281.627 478.753 253.793 512.078 275.917 531.469L407.952 641.641C420.656 652.702 442.353 644.227 444.066 627.421C445.208 619.521 441.639 611.477 435.644 606.737ZM45.9624 113.189H108.911C110.909 113.189 112.48 111.465 112.48 109.598V46.2522L45.9624 113.189ZM491.313 784.133H160.726C143.311 783.558 126.754 795.337 121.329 811.855H530.566C525 795.624 509.298 783.845 491.313 784.133ZM477.039 733.284C473.756 720.5 462.907 712.025 450.346 712.025H201.692C186.562 711.882 174.143 724.809 174.143 739.748V756.841H477.895C477.467 752.245 478.609 737.45 477.039 733.284ZM525.856 600.417C516.15 604.87 504.73 604.295 495.309 599.124C491.313 597.113 476.61 584.329 472.899 581.169L461.765 594.815C494.453 642.647 436.358 698.092 390.823 662.326L258.789 552.441C214.967 515.094 259.502 445.572 311.317 469.704C322.165 456.489 404.098 356.659 412.663 346.317C387.255 312.418 416.374 261.569 458.34 267.889C467.475 269.038 476.182 272.629 483.462 278.806L525.856 314.141V30.739C525.856 28.5844 524.143 27.148 522.002 27.148H139.457V109.598C139.457 126.547 125.754 140.48 108.911 140.48H26.978V712.025C26.978 714.036 28.6908 715.76 30.5465 715.76H152.732C161.725 697.23 181.138 684.734 201.692 684.877H450.346C470.758 684.877 490.456 697.23 499.306 715.76H522.287C524.286 715.76 525.999 714.036 525.999 712.025V600.417H525.856ZM552.834 530.32C555.26 527.447 554.832 522.995 551.977 520.553L534.563 506.189L490.028 560.341L507.442 574.705C510.297 577.147 514.722 576.716 517.149 573.843C522.573 567.092 547.267 537.071 552.834 530.32ZM610.216 642.791L637.622 609.466L562.398 561.346C559.115 565.225 552.691 573.125 549.408 577.147L610.216 642.791ZM642.903 677.982L677.875 635.321L660.603 624.117L628.772 662.9L642.903 677.982ZM817.332 723.947L700.999 649.829L661.602 697.948L755.811 799.215C774.795 820.761 811.194 819.468 829.037 796.917C847.593 774.365 841.883 739.604 817.332 723.947ZM290.905 160.015C296.472 22.8388 490.456 22.8388 496.023 160.015C496.023 217.041 449.918 263.436 393.393 263.436C336.725 263.436 290.905 217.041 290.905 160.015ZM317.883 160.015C321.737 260.851 465.477 260.995 469.188 160.015C469.188 118.072 435.216 83.7423 393.536 83.7423C351.855 83.7423 317.883 118.072 317.883 160.015ZM370.269 194.776C375.55 200.091 384.115 200.091 389.253 194.776L439.07 144.502C451.345 131.718 432.789 112.901 420.085 125.398L379.832 165.905L366.986 153.121C354.282 140.768 335.583 159.441 348.001 172.368L370.269 194.776Z" fill="white"/>
</g>
</svg>
