<svg width="604" height="604" viewBox="0 0 604 604" fill="none" xmlns="http://www.w3.org/2000/svg">
<mask id="mask0_13_8482" style="mask-type:luminance" maskUnits="userSpaceOnUse" x="0" y="0" width="604" height="604">
<path d="M0 0H604V603.266H0V0Z" fill="white"/>
</mask>
<g mask="url(#mask0_13_8482)">
<path fill-rule="evenodd" clip-rule="evenodd" d="M200.429 457.863H54.6921C24.6331 457.863 0 430.972 0 398.131V60.2073C0 27.3667 24.6331 0.475586 54.6921 0.475586H549.308C579.367 0.475586 604 27.3667 604 60.2073V398.131C604 430.972 579.367 457.863 549.308 457.863H403.68V514.62H462.278C489.299 514.62 510.351 535.205 510.351 558.764V592.2C510.351 598.03 506.01 602.79 500.584 602.79H103.524C98.0985 602.79 93.7578 598.03 93.7578 592.2V558.764C93.7578 535.205 114.81 514.62 141.83 514.62H200.429V457.863ZM384.147 457.863H219.962V514.62H384.147V457.863ZM54.6921 21.7743C35.3762 21.7743 19.5329 39.0275 19.5329 60.2073V398.131C19.5329 419.311 35.3762 436.564 54.6921 436.564H549.308C568.732 436.564 584.576 419.311 584.576 398.131V60.2073C584.576 39.0275 568.732 21.7743 549.308 21.7743H54.6921ZM556.687 398.607H47.313C41.9957 398.607 37.5465 393.848 37.5465 388.018V59.0174C37.5465 49.3794 44.8171 41.5262 53.6069 41.5262H550.502C559.291 41.5262 566.453 49.3794 566.453 59.0174V388.018C566.453 393.848 562.113 398.607 556.687 398.607ZM524.675 377.309C538.89 377.309 547.029 377.309 547.029 377.309V62.825H57.0794C57.0794 95.3085 57.0794 324.835 57.0794 377.309C57.0794 377.309 120.344 377.309 201.514 377.309V287.116C201.514 281.286 205.855 276.526 211.172 276.526H257.725C263.043 276.526 267.492 281.286 267.492 287.116V377.309C274.003 377.309 280.622 377.309 287.242 377.309V207.038C287.242 201.207 291.582 196.448 296.9 196.448H343.453C348.77 196.448 353.22 201.207 353.22 207.038V377.309C359.839 377.309 366.458 377.309 372.969 377.309V106.017C372.969 100.187 377.31 95.4275 382.736 95.4275H429.181C434.498 95.4275 438.947 100.187 438.947 106.017V377.309C445.675 377.309 452.295 377.309 458.697 377.309V170.628C458.697 164.797 463.038 160.038 468.464 160.038H514.908C520.334 160.038 524.675 164.797 524.675 170.628V377.309ZM478.121 377.309H505.142V181.217H478.121V377.309ZM392.394 377.309H419.414V116.726H392.394V377.309ZM306.666 377.309H333.687V217.747H306.666V377.309ZM220.939 377.309H247.959V297.825H220.939V377.309ZM134.343 87.6933H206.831C212.908 87.6933 218.226 90.906 221.481 96.6174C221.481 96.6174 221.481 96.6174 221.481 96.7364C224.628 102.448 224.954 108.992 222.132 114.941L194.678 174.078H215.513C220.722 174.078 225.171 177.053 227.45 182.169C229.837 187.167 229.403 192.878 226.256 197.4L143.675 321.028C140.203 326.025 134.451 327.691 129.243 325.311C124.142 322.931 121.212 317.22 122.189 311.152C122.189 311.152 122.189 311.152 122.189 311.033L134.777 229.407H91.1534C86.5957 229.407 82.5807 227.147 79.9763 222.863C77.3719 218.698 76.9378 213.939 78.6741 209.298V209.179L118.391 99.5921C120.995 92.3339 127.181 87.6933 134.343 87.6933ZM100.052 208.109H146.28C149.101 208.109 151.922 209.417 153.767 211.797C155.612 214.177 156.372 217.39 155.937 220.483C155.937 220.483 150.837 253.443 146.605 280.453L203.576 195.377H178.834C175.47 195.377 172.323 193.354 170.587 190.26C168.742 187.048 168.634 183.121 170.153 179.909C170.153 179.909 196.088 123.984 203.033 108.992H135.971C131.955 119.939 108.733 184.073 100.052 208.109ZM113.182 581.491H490.926V558.764C490.926 545.438 477.47 535.919 462.278 535.919H141.83C126.638 535.919 113.182 545.438 113.182 558.764V581.491Z" fill="white"/>
</g>
</svg>
