<svg width="745" height="639" viewBox="0 0 745 639" fill="none" xmlns="http://www.w3.org/2000/svg">
<mask id="mask0_13_8576" style="mask-type:luminance" maskUnits="userSpaceOnUse" x="100" y="34" width="645" height="605">
<path d="M100.623 34.4062H744.344V638.567H100.623V34.4062Z" fill="white"/>
</mask>
<g mask="url(#mask0_13_8576)">
<path d="M716.801 134.395H652.538V86.4499C652.538 70.5509 640.096 57.5088 624.876 57.5088H532.95C517.851 57.5088 505.409 70.5509 505.409 86.4499V134.395H466.875C428.703 109.305 384.975 96.0141 339.918 96.0141C208.251 96.0141 100.984 208.052 100.984 345.677C100.984 483.303 208.251 595.341 339.918 595.341C364.923 595.341 389.565 590.993 413.483 582.671V604.781C413.483 620.68 425.925 633.598 441.145 633.598H716.801C732.021 633.598 744.343 620.68 744.343 604.781V163.212C744.343 147.313 732.021 134.395 716.801 134.395ZM726.102 163.212V192.029H431.844V163.212C431.844 157.871 435.951 153.524 441.145 153.524H716.801C721.875 153.772 726.102 157.995 726.102 163.212ZM726.102 556.836H431.844V211.157H725.861V556.836H726.102ZM523.77 86.4499C523.77 80.9846 527.877 76.7614 532.95 76.7614H624.876C630.07 76.7614 634.177 80.9846 634.177 86.4499V134.395H523.89V86.4499H523.77ZM119.466 345.677C119.466 218.61 218.519 115.267 340.16 115.267C371.808 115.267 403.095 122.471 431.723 136.134C431.482 136.134 431.361 136.258 431.24 136.258C428.824 137.128 426.771 138.37 424.959 139.86C424.596 140.233 424.113 140.606 423.751 140.978C422.06 142.345 420.489 144.084 419.16 145.947C418.919 146.319 418.677 146.444 418.436 146.692C417.107 148.679 416.02 150.915 415.174 153.399C415.053 153.896 414.812 154.393 414.691 155.138C413.966 157.747 413.483 160.231 413.483 163.088V562.549C389.565 571.244 364.923 575.84 339.918 575.84C218.519 575.964 119.466 472.745 119.466 345.677ZM716.801 614.469H441.145C435.951 614.469 431.844 610.122 431.844 604.781V575.964H725.861V604.781C726.102 610.122 721.875 614.469 716.801 614.469Z" fill="white"/>
</g>
<path d="M519.425 384.061H545.517L519.304 467.406C517.976 471.753 519.667 476.225 523.291 478.585C524.74 479.579 526.431 479.951 528.002 479.951C530.418 479.951 532.834 478.958 534.525 477.219L644.691 362.075C647.348 359.343 648.194 355.119 646.744 351.517C645.174 347.915 641.912 345.679 638.288 345.679H612.68L631.403 301.709C632.611 298.728 632.369 295.25 630.678 292.517C628.987 289.785 626.088 288.17 622.947 288.17H543.705C539.84 288.17 536.337 290.778 535.008 294.753L510.728 371.391C509.762 374.372 510.245 377.602 512.057 380.086C513.627 382.57 516.526 384.061 519.425 384.061ZM550.47 307.174H609.056L590.332 351.145C589.004 354.126 589.366 357.604 591.057 360.336C592.628 363.069 595.647 364.684 598.788 364.684H616.303L548.899 435.111L567.019 377.477C568.106 374.496 567.502 371.267 565.69 368.783C564.12 366.423 561.221 364.808 558.322 364.808H532.23L550.47 307.174Z" fill="white"/>
<mask id="mask1_13_8576" style="mask-type:luminance" maskUnits="userSpaceOnUse" x="317" y="0" width="32" height="67">
<path d="M317.09 0H348.014V66.2043H317.09V0Z" fill="white"/>
</mask>
<g mask="url(#mask1_13_8576)">
<path d="M330.86 57.7578C336.054 57.7578 340.161 53.4104 340.161 48.0693V9.81245C340.161 4.34722 336.054 0.124023 330.86 0.124023C325.786 0.124023 321.559 4.34722 321.559 9.81245V48.0693C321.559 53.4104 325.786 57.7578 330.86 57.7578Z" fill="white"/>
</g>
<path d="M122.968 549.26L96.9972 576.337C93.3733 580.064 93.3733 586.15 96.9972 590.001C98.8091 591.864 101.104 592.733 103.399 592.733C105.815 592.733 108.11 591.864 109.922 590.001L135.893 562.799C139.517 559.072 139.517 552.986 135.893 549.26C132.39 545.533 126.471 545.533 122.968 549.26Z" fill="white"/>
<mask id="mask2_13_8576" style="mask-type:luminance" maskUnits="userSpaceOnUse" x="0" y="320" width="70" height="65">
<path d="M0 320.588H69.6992V384.184H0V320.588Z" fill="white"/>
</mask>
<g mask="url(#mask2_13_8576)">
<path d="M45.9024 335.989H9.30127C4.10705 335.989 0 340.337 0 345.678C0 351.019 4.10705 355.366 9.30127 355.366H45.9024C51.0966 355.366 55.2037 351.019 55.2037 345.678C55.2037 340.337 51.0966 335.989 45.9024 335.989Z" fill="white"/>
</g>
<path d="M122.972 141.973C124.784 143.836 127.079 144.706 129.374 144.706C131.669 144.706 134.085 143.836 135.897 141.973C139.521 138.247 139.521 132.161 135.897 128.31L109.926 101.232C106.302 97.5059 100.504 97.5059 96.88 101.232C93.2561 105.083 93.2561 111.045 96.88 114.895L122.972 141.973Z" fill="white"/>
</svg>
