<svg width="606" height="722" viewBox="0 0 606 722" fill="none" xmlns="http://www.w3.org/2000/svg">
<path d="M302.667 262.546C272.334 262.546 249.138 283.877 249.138 311.773C249.138 339.669 272.334 361 302.667 361C333.001 361 356.196 339.669 356.196 311.773C356.196 283.877 333.001 262.546 302.667 262.546ZM302.667 328.182C291.961 328.182 284.825 321.617 284.825 311.773C284.825 301.927 291.963 295.364 302.667 295.364C313.373 295.364 320.51 301.929 320.51 311.773C320.51 321.619 313.372 328.182 302.667 328.182Z" fill="white"/>
<path d="M539.98 137.836C534.627 131.272 522.137 129.632 514.999 134.555C507.861 139.477 506.078 150.963 511.431 157.527C550.686 201.832 570.313 254.342 570.313 311.773C570.313 321.619 570.313 333.105 568.528 342.95C566.744 351.155 573.882 359.359 584.588 361H586.373C595.294 361 602.432 354.436 604.215 346.232C606 334.746 606 323.259 606 311.773C606 247.777 582.804 187.065 539.98 137.836Z" fill="white"/>
<path d="M206.313 42.6645C202.745 34.4602 192.039 29.5373 183.118 32.8188C97.4699 63.9959 27.883 127.992 1.11758 208.396C-2.45063 216.6 2.90245 226.446 11.8237 229.727C13.6086 229.727 15.3919 229.727 17.1768 229.727C24.3148 229.727 31.4512 224.805 35.0194 218.242C59.9999 147.682 120.667 90.2502 195.607 63.9959C204.53 60.7145 209.883 50.8688 206.313 42.6645Z" fill="white"/>
<path d="M522.137 241.214C518.569 233.01 507.863 228.087 498.942 231.369C490.02 234.65 484.667 244.496 488.235 252.7C495.373 270.75 498.942 290.441 498.942 311.773C498.942 321.619 506.079 328.181 516.784 328.181C527.49 328.181 534.627 321.617 534.627 311.773C534.627 287.159 531.058 264.186 522.137 241.214Z" fill="white"/>
<path d="M193.824 116.504C188.471 108.3 177.765 106.658 168.843 109.94C133.157 127.99 104.608 155.886 83.1955 188.704C77.8425 196.908 81.4107 206.754 90.3335 211.677C93.9017 213.318 95.6866 213.318 99.2548 213.318C104.608 213.318 111.744 210.037 115.314 205.114C133.157 177.218 158.137 154.246 186.686 139.478C195.607 134.554 197.392 124.708 193.824 116.504Z" fill="white"/>
<path d="M481.097 689.181H427.568C416.862 689.181 409.726 695.745 409.726 705.59C409.726 715.434 416.862 722 427.568 722H481.097C491.804 722 498.94 715.435 498.94 705.591C498.94 695.747 491.804 689.181 481.097 689.181Z" fill="white"/>
<path d="M177.765 689.181H124.235C113.529 689.181 106.393 695.745 106.393 705.59C106.393 715.434 113.529 722 124.235 722H177.765C188.471 722 195.607 715.435 195.607 705.591C195.607 695.747 188.471 689.181 177.765 689.181Z" fill="white"/>
<path d="M356.196 228.086L340.137 31.1771C338.352 13.1271 322.295 0 302.667 0C283.04 0 266.98 13.1271 265.197 31.1771L249.138 228.086C249.138 237.931 256.276 246.136 265.197 246.136C274.118 246.136 283.04 239.571 284.825 231.367L300.884 34.4586C300.884 32.8172 304.452 32.8172 304.452 34.4586L320.511 231.367C320.511 239.571 329.433 246.136 338.354 246.136H340.139C350.843 246.136 357.98 237.931 356.196 228.086Z" fill="white"/>
<path d="M572.098 418.431L402.588 306.85C393.666 301.927 382.96 303.568 377.607 310.131C372.254 318.335 374.039 328.181 381.175 333.104L550.684 444.685V446.327H548.9L375.821 367.562C361.546 360.998 341.919 364.281 331.213 374.127C324.075 383.972 320.507 393.818 320.507 403.662L336.566 689.181H266.98L284.823 403.662C284.823 393.817 281.255 383.971 274.117 375.767C261.626 364.281 243.783 362.64 227.724 369.202L54.6469 447.968H52.862V446.327L222.371 334.745C229.509 329.822 233.077 319.977 225.939 311.772C220.586 305.208 209.88 301.927 200.959 308.491L31.4512 420.072C15.392 429.918 10.0389 449.608 20.7451 466.018C31.4512 479.145 52.862 485.71 70.7061 477.505L243.785 398.741C245.57 398.741 247.353 398.741 249.138 398.741C249.138 398.741 250.923 400.382 250.923 402.022L233.08 705.591C233.08 710.514 234.865 713.795 238.433 717.077C242.001 720.358 247.355 722 250.924 722H357.983C363.336 722 366.904 720.358 370.472 717.077C374.04 713.795 375.825 708.872 375.825 705.591L357.983 402.022C357.983 400.381 357.983 400.381 359.768 398.741C361.553 397.1 363.336 397.1 363.336 397.1L536.415 475.864C554.257 484.068 575.669 477.505 584.591 462.737C593.509 447.968 588.157 428.277 572.098 418.431Z" fill="white"/>
</svg>
