<svg width="786" height="773" viewBox="0 0 786 773" fill="none" xmlns="http://www.w3.org/2000/svg">
<path d="M291.389 386.395V536.048C291.389 563.563 314 585.933 341.959 585.933H544.729C572.688 585.933 595.299 563.563 595.299 536.048V386.395C595.299 358.881 572.688 336.63 544.729 336.63H341.959C314 336.63 291.389 358.881 291.389 386.395ZM570.014 386.395V536.048C570.014 549.805 558.587 560.931 544.729 560.931H341.959C328.101 560.931 316.674 549.805 316.674 536.048V386.395C316.674 372.758 328.101 361.513 341.959 361.513H544.729C558.587 361.513 570.014 372.758 570.014 386.395Z" fill="white"/>
<path d="M535.851 492.385H516.765V430.059H535.851V405.177H472.516V430.059H491.48V492.385H472.516V517.387H535.851V492.385Z" fill="white"/>
<path d="M382.442 492.385H415.629L421.221 517.387H447.114L424.017 414.867C422.679 409.124 417.452 405.177 411.617 405.177H386.21C380.253 405.177 375.148 409.244 373.811 414.867L350.592 517.387H376.607L382.198 492.385H382.442ZM396.422 430.059H401.527L410.037 467.502H388.155L396.665 430.059H396.422Z" fill="white"/>
<mask id="mask0_13_8490" style="mask-type:luminance" maskUnits="userSpaceOnUse" x="0" y="149" width="68" height="62">
<path d="M0 149.414H67.8328V210.663H0V149.414Z" fill="white"/>
</mask>
<g mask="url(#mask0_13_8490)">
<path d="M0 155.874H38.0496V180.756H0V155.874Z" fill="white"/>
</g>
<path d="M304.031 155.875H341.959V180.758H304.031V155.875Z" fill="white"/>
<mask id="mask1_13_8490" style="mask-type:luminance" maskUnits="userSpaceOnUse" x="130" y="0" width="63" height="58">
<path d="M130.072 0H192.313V57.5405H130.072V0Z" fill="white"/>
</mask>
<g mask="url(#mask1_13_8490)">
<path d="M158.277 0H183.684V37.4432H158.277V0Z" fill="white"/>
</g>
<path d="M41.0879 58.0187L58.9578 40.4336L85.8235 66.8711L67.9536 84.4563L41.0879 58.0187Z" fill="white"/>
<path d="M268.777 269.639L286.769 252.054L313.635 278.492L295.643 296.077L268.777 269.639Z" fill="white"/>
<path d="M256.139 66.752L283.004 40.3145L300.874 58.0192L274.009 84.4568L256.139 66.752Z" fill="white"/>
<path d="M41.0879 278.611L67.9536 252.174L85.9451 269.759L59.0794 296.197L41.0879 278.611Z" fill="white"/>
<path d="M120.35 261.745V305.409C120.35 332.923 142.96 355.293 171.042 355.293C199.002 355.293 221.613 332.923 221.613 305.409V261.745C256.501 243.442 278.626 207.674 278.626 168.316C278.626 138.29 265.619 109.46 242.886 89.3628C220.032 69.3851 189.398 59.6953 158.885 63.0448C110.138 68.428 70.3867 106.948 64.1869 154.679C58.4734 199.18 80.9627 241.169 120.35 261.745ZM171.042 330.411C161.681 330.411 153.537 325.267 149.16 317.85H192.802C188.304 325.267 180.402 330.411 171.042 330.411ZM196.327 292.968H145.635V280.527H196.327V292.968ZM89.3507 157.67C93.9701 121.184 124.361 91.7553 161.56 87.8076C164.72 87.4487 167.881 87.3291 171.042 87.3291C191.221 87.3291 210.55 94.5067 225.867 108.025C243.373 123.337 253.341 145.348 253.341 168.316C253.341 200.496 234.012 229.685 203.986 242.605C199.366 244.638 196.327 249.065 196.327 254.089V255.644H145.635V254.089C145.635 249.065 142.596 244.638 138.098 242.605C104.303 228.01 84.7312 194.036 89.3507 157.789V157.67Z" fill="white"/>
<mask id="mask2_13_8490" style="mask-type:luminance" maskUnits="userSpaceOnUse" x="67" y="363" width="593" height="410">
<path d="M67.8301 363.785H659.118V772.909H67.8301V363.785Z" fill="white"/>
</mask>
<g mask="url(#mask2_13_8490)">
<path d="M78.1647 385.078C76.7059 397.878 75.9766 410.918 75.9766 423.837C75.9766 616.317 235.104 772.909 430.701 772.909C507.408 772.909 580.225 749.222 641.615 704.362L626.541 684.385C569.649 726.015 502.059 747.906 430.822 747.906C249.206 747.906 101.505 602.56 101.505 423.837C101.505 411.875 102.113 399.792 103.45 387.83L78.2863 385.078H78.1647Z" fill="white"/>
</g>
<mask id="mask3_13_8490" style="mask-type:luminance" maskUnits="userSpaceOnUse" x="347" y="57" width="439" height="583">
<path d="M347.916 57.5415H785.426V639.407H347.916V57.5415Z" fill="white"/>
</mask>
<g mask="url(#mask3_13_8490)">
<path d="M430.702 74.7671C413.075 74.7671 395.448 76.083 378.064 78.5951L381.833 103.238C397.879 100.846 414.169 99.7691 430.58 99.7691C612.197 99.7691 759.898 245.116 759.898 423.838C759.898 493.94 737.651 560.572 695.347 616.438L715.527 631.271C761.235 571.099 785.305 499.203 785.305 423.719C785.305 231.239 626.177 74.6475 430.58 74.6475L430.702 74.7671Z" fill="white"/>
</g>
<path d="M604.293 224.421H561.016C554.087 224.421 548.373 230.044 548.373 236.863V245.835C543.025 247.629 537.919 249.543 532.935 252.055L526.492 245.715C521.508 240.81 513.484 240.81 508.622 245.715L477.745 275.981C472.882 280.885 472.882 288.661 477.745 293.566L484.309 299.906C480.662 306.844 478.109 313.663 476.164 320.721L500.599 327.181C502.301 321.439 504.367 315.816 507.406 310.194C511.904 302.059 510.567 292.011 504.61 284.833L517.739 272.033C524.912 277.895 535.244 279.091 543.389 274.904C549.224 271.913 555.181 269.64 561.989 267.846C569.161 265.812 573.902 259.592 573.902 252.294V249.184H591.893V252.055C591.893 259.831 597.485 266.53 604.658 268.085C610.857 269.64 616.936 271.913 622.406 274.904C630.672 279.21 641.127 278.014 648.178 272.153L661.185 284.953C655.228 292.13 654.013 302.179 658.267 310.194C660.699 314.74 662.765 319.525 664.224 324.19C667.142 333.162 675.043 339.383 684.404 340.22V358.045C675.165 358.762 667.142 364.863 664.103 374.075C662.887 378.262 661.063 382.568 658.389 387.951C654.013 396.086 655.228 406.135 661.185 413.193L648.178 426.112C641.005 420.251 630.672 418.935 622.649 423.241C617.908 425.634 613.046 427.548 608.305 429.103L615.842 452.909C621.433 451.114 627.025 448.961 632.739 446.21L639.182 452.55C641.735 455.062 644.895 456.139 648.178 456.139C651.46 456.139 654.621 454.942 657.173 452.55L687.929 422.284C692.913 417.38 692.913 409.484 687.929 404.699L681.486 398.239C684.404 392.617 686.47 387.592 687.808 383.047H697.046C704.097 383.047 709.689 377.424 709.689 370.605V328.018C709.689 321.08 704.097 315.577 697.046 315.577H687.929C686.349 310.553 684.161 305.409 681.608 300.265L688.051 293.925C693.035 289.14 693.035 281.244 688.051 276.339L657.295 246.074C652.311 241.169 644.409 241.169 639.425 246.074L632.982 252.414C627.998 249.902 623.014 247.988 617.543 246.193V237.221C617.543 230.403 611.83 224.78 604.901 224.78L604.293 224.421Z" fill="white"/>
<path d="M624.598 395.845C638.334 384.002 645.993 366.896 645.993 349.071C645.993 314.619 617.669 286.746 582.658 286.746C564.545 286.746 547.283 294.402 535.248 307.8L554.212 324.189C561.384 316.174 571.839 311.508 582.658 311.508C603.567 311.508 620.708 328.376 620.708 348.952C620.708 359.598 615.967 369.886 607.822 376.944L624.476 395.726L624.598 395.845Z" fill="white"/>
<path d="M215.287 544.422C208.358 544.422 202.645 550.045 202.645 556.863V590C202.645 596.819 208.358 602.441 215.287 602.441H220.393C221.365 605.432 222.703 608.303 223.918 611.054L220.393 614.524C215.409 619.428 215.409 627.324 220.393 632.109L244.219 655.556C249.204 660.46 257.105 660.46 262.089 655.556L265.615 652.086C268.411 653.402 271.45 654.718 274.367 655.675V660.7C274.367 667.518 280.081 673.141 287.01 673.141H320.683C327.734 673.141 333.448 667.518 333.448 660.7V655.675C336.487 654.718 339.404 653.402 342.079 652.206L345.726 655.675C350.588 660.58 358.611 660.58 363.596 655.675L387.301 632.228C392.285 627.443 392.285 619.548 387.301 614.643L383.654 611.054C384.869 608.662 385.842 606.269 386.693 603.757L362.745 595.503C362.015 597.776 361.043 599.929 359.706 602.322C356.18 608.901 356.788 616.916 360.8 623.017L354.114 629.477C347.914 625.529 339.769 625.17 332.84 628.64C329.801 630.314 326.275 631.75 322.628 632.827C315.335 634.98 309.986 640.961 308.405 648.139H299.167C297.708 640.961 292.359 634.98 284.7 632.587C281.297 631.63 277.771 630.314 274.489 628.4C267.803 624.931 259.658 625.41 253.458 629.357L246.894 622.897C250.784 616.797 251.27 608.662 247.745 601.963C246.165 598.972 244.584 595.503 243.612 591.914C241.302 584.617 235.224 579.473 228.051 577.918V569.185C234.859 568.946 240.937 564.28 242.882 557.581C244.098 552.796 245.921 548.49 247.988 544.422C251.513 537.723 250.906 529.828 247.015 523.727L253.58 517.267C259.78 521.215 267.925 521.693 274.611 518.224C277.771 516.549 280.324 515.473 282.634 514.755L274.611 491.069C271.815 491.906 268.897 493.102 265.736 494.657L262.089 491.069C257.105 486.164 249.204 486.164 244.219 491.069L220.393 514.516C215.409 519.301 215.409 527.196 220.393 532.101L224.04 535.689C222.703 538.441 221.487 541.312 220.514 544.303H215.409L215.287 544.422Z" fill="white"/>
</svg>
