<svg width="701" height="657" viewBox="0 0 701 657" fill="none" xmlns="http://www.w3.org/2000/svg">
<mask id="mask0_13_8716" style="mask-type:luminance" maskUnits="userSpaceOnUse" x="0" y="0" width="701" height="657">
<path d="M0 0H701V656.447H0V0Z" fill="white"/>
</mask>
<g mask="url(#mask0_13_8716)">
<path fill-rule="evenodd" clip-rule="evenodd" d="M433.563 477.15C433.563 482.78 428.861 487.436 423.04 487.436H282.213C276.392 487.436 271.691 482.78 271.691 477.15C271.691 471.52 276.392 466.973 282.213 466.973H423.04C428.861 466.973 433.563 471.52 433.563 477.15ZM692.604 492.633C698.201 490.684 701 484.838 698.985 479.532C697.082 474.119 691.037 471.412 685.551 473.253L647.378 486.57C674.917 438.281 689.358 384.037 689.358 328.278C689.358 147.032 537.784 0.325195 350.5 0.325195C282.549 0.325195 217.061 19.7057 160.977 56.3013C156.163 59.4411 154.82 65.8291 158.178 70.593C161.425 75.2487 168.03 76.4397 172.843 73.2998C225.345 38.9779 286.803 20.7884 350.5 20.7884C525.694 20.7884 668.2 158.726 668.2 328.278C668.2 382.955 653.423 435.899 625.325 482.672L608.869 438.281C606.966 432.976 600.921 430.161 595.436 432.11C589.838 434.059 587.04 439.905 589.055 445.21L612.787 509.307C614.69 514.72 620.735 517.535 626.444 515.586L692.604 492.633ZM542.822 585.963C539.575 581.307 533.082 580.116 528.157 583.256C475.655 617.578 414.197 635.767 350.5 635.767C175.306 635.767 32.7999 497.83 32.7999 328.278C32.7999 273.601 47.5766 220.657 75.6748 173.883L92.1308 218.275C94.0339 223.58 100.079 226.395 105.676 224.446C111.161 222.497 113.96 216.65 112.057 211.345L88.3246 147.249C86.3096 141.835 80.1527 139.02 74.5554 140.969L8.39586 163.923C2.91053 165.871 -4.05312e-06 171.718 2.01499 177.023C3.91808 182.329 9.96308 185.144 15.5603 183.195L53.6217 169.986C26.0832 218.275 11.6423 272.41 11.6423 328.278C11.6423 509.523 163.216 656.23 350.5 656.23C418.451 656.23 483.938 636.85 540.023 600.254C544.837 597.006 546.18 590.727 542.822 585.963ZM444.982 326.329C444.982 378.624 400.987 421.174 347.03 421.174C292.96 421.174 249.078 378.624 249.078 326.329C248.966 274.142 292.96 231.592 346.918 231.592C376.807 231.592 403.674 244.584 421.585 265.048L348.933 341.595L308.744 300.777C304.714 296.663 298.11 296.554 293.856 300.452C289.602 304.35 289.378 310.846 293.408 314.852L341.32 363.682C345.574 368.013 352.627 367.905 356.769 363.574L433.787 282.587C440.84 295.688 444.982 310.521 444.982 326.329ZM480.356 203.441C484.274 199.219 490.991 198.894 495.245 202.792C499.611 206.581 499.835 213.078 495.917 217.192L448.9 266.672C459.758 284.103 466.139 304.566 466.139 326.329C466.139 389.884 412.629 441.637 347.03 441.637C281.318 441.637 227.808 389.884 227.808 326.329C227.808 262.774 281.318 211.129 346.918 211.129C382.404 211.129 414.197 226.178 436.026 249.89L480.356 203.441ZM516.85 413.379C540.471 340.945 538.903 254.545 536.665 177.24C471.289 166.738 404.569 144.759 350.5 114.01C296.43 144.759 229.711 166.738 164.335 177.24C162.096 254.545 160.529 340.945 184.15 413.379C210.233 493.066 264.638 545.469 350.5 573.295C436.362 545.469 490.767 493.066 516.85 413.379ZM548.643 158.292C481.14 148.656 411.062 125.703 355.985 93.3299C352.627 91.381 348.373 91.381 345.015 93.3299C290.274 125.595 219.636 148.656 152.357 158.292C147.32 159.05 143.514 163.165 143.402 168.145C141.051 249.24 138.476 341.162 163.999 419.55C192.545 507.033 252.548 564.092 347.254 593.866C349.381 594.516 351.619 594.516 353.746 593.866C448.564 564.092 508.454 507.033 537 419.55C562.524 341.162 559.949 249.24 557.598 168.145C557.486 163.165 553.68 159.05 548.643 158.292Z" fill="white"/>
</g>
</svg>
