<svg width="604" height="597" viewBox="0 0 604 597" fill="none" xmlns="http://www.w3.org/2000/svg">
<mask id="mask0_13_8390" style="mask-type:luminance" maskUnits="userSpaceOnUse" x="123" y="367" width="352" height="230">
<path d="M123.211 367.894H474.514V596.508H123.211V367.894Z" fill="white"/>
</mask>
<g mask="url(#mask0_13_8390)">
<path d="M455.107 582.28H433.542V490.041C433.542 486.072 430.308 482.878 426.289 482.878H419.133V468.747H426.289C430.308 468.747 433.542 465.553 433.542 461.682C433.542 457.713 430.308 454.519 426.289 454.519H375.711V419.095C375.711 415.223 372.476 412.029 368.555 412.029H346.893V397.801H368.555C372.476 397.801 375.711 394.704 375.711 390.736C375.711 386.864 372.476 383.67 368.555 383.67H238.679C234.66 383.67 231.425 386.864 231.425 390.736C231.425 394.704 234.66 397.801 238.679 397.801H260.243V412.029H238.679C234.66 412.029 231.425 415.223 231.425 419.095V454.519H180.847C176.828 454.519 173.691 457.713 173.691 461.682C173.691 465.553 176.828 468.747 180.847 468.747H188.1V482.878H180.847C176.828 482.878 173.691 486.072 173.691 490.041V582.28H152.029C148.01 582.28 144.873 585.474 144.873 589.442C144.873 593.314 148.01 596.508 152.029 596.508H455.107C459.126 596.508 462.36 593.314 462.36 589.442C462.36 585.474 459.126 582.28 455.107 582.28ZM404.725 468.65V482.782H375.809V468.65H404.725ZM274.652 397.705H332.484V411.932H274.652V397.705ZM202.509 468.65H231.425V482.782H202.607V468.65H202.509ZM188.1 539.596H195.256C199.274 539.596 202.509 536.499 202.509 532.531C202.509 528.659 199.274 525.465 195.256 525.465H188.1V497.106H231.425V582.28H188.198V539.596H188.1ZM245.834 553.824H325.23C329.249 553.824 332.484 550.63 332.484 546.759C332.484 542.79 329.249 539.596 325.23 539.596H245.834V511.237H325.23C329.249 511.237 332.484 508.14 332.484 504.172C332.484 500.3 329.249 497.106 325.23 497.106H245.834V468.747H325.23C329.249 468.747 332.484 465.553 332.484 461.682C332.484 457.713 329.249 454.519 325.23 454.519H245.834V426.16H361.302V582.474H245.834V553.824ZM375.711 582.28V497.106H418.937V525.465H411.782C407.763 525.465 404.529 528.659 404.529 532.531C404.529 536.499 407.763 539.596 411.782 539.596H418.937V582.183H375.711V582.28Z" fill="white"/>
</g>
<path d="M303.47 170.444C339.247 170.444 368.555 141.795 368.555 106.467C368.555 71.2361 339.443 42.5868 303.47 42.5868C267.595 42.5868 238.483 71.2361 238.483 106.467C238.483 141.795 267.791 170.444 303.47 170.444ZM303.47 56.9114C331.406 56.9114 354.146 79.1728 354.146 106.661C354.146 134.052 331.406 156.313 303.47 156.313C275.632 156.313 252.892 133.955 252.892 106.467C252.892 79.076 275.73 56.9114 303.47 56.9114Z" fill="white"/>
<mask id="mask1_13_8390" style="mask-type:luminance" maskUnits="userSpaceOnUse" x="273" y="0" width="51" height="46">
<path d="M273.77 0H323.956V45.7809H273.77V0Z" fill="white"/>
</mask>
<g mask="url(#mask1_13_8390)">
<path d="M303.47 28.359C307.489 28.359 310.724 25.2617 310.724 21.2934V7.16231C310.724 3.194 307.489 -2.28882e-05 303.47 -2.28882e-05C299.55 -2.28882e-05 296.315 3.194 296.315 7.16231V21.2934C296.315 25.2617 299.55 28.359 303.47 28.359Z" fill="white"/>
</g>
<path d="M296.315 191.739V205.87C296.315 209.839 299.549 213.033 303.47 213.033C307.489 213.033 310.723 209.839 310.723 205.87V191.739C310.723 187.771 307.489 184.674 303.47 184.674C299.549 184.674 296.315 187.771 296.315 191.739Z" fill="white"/>
<path d="M364.734 53.3315C366.596 53.3315 368.557 52.654 369.831 51.2021L380.025 41.1361C382.769 38.3293 382.769 33.877 380.025 31.1669C377.182 28.3601 372.673 28.3601 369.733 31.1669L359.539 41.2329C356.794 44.0398 356.794 48.4921 359.539 51.2021C361.205 52.654 362.871 53.3315 364.734 53.3315Z" fill="white"/>
<path d="M232.111 183.996C233.974 183.996 235.836 183.318 237.208 181.866L247.305 171.8C250.147 168.994 250.147 164.541 247.305 161.831C244.56 159.024 239.953 159.024 237.012 161.831L226.916 171.897C224.074 174.607 224.074 179.156 226.916 181.866C228.387 183.221 230.249 183.996 232.111 183.996Z" fill="white"/>
<path d="M390.119 113.63H404.528C408.547 113.63 411.782 110.436 411.782 106.467C411.782 102.596 408.547 99.4019 404.528 99.4019H390.119C386.1 99.4019 382.964 102.596 382.964 106.467C382.964 110.436 386.1 113.63 390.119 113.63Z" fill="white"/>
<path d="M202.509 113.63H216.918C220.936 113.63 224.073 110.436 224.073 106.467C224.073 102.596 220.936 99.4019 216.918 99.4019H202.509C198.49 99.4019 195.255 102.596 195.255 106.467C195.255 110.436 198.49 113.63 202.509 113.63Z" fill="white"/>
<path d="M370.025 161.831C367.183 159.024 362.674 159.024 359.733 161.831C356.891 164.541 356.891 168.994 359.733 171.8L369.829 181.866C371.3 183.318 373.064 183.996 374.926 183.996C376.789 183.996 378.651 183.318 380.023 181.866C382.768 179.156 382.768 174.607 380.023 171.897L370.025 161.831Z" fill="white"/>
<path d="M237.208 51.3948C238.679 52.8466 240.345 53.4273 242.207 53.4273C244.168 53.4273 246.03 52.8466 247.305 51.3948C250.147 48.5879 250.147 44.1356 247.305 41.4256L237.208 31.2628C234.366 28.5527 229.857 28.5527 226.916 31.2628C224.074 34.0697 224.074 38.5219 226.916 41.232L237.208 51.3948Z" fill="white"/>
<mask id="mask2_13_8390" style="mask-type:luminance" maskUnits="userSpaceOnUse" x="474" y="219" width="130" height="174">
<path d="M474.516 219.227H604V392.672H474.516V219.227Z" fill="white"/>
</mask>
<g mask="url(#mask2_13_8390)">
<path d="M602.333 274.299C601.255 271.686 598.609 269.944 595.668 269.944H575.476L590.179 237.423C591.159 235.197 590.963 232.68 589.689 230.745C588.317 228.712 586.062 227.454 583.612 227.454H521.467C518.428 227.454 515.586 229.39 514.704 232.293L495.394 288.914C494.609 290.947 495.001 293.464 496.374 295.302C497.746 297.141 500 298.206 502.255 298.206H522.839L502.255 359.86C501.177 363.054 502.549 366.442 505.294 368.184C506.47 368.862 507.842 369.249 509.018 369.249C510.881 369.249 512.743 368.571 514.115 367.119L600.765 281.946C602.922 279.913 603.51 276.913 602.333 274.299ZM525.29 336.147L539.601 293.463C540.287 291.334 539.993 288.914 538.522 287.075C537.248 285.236 535.092 284.172 532.641 284.172H512.155L526.564 241.585H572.437L557.734 274.203C556.852 276.429 556.95 278.945 558.322 280.881C559.597 282.817 561.949 284.172 564.302 284.172H578.024L525.29 336.147Z" fill="white"/>
</g>
<mask id="mask3_13_8390" style="mask-type:luminance" maskUnits="userSpaceOnUse" x="0" y="219" width="149" height="174">
<path d="M0 219.227H148.304V392.672H0V219.227Z" fill="white"/>
</mask>
<g mask="url(#mask3_13_8390)">
<path d="M122.623 297.722C115.37 283.591 96.7461 261.717 78.5144 245.65C60.8708 230.164 36.1697 213.613 18.7221 222.421C1.17653 231.229 0.392387 260.652 2.84288 283.785C5.39142 307.788 12.4489 335.373 19.8004 349.407C26.8578 362.958 38.7182 372.927 53.4212 377.669C59.3024 379.508 65.2816 380.379 71.2609 380.379C80.3767 380.379 89.2966 378.25 97.5303 374.088C125.858 359.86 137.228 325.5 122.623 297.722ZM97.0402 357.537L72.7312 310.982L81.553 283.978C82.7292 280.204 80.7688 276.235 76.848 275.074C73.0252 273.912 69.0064 275.848 67.8302 279.72L63.4193 293.076L54.5975 276.042C52.7351 272.46 48.4222 271.202 44.8935 272.848C41.2668 274.687 39.8945 278.945 41.6588 282.43L62.7331 322.984L50.2846 319.887C46.4618 318.822 42.639 321.145 41.5608 325.017C40.5806 328.791 42.8351 332.566 46.7559 333.631L71.5549 339.922L84.1015 364.022C75.5738 366.636 66.4579 366.732 57.8321 364.022C46.8539 360.441 37.738 352.988 32.543 342.826C26.9558 332.179 19.8004 307.304 17.0558 282.139C13.9191 251.941 19.1142 237.907 25.0934 235.003C26.2697 234.519 27.6419 234.132 29.5043 234.132C36.9539 234.132 50.0886 239.94 68.7124 256.2C87.9243 272.944 104.098 293.464 109.685 304.11C119.585 322.887 113.704 345.439 97.0402 357.537Z" fill="white"/>
</g>
<path d="M490.393 391.412C486.864 389.476 482.453 390.735 480.591 394.219C472.259 409.125 461.967 422.965 449.911 435.257C447.166 438.161 447.264 442.613 450.205 445.227C451.675 446.582 453.439 447.259 455.106 447.259C456.968 447.259 459.026 446.388 460.301 444.936C473.141 431.676 484.218 416.868 493.137 400.898C495.196 397.704 493.922 393.348 490.393 391.412Z" fill="white"/>
<path d="M500.784 210.127C490.786 188.447 477.162 168.605 460.302 151.28C457.558 148.376 452.951 148.376 450.206 150.99C447.265 153.797 447.265 158.249 449.912 160.959C465.497 177.123 478.24 195.706 487.552 215.838C488.728 218.548 491.472 220.097 494.119 220.097C495.001 220.097 496.079 219.806 497.06 219.419C500.784 217.87 502.353 213.612 500.784 210.127Z" fill="white"/>
<path d="M104.489 233.842C105.273 234.133 106.155 234.229 107.038 234.229C109.978 234.229 112.821 232.39 113.899 229.68C123.505 204.031 138.012 180.996 157.224 161.154C160.066 158.251 159.87 153.798 156.93 151.185C154.185 148.572 149.48 148.572 146.834 151.379C126.249 172.672 110.566 197.353 100.372 224.841C98.9018 228.519 100.764 232.584 104.489 233.842Z" fill="white"/>
<path d="M152.03 447.356C153.794 447.356 155.657 446.679 156.931 445.421C159.872 442.614 159.872 438.161 157.225 435.355C145.267 423.062 134.975 409.125 126.545 394.316C124.682 390.929 120.272 389.574 116.645 391.509C113.214 393.348 111.842 397.704 113.9 401.091C122.82 417.158 133.896 431.967 146.737 445.227C148.207 446.679 150.07 447.356 152.03 447.356Z" fill="white"/>
</svg>
