<svg width="556" height="590" viewBox="0 0 556 590" fill="none" xmlns="http://www.w3.org/2000/svg">
<path d="M221.713 514.951C223.185 515.59 224.657 515.864 226.227 515.864C229.859 515.773 232.803 514.404 234.864 511.575L388.267 296.761C389.151 295.301 389.641 293.658 389.641 291.924C389.739 290.191 389.249 288.548 388.365 286.997C387.58 285.445 386.304 284.168 384.734 283.255C383.164 282.343 381.495 281.795 379.63 281.704H299.248L338.9 190.996C340.077 186.251 338.409 182.692 334.09 180.137C329.674 177.582 325.552 177.856 321.528 180.867L180.785 322.769C178.037 325.962 177.449 329.43 179.215 333.172C180.884 336.913 183.926 338.921 188.245 339.194H271.08L216.118 502.997C215.333 505.37 215.529 507.651 216.609 509.932C217.59 512.214 219.357 513.856 221.713 514.951ZM295.224 332.624C296.009 329.521 295.421 326.692 293.36 324.137C291.397 321.582 288.649 320.213 285.213 320.031H212.192L298.169 233.704L274.221 287.727C272.749 290.921 273.043 293.932 275.202 296.761C277.264 299.59 280.11 301.05 283.741 301.141H359.805L257.732 444.411L295.224 332.624Z" fill="white"/>
<mask id="mask0_13_8393" style="mask-type:luminance" maskUnits="userSpaceOnUse" x="0" y="0" width="556" height="590">
<path d="M0 0H556V589.507H0V0Z" fill="white"/>
</mask>
<g mask="url(#mask0_13_8393)">
<path d="M1.08019 333.536C0.982025 343.483 1.57093 353.43 2.84683 363.285C4.02459 373.141 5.88938 382.905 8.34303 392.578C10.7967 402.251 13.8392 411.742 17.5688 421.05C21.2002 430.358 25.4205 439.483 30.2297 448.335C35.0389 457.187 40.3388 465.764 46.2276 473.977C52.1164 482.282 58.4959 490.13 65.4643 497.704C72.3345 505.278 79.5974 512.396 87.4491 519.149C95.2027 525.901 103.349 532.198 111.986 538.038C120.524 543.879 129.456 549.172 138.682 554.099C148.006 558.936 157.526 563.225 167.34 567.057C177.057 570.799 187.068 574.084 197.275 576.73C207.482 579.377 217.886 581.476 228.289 583.027C238.791 584.578 249.293 585.582 259.893 585.947C270.492 586.312 281.092 586.038 291.692 585.217C302.194 584.487 312.695 583.027 323.099 581.111C333.502 579.103 343.71 576.639 353.819 573.536C363.83 570.434 373.742 566.784 383.361 562.586C392.979 558.388 402.303 553.643 411.234 548.441C420.264 543.24 428.901 537.491 437.243 531.377C445.586 525.171 453.437 518.51 460.897 511.483C468.356 504.457 475.324 496.974 481.9 489.126C488.378 481.369 494.365 473.156 499.861 464.669C505.357 456.183 510.362 447.422 514.681 438.388C519.097 429.354 522.925 420.046 526.066 410.555C529.305 401.156 531.955 391.483 533.918 381.81C535.979 372.046 537.353 362.19 538.138 352.243C538.825 342.388 539.021 332.441 538.53 322.494C538.04 312.639 536.96 302.783 535.193 292.928C533.427 283.163 531.071 273.49 528.127 263.909C525.182 254.418 521.649 245.019 517.527 235.893C513.405 226.768 508.694 217.825 503.394 209.247C498.192 200.578 492.402 192.274 486.12 184.334C481.802 181.049 477.385 180.867 472.87 183.969C468.454 187.072 467.178 191.087 469.337 195.924C501.529 236.806 517.527 282.707 517.331 333.536C517.233 347.681 515.957 361.551 513.209 375.422C510.461 389.293 506.437 402.707 501.137 415.848C495.837 429.08 489.261 441.582 481.507 453.628C473.656 465.673 464.822 476.989 454.811 487.483C444.899 497.977 434.004 507.559 422.129 516.228C410.351 524.898 397.69 532.472 384.44 538.951C371.093 545.521 357.352 550.814 342.924 555.012C328.595 559.118 313.971 562.038 299.053 563.681C284.233 565.324 269.216 565.689 254.298 564.867C239.282 563.955 224.56 561.765 209.936 558.388C195.41 555.012 181.277 550.358 167.635 544.517C153.894 538.768 140.939 531.833 128.671 523.803C116.304 515.772 104.821 506.738 94.3194 496.791C83.7196 486.753 74.1993 475.985 65.7587 464.396C57.22 452.715 49.9572 440.487 43.8721 427.711C37.787 414.844 32.9778 401.521 29.4445 387.833C25.9113 374.236 23.752 360.365 22.9669 346.312C22.0835 332.259 22.5743 318.297 24.5372 304.335C26.402 290.373 29.6408 276.684 34.1556 263.27C38.7685 249.855 44.5591 236.988 51.6256 224.578C58.594 212.167 66.8383 200.395 76.1623 189.445C85.4862 178.403 95.7916 168.274 107.078 158.966C118.463 149.749 130.535 141.536 143.393 134.327C156.348 127.118 169.794 121.095 183.829 116.167C198.355 121.916 249.391 140.988 292.477 140.988C295.422 140.988 298.17 140.988 301.016 140.988C352.739 137.703 411.333 93.7183 413.786 91.8019C416.338 89.7943 417.614 87.2392 417.614 84.1365C417.614 81.0338 416.338 78.4787 413.786 76.4711C411.038 74.4635 342.924 26.0984 270.296 37.6878C237.613 42.9806 210.819 57.5814 189.816 81.5814C196.588 69.9007 200.219 57.3076 200.71 43.9844C201.299 30.6611 198.649 17.8855 192.858 5.65731C191.484 3.19344 189.325 1.64209 186.479 0.912051C183.633 0.273261 180.885 0.638304 178.431 2.00711C158.605 13.6877 140.645 27.5585 124.647 43.5281C103.054 65.6118 107.275 114.068 109.63 131.407C92.8472 143.087 77.6345 156.502 64.1884 171.559C50.6442 186.616 39.161 202.859 29.739 220.38C20.3169 237.992 13.1522 256.334 8.34303 275.407C3.43572 294.57 1.08019 313.916 1.08019 333.536ZM273.24 56.6688C320.547 49.0947 367.756 71.9084 388.955 84.319C370.307 96.6384 331.932 119.178 299.249 121.186C270.59 121.277 242.913 116.623 216.119 107.042C233.884 103.483 251.746 101.657 269.903 101.749C273.339 102.661 276.479 102.114 279.227 100.106C282.074 98.0073 283.448 95.3609 283.448 92.0757C283.448 88.6993 282.074 86.0529 279.227 84.0453C276.479 82.0377 273.339 81.4901 269.903 82.3114C250.372 82.3114 231.136 84.319 212.095 88.243C228.682 71.2696 249.096 60.7753 273.24 56.6688ZM140.252 56.6688C151.833 44.9882 164.69 34.5851 178.627 25.3684C182.946 42.6156 183.142 79.0263 129.358 118.083C127.984 98.3723 128.572 68.9882 140.252 57.0338V56.6688Z" fill="white"/>
</g>
</svg>
