<svg width="667" height="629" viewBox="0 0 667 629" fill="none" xmlns="http://www.w3.org/2000/svg">
<path d="M80.628 315.121C107.776 315.121 129.892 291.279 129.892 261.954C129.892 254.69 128.53 247.738 126.055 241.409L215.175 178.306C224.128 188.422 236.713 194.795 250.658 194.795C268.729 194.795 284.367 184.144 292.907 168.457L368.66 198.048C368.247 200.856 367.835 203.708 367.835 206.65C367.835 235.973 389.95 259.816 417.098 259.816C444.247 259.816 466.362 235.974 466.362 206.65C466.362 197.202 463.887 188.422 459.843 180.713L555.937 93.9891C564.477 101.61 575.246 106.378 587.128 106.378C614.277 106.378 636.351 82.5359 636.351 53.1666C636.351 23.843 614.278 0 587.128 0C559.98 0 537.865 23.8418 537.865 53.1666C537.865 62.6145 540.34 71.3942 544.383 79.1031L448.29 165.827C439.75 158.206 428.981 153.438 417.098 153.438C399.069 153.438 383.39 164.089 374.849 179.776L299.097 150.185C299.509 147.377 299.922 144.525 299.922 141.584C299.922 112.26 277.849 88.3725 250.658 88.3725C223.51 88.3725 201.394 112.214 201.394 141.584C201.394 148.848 202.756 155.8 205.231 162.128L116.111 225.187C107.158 215.071 94.5735 208.698 80.628 208.698C53.4796 208.698 31.4053 232.54 31.4053 261.91C31.4053 291.233 53.4785 315.121 80.628 315.121ZM555.808 53.2121C555.808 34.5841 569.836 19.4322 587.082 19.4322C604.328 19.4322 618.356 34.5841 618.356 53.2121C618.356 71.8402 604.328 86.992 587.082 86.992C580.728 86.992 574.827 84.8975 569.877 81.3768C564.802 77.767 560.759 72.5975 558.366 66.4919C556.716 62.4365 555.808 57.9365 555.808 53.2121ZM392.049 186.557C397.743 178.312 406.778 172.875 417.052 172.875C423.406 172.875 429.306 174.97 434.257 178.49C439.332 182.1 443.375 187.27 445.81 193.375C447.419 197.475 448.368 201.932 448.368 206.656C448.368 225.284 434.34 240.436 417.094 240.436C399.848 240.436 385.82 225.284 385.82 206.656C385.82 206.032 385.944 205.453 385.985 204.829C386.315 197.966 388.5 191.727 392.049 186.557ZM219.333 141.59C219.333 122.962 233.361 107.811 250.607 107.811C267.853 107.811 281.881 122.962 281.881 141.59C281.881 142.214 281.757 142.794 281.716 143.418C281.386 150.236 279.158 156.519 275.61 161.69C269.916 169.934 260.881 175.371 250.607 175.371C242.974 175.371 236.042 172.296 230.596 167.349C225.975 163.16 222.509 157.545 220.735 151.127C219.951 148.097 219.333 144.933 219.333 141.59ZM80.6174 228.135C88.2504 228.135 95.1819 231.21 100.628 236.157C105.249 240.346 108.715 245.961 110.489 252.379C111.314 255.409 111.892 258.574 111.892 261.916C111.892 280.544 97.8637 295.696 80.6174 295.696C63.3712 295.696 49.3433 280.544 49.3433 261.916C49.3433 243.288 63.3712 228.135 80.6174 228.135Z" fill="white"/>
<path d="M658.052 608.665H627.479V196.436H546.982V608.665H457.491V351.343H376.953V608.665H291.01L291.051 286.325H210.554V608.711H121.062L121.021 406.652H40.5243V608.665H9.95153C5.00042 608.665 0.957031 613.033 0.957031 618.381C0.957031 623.728 5.00042 628.096 9.95153 628.096H658.005C662.957 628.096 667 623.728 667 618.381C667 613.033 663.003 608.665 658.052 608.665Z" fill="white"/>
</svg>
