<svg width="722" height="618" viewBox="0 0 722 618" fill="none" xmlns="http://www.w3.org/2000/svg">
<path fill-rule="evenodd" clip-rule="evenodd" d="M160.335 330.548C158.664 330.548 156.993 330.041 155.656 328.899C117.783 299.968 97.175 264.692 94.1674 224.087C88.5977 145.542 151.869 76.6411 154.542 73.7226C157.773 70.2966 162.785 70.2966 166.016 73.7226C168.689 76.6411 232.072 145.542 226.391 224.087C223.495 264.692 202.776 299.968 165.013 328.899C163.565 329.914 161.894 330.548 160.335 330.548ZM160.335 94.5326C112.547 153.41 78.2382 242.36 160.335 309.231C242.32 242.36 208.011 153.283 160.335 94.5326Z" fill="white"/>
<path fill-rule="evenodd" clip-rule="evenodd" d="M162.674 491.446C156.993 491.446 152.091 489.415 151.869 482.183C151.757 478.376 149.863 388.03 194.644 335.117C222.158 302.633 261.368 291.467 310.381 302.633C313.723 303.394 316.285 306.313 316.953 310.12C340.903 448.557 240.537 491.446 162.674 491.446ZM275.292 317.606C192.527 317.606 170.805 408.586 168.8 472.158C238.867 469.367 318.178 433.964 301.469 320.271C292.335 318.494 283.535 317.606 275.292 317.606Z" fill="white"/>
<path fill-rule="evenodd" clip-rule="evenodd" d="M157.884 491.446C80.02 491.446 -20.3452 448.557 3.60434 310.12C4.27271 306.313 6.94614 303.394 10.1765 302.633C59.1895 291.467 98.3998 302.633 126.025 335.117C170.805 388.03 168.8 478.376 168.689 482.183C168.577 487.258 165.013 491.319 160.557 491.446C160.557 491.446 159.666 491.446 157.884 491.446ZM19.088 320.271C2.379 433.964 81.6909 469.367 151.757 472.158C149.084 391.71 118.339 301.237 19.088 320.271Z" fill="white"/>
<path fill-rule="evenodd" clip-rule="evenodd" d="M160.332 491.445C158.104 491.445 155.988 490.556 154.317 488.653L63.3089 384.476C55.5113 375.594 67.319 361.89 75.2279 370.899L166.236 475.076C171.583 481.166 167.684 491.445 160.332 491.445Z" fill="white"/>
<path fill-rule="evenodd" clip-rule="evenodd" d="M160.335 491.445C152.872 491.445 149.085 481.166 154.32 475.076L245.44 370.899C253.237 361.89 265.045 375.594 257.247 384.476L166.239 488.653C164.568 490.556 162.452 491.445 160.335 491.445Z" fill="white"/>
<mask id="mask0_13_8597" style="mask-type:luminance" maskUnits="userSpaceOnUse" x="389" y="152" width="333" height="99">
<path d="M389.473 152.903H721.312V250.354H389.473V152.903Z" fill="white"/>
</mask>
<g mask="url(#mask0_13_8597)">
<path fill-rule="evenodd" clip-rule="evenodd" d="M699.035 224.469H414.649C392.593 224.469 397.049 194.269 397.049 174.22C397.049 163.181 404.958 154.045 414.649 154.045H699.035C721.091 154.045 716.635 184.245 716.635 204.293C716.635 215.46 708.726 224.469 699.035 224.469ZM414.649 173.332C413.201 173.332 413.201 205.308 414.649 205.308H699.035C700.483 205.308 700.483 173.332 699.035 173.332H414.649Z" fill="white"/>
</g>
<mask id="mask1_13_8597" style="mask-type:luminance" maskUnits="userSpaceOnUse" x="446" y="0" width="87" height="186">
<path d="M446.506 0H532.056V185.387H446.506V0Z" fill="white"/>
</mask>
<g mask="url(#mask1_13_8597)">
<path fill-rule="evenodd" clip-rule="evenodd" d="M517.241 173.332H470.79C466.223 173.332 462.436 169.018 462.436 163.688V47.5836C462.436 -0.000193596 525.595 -0.000193596 525.595 47.5836V163.688C525.595 169.018 521.808 173.332 517.241 173.332ZM479.256 154.044H508.775V47.5836C508.775 25.2509 479.256 25.2509 479.256 47.5836V154.044Z" fill="white"/>
</g>
<mask id="mask2_13_8597" style="mask-type:luminance" maskUnits="userSpaceOnUse" x="560" y="0" width="115" height="186">
<path d="M560.574 0H674.641V185.387H560.574V0Z" fill="white"/>
</mask>
<g mask="url(#mask2_13_8597)">
<path fill-rule="evenodd" clip-rule="evenodd" d="M642.893 173.332H596.442C591.875 173.332 588.088 169.018 588.088 163.688V47.5838C588.088 5.05447e-05 651.248 5.05447e-05 651.248 47.5838V163.688C651.248 169.018 647.46 173.332 642.893 173.332ZM604.908 154.045H634.427V47.5838C634.427 25.2512 604.908 25.2512 604.908 47.5838V154.045Z" fill="white"/>
</g>
<path fill-rule="evenodd" clip-rule="evenodd" d="M556.782 504.515C482.26 504.515 421.551 435.106 421.551 349.709V214.824C421.551 209.495 425.227 205.308 429.905 205.308H683.77C688.448 205.308 692.124 209.495 692.124 214.824V349.709C692.124 435.106 631.415 504.515 556.782 504.515ZM438.26 224.468V349.709C438.26 424.447 491.506 485.354 556.782 485.354C622.17 485.354 675.415 424.447 675.415 349.709V224.468H438.26Z" fill="white"/>
<path fill-rule="evenodd" clip-rule="evenodd" d="M617.94 326.488H495.742C484.714 326.488 484.714 307.328 495.742 307.328H617.94C628.968 307.328 628.968 326.488 617.94 326.488Z" fill="white"/>
<path fill-rule="evenodd" clip-rule="evenodd" d="M605.015 364.556H508.66C497.632 364.556 497.632 345.269 508.66 345.269H605.015C616.042 345.269 616.042 364.556 605.015 364.556Z" fill="white"/>
<path fill-rule="evenodd" clip-rule="evenodd" d="M594.654 402.496H519.019C507.879 402.496 507.879 383.335 519.019 383.335H594.654C605.794 383.335 605.794 402.496 594.654 402.496Z" fill="white"/>
<mask id="mask3_13_8597" style="mask-type:luminance" maskUnits="userSpaceOnUse" x="132" y="217" width="458" height="401">
<path d="M132.818 217.87H589.084V617.955H132.818V217.87Z" fill="white"/>
</mask>
<g mask="url(#mask3_13_8597)">
<path fill-rule="evenodd" clip-rule="evenodd" d="M556.781 617.954H160.333C155.655 617.954 151.867 613.64 151.867 608.311V239.441C151.867 226.879 168.688 226.879 168.688 239.441V598.794H548.426V494.871C548.426 482.309 565.247 482.309 565.247 494.871V608.311C565.247 613.64 561.459 617.954 556.781 617.954Z" fill="white"/>
</g>
</svg>
