<svg width="759" height="674" viewBox="0 0 759 674" fill="none" xmlns="http://www.w3.org/2000/svg">
<mask id="mask0_13_8474" style="mask-type:luminance" maskUnits="userSpaceOnUse" x="0" y="0" width="759" height="674">
<path d="M0 0H759V673.052H0V0Z" fill="white"/>
</mask>
<g mask="url(#mask0_13_8474)">
<path d="M337.501 452.642V343.197C337.501 340.811 336.641 338.75 335.027 337.123C333.307 335.387 331.263 334.519 328.897 334.519H272.324C269.85 334.519 267.915 335.387 266.194 337.123C264.473 338.75 263.612 340.811 263.612 343.197V452.642H251.674V389.513C251.674 387.127 250.814 385.066 249.093 383.331C247.479 381.704 245.436 380.836 242.962 380.836H186.39C184.023 380.836 181.98 381.704 180.259 383.331C178.646 385.066 177.785 387.127 177.785 389.513V452.642H147.348C144.874 452.642 142.938 453.51 141.217 455.246C139.497 456.873 138.636 458.934 138.636 461.32V501.996C138.636 504.382 139.497 506.443 141.217 508.179C142.938 509.914 144.874 510.674 147.348 510.674H521.954C524.32 510.674 526.364 509.914 528.085 508.179C529.806 506.443 530.558 504.382 530.558 501.996V461.32C530.558 458.934 529.806 456.873 528.085 455.246C526.364 453.51 524.32 452.642 521.954 452.642H509.371V236.355C509.371 233.968 508.51 231.907 506.789 230.172C505.068 228.545 503.025 227.677 500.659 227.677H444.086C441.72 227.677 439.676 228.545 437.955 230.172C436.235 231.907 435.482 233.968 435.482 236.355V452.642H423.436V289.288C423.436 286.901 422.575 284.84 420.855 283.105C419.241 281.478 417.198 280.61 414.832 280.61H358.151C355.785 280.61 353.742 281.478 352.128 283.105C350.408 284.84 349.547 286.901 349.547 289.288V452.642H337.501ZM280.928 351.874H320.293V452.642H280.928V351.874ZM194.994 398.191H234.358V452.642H194.994V398.191ZM513.35 493.319H155.952V470.106H513.35V493.319ZM452.69 245.032H492.055V452.642H452.69V245.032ZM366.863 297.965H406.12V452.642H366.863V297.965ZM220.806 339.401C232.315 339.401 243.393 337.123 254.04 332.675C264.796 328.228 274.153 321.937 282.327 313.802C290.501 305.558 296.739 296.121 301.148 285.383C305.558 274.644 307.817 263.472 307.817 251.866C307.817 240.259 305.558 229.087 301.148 218.349C296.739 207.719 290.501 198.173 282.327 190.038C274.153 181.795 264.796 175.503 254.04 171.056C243.393 166.609 232.315 164.439 220.806 164.439C209.298 164.439 198.113 166.609 187.465 171.056C176.817 175.503 167.46 181.795 159.286 190.038C151.112 198.173 144.767 207.719 140.357 218.349C135.947 229.087 133.796 240.259 133.796 251.866C133.796 263.472 136.055 274.644 140.465 285.383C144.874 296.013 151.112 305.558 159.286 313.693C167.46 321.937 176.817 328.228 187.465 332.675C198.113 337.123 209.298 339.401 220.806 339.401ZM220.806 181.795C230.056 181.795 238.983 183.53 247.48 187.11C255.976 190.689 263.612 195.679 270.066 202.295C276.626 208.912 281.681 216.505 285.231 225.074C288.78 233.643 290.501 242.537 290.501 251.866C290.501 261.194 288.78 270.089 285.231 278.766C281.681 287.335 276.626 294.928 270.066 301.436C263.612 308.053 255.976 313.151 247.48 316.622C238.983 320.201 230.056 322.045 220.806 322.045C211.557 322.045 202.63 320.201 194.133 316.622C185.529 313.151 178 308.053 171.44 301.436C164.987 294.928 159.932 287.335 156.382 278.766C152.833 270.089 151.005 261.194 151.005 251.866C151.112 242.537 152.833 233.643 156.382 225.074C159.932 216.505 164.987 208.912 171.547 202.295C178 195.787 185.529 190.689 194.133 187.11C202.63 183.53 211.557 181.795 220.806 181.795ZM230.379 270.197C230.379 267.594 229.411 265.316 227.582 263.363C225.646 261.52 223.388 260.543 220.806 260.543C220.484 260.543 220.161 260.543 219.946 260.543C213.385 260.326 207.793 258.048 202.953 253.71C198.113 249.371 195.209 243.947 194.241 237.548C193.273 231.04 194.456 225.074 197.898 219.542C201.232 213.901 205.964 210.105 212.202 208.044V200.343C212.202 197.848 212.955 195.896 214.676 194.16C216.397 192.424 218.44 191.557 220.806 191.557C223.173 191.557 225.216 192.424 226.937 194.16C228.55 195.896 229.411 197.848 229.411 200.343V208.044C234.896 209.888 239.305 213.142 242.64 217.806C245.974 222.579 247.587 227.786 247.695 233.534C247.695 235.921 246.834 237.982 245.113 239.717C243.393 241.453 241.349 242.212 238.983 242.212C236.617 242.212 234.573 241.453 232.852 239.717C231.239 237.982 230.379 235.921 230.379 233.534C230.379 230.931 229.411 228.653 227.582 226.809C225.646 224.857 223.388 223.989 220.806 223.989C218.118 223.989 215.859 224.857 214.031 226.809C212.202 228.653 211.234 230.931 211.234 233.534C211.234 236.246 212.202 238.524 214.031 240.368C215.859 242.212 218.118 243.188 220.806 243.188C221.129 243.188 221.344 243.188 221.667 243.188C228.12 243.405 233.82 245.683 238.66 250.022C243.5 254.361 246.404 259.784 247.372 266.184C248.34 272.692 247.049 278.658 243.715 284.298C240.381 289.83 235.541 293.626 229.411 295.687V303.497C229.411 305.883 228.55 307.944 226.937 309.571C225.216 311.307 223.173 312.175 220.806 312.175C218.44 312.175 216.397 311.307 214.676 309.571C212.955 307.944 212.202 305.883 212.202 303.497V295.687C206.717 293.843 202.307 290.589 198.973 285.925C195.639 281.152 193.918 275.946 193.918 270.197C193.918 267.811 194.779 265.75 196.499 264.014C198.113 262.387 200.156 261.52 202.63 261.52C204.996 261.52 207.04 262.387 208.653 264.014C210.374 265.75 211.234 267.811 211.234 270.197C211.234 272.8 212.202 275.078 214.031 277.031C215.859 278.875 218.118 279.851 220.806 279.851C223.388 279.851 225.646 278.875 227.582 277.031C229.411 275.078 230.379 272.8 230.379 270.197ZM753.085 209.129C752.547 205.875 750.611 203.705 747.492 202.621C736.737 198.716 725.552 196.98 714.043 197.197C702.643 197.523 691.565 199.909 680.917 204.356C670.377 208.803 660.912 215.095 652.631 223.013C644.349 231.04 637.789 240.259 632.949 250.781C629.83 240.476 626.173 230.389 622.086 220.518C632.303 195.136 635.422 168.995 631.658 141.878C627.786 114.869 617.569 90.5718 600.79 69.0948C584.012 47.6179 563.039 31.7814 537.872 21.5853C512.705 11.3891 486.569 8.13508 459.681 12.0399C456.455 12.4739 454.196 14.2093 452.905 17.3549C450.539 23.1038 448.496 28.9612 446.882 35.0355C445.161 41.1097 443.978 47.184 443.01 53.3668C442.15 59.5495 441.612 65.8407 441.397 72.0235C441.29 78.3147 441.505 84.606 442.15 90.7887C442.688 97.0799 443.763 103.263 445.054 109.337C446.452 115.411 448.173 121.486 450.324 127.343C452.368 133.2 454.841 138.949 457.638 144.59C460.434 150.121 463.553 155.545 466.995 160.751C470.544 165.958 474.308 170.948 478.395 175.72C482.375 180.384 486.784 184.94 491.409 189.062C496.034 193.292 500.874 197.197 505.929 200.777C511.091 204.465 516.361 207.719 521.847 210.647C527.332 213.576 533.032 216.179 538.84 218.457C544.648 220.735 550.563 222.579 556.586 224.098C562.609 225.616 568.74 226.701 574.978 227.46C581.108 228.219 587.346 228.653 593.584 228.653C597.886 228.653 602.189 228.436 606.491 228.002C614.557 247.527 620.473 267.702 624.237 288.42C624.022 294.928 624.56 301.436 625.85 307.836C626.065 309.138 626.603 310.331 627.464 311.415C628.431 321.286 628.969 331.265 628.969 341.136C628.969 504.382 496.894 637.149 334.597 637.149C172.408 637.149 40.3329 504.382 40.3329 341.244C40.3329 185.049 161.33 56.7293 313.947 45.9909L301.363 59.5495C299.75 61.285 298.89 63.346 298.997 65.7323C299.105 68.1186 299.965 70.1795 301.686 71.8066C303.407 73.4336 305.558 74.1929 307.924 74.1929C310.29 74.0844 312.334 73.1082 313.947 71.3727L340.943 42.5198C340.943 42.5198 340.943 42.5199 341.05 42.4114C341.373 42.086 341.696 41.6521 341.911 41.2182C342.018 41.1097 342.018 41.1098 342.018 41.0013C342.341 40.5674 342.556 40.1335 342.664 39.6996C342.771 39.5912 342.771 39.5912 342.771 39.4827C342.986 39.0488 343.094 38.5065 343.094 38.0726C343.201 37.9641 343.201 37.9641 343.201 37.8557C343.201 37.4218 343.309 36.9879 343.309 36.554V36.4456C343.309 36.3371 343.309 36.2286 343.309 36.2286C343.201 35.6863 343.201 35.1439 343.094 34.71C343.094 34.71 343.094 34.6016 342.986 34.6016C342.879 34.0592 342.771 33.6253 342.556 33.083C342.556 33.083 342.556 32.9745 342.449 32.9745C342.234 32.5407 342.018 32.1068 341.696 31.6729C341.696 31.5644 341.696 31.5645 341.588 31.456C341.373 31.0221 340.943 30.6967 340.62 30.2628C340.62 30.2628 340.62 30.2628 340.513 30.2628L311.796 3.14546C310.075 1.40995 308.032 0.650672 305.666 0.759134C303.299 0.759134 301.256 1.73536 299.643 3.47087C297.922 5.20638 297.169 7.26731 297.276 9.65362C297.384 12.0399 298.244 14.1009 299.965 15.7279L313.624 28.6358C283.725 30.5882 254.793 36.8794 226.722 47.2925C198.651 57.7056 172.623 71.915 148.639 89.8125C124.654 107.818 103.574 128.753 85.6126 152.833C67.6513 176.913 53.4543 202.946 42.9141 231.148C32.374 259.35 26.0283 288.42 23.8773 318.357C21.7262 348.403 23.7697 378.124 30.1154 407.519C36.461 436.914 46.786 464.791 61.0906 491.258C75.3951 517.616 93.1413 541.479 114.329 562.739C136.055 584.65 160.577 602.873 187.788 617.516C214.891 632.051 243.608 642.464 273.83 648.43C304.052 654.504 334.49 656.023 365.142 652.985C395.795 649.948 425.372 642.464 453.873 630.641C482.375 618.818 508.51 602.981 532.279 583.348C556.156 563.715 576.591 541.045 593.692 515.229C610.793 489.522 623.914 461.754 632.841 432.142C641.768 402.53 646.178 372.158 646.178 341.244C646.178 333.435 645.963 325.733 645.317 318.141C652.738 319.551 660.267 319.984 667.796 319.551C675.324 319.117 682.638 317.815 689.844 315.537C697.05 313.259 703.933 310.222 710.279 306.317C716.732 302.412 722.648 297.748 728.025 292.325C733.295 287.01 737.92 281.044 741.792 274.536C745.664 268.028 748.675 261.086 750.827 253.927C752.978 246.659 754.268 239.175 754.698 231.69C755.129 224.098 754.591 216.613 753.085 209.129ZM593.584 211.298C582.721 211.298 571.966 209.997 561.426 207.393C550.778 204.79 540.776 200.994 531.096 195.896C521.416 190.797 512.49 184.723 504.423 177.456C496.249 170.297 489.043 162.162 482.805 153.159C476.567 144.264 471.512 134.61 467.64 124.414C463.768 114.218 461.079 103.697 459.681 92.8496C458.391 82.0027 458.283 71.1558 459.574 60.3088C460.757 49.4619 463.338 38.8319 467.102 28.6358C477.965 27.4426 488.72 27.6595 499.476 29.1781C510.339 30.5882 520.771 33.4084 530.881 37.4218C540.991 41.5436 550.456 46.7501 559.383 53.0414C568.202 59.4411 576.161 66.7085 583.259 75.0607C590.358 83.3043 596.381 92.4158 601.328 102.178C606.276 111.94 609.932 122.136 612.406 132.766C614.772 143.505 615.955 154.243 615.848 165.199C615.633 176.154 614.234 186.893 611.438 197.523C594.015 163.463 571.106 133.634 542.712 107.927C540.883 106.408 538.84 105.649 536.474 105.757C534.108 105.866 532.064 106.842 530.451 108.686C528.945 110.422 528.192 112.483 528.3 114.869C528.407 117.255 529.375 119.316 531.204 120.943C559.598 146.542 582.184 176.588 598.962 211.081C597.134 211.19 595.305 211.298 593.584 211.298ZM711.355 284.081C702.105 292.216 691.35 297.64 679.411 300.352C667.366 303.172 655.427 303.063 643.489 299.918C642.951 295.687 642.306 291.457 641.553 287.335C641.768 281.586 642.628 275.946 644.027 270.414C645.532 264.882 647.576 259.676 650.265 254.577C652.953 249.588 656.18 244.924 659.837 240.585C663.601 236.246 667.796 232.45 672.313 229.087C676.938 225.725 681.885 222.904 687.048 220.627C692.318 218.349 697.695 216.722 703.288 215.745C708.881 214.769 714.581 214.444 720.281 214.661C725.874 214.986 731.467 215.854 736.952 217.481C738.458 229.955 737.06 242.212 732.543 254.035C727.918 265.75 720.927 275.837 711.355 284.081Z" fill="white"/>
</g>
</svg>
