<svg width="646" height="720" viewBox="0 0 646 720" fill="none" xmlns="http://www.w3.org/2000/svg">
<mask id="mask0_13_8525" style="mask-type:luminance" maskUnits="userSpaceOnUse" x="96" y="95" width="469" height="625">
<path d="M96.2773 95.9375H564.249V719.809H96.2773V95.9375Z" fill="white"/>
</mask>
<g mask="url(#mask0_13_8525)">
<path d="M322.953 97.0659C310.157 97.0659 297.463 98.0065 284.768 99.9816C272.175 102.051 259.785 104.967 247.801 108.917C235.716 112.961 224.037 117.758 212.866 123.59C201.695 129.421 191.235 136.005 181.282 143.529C171.33 150.96 162.189 159.237 153.76 168.078C145.433 177.013 137.917 186.607 131.316 196.671C124.715 206.829 119.028 217.363 114.458 228.368C109.786 239.372 106.232 250.659 103.693 262.228C101.154 273.796 99.6307 285.553 99.326 297.31C99.0214 309.161 99.7322 320.918 101.56 332.581C103.388 344.244 106.333 355.719 110.294 366.912C114.255 378.198 119.333 389.015 125.324 399.455C131.316 409.895 138.222 419.771 146.042 429.082C153.963 438.394 162.596 447.047 172.04 455.042C181.485 463.036 191.641 470.185 202.507 476.486C213.272 482.882 224.545 488.337 236.427 492.852V658.108C236.427 661.494 237.646 664.315 240.286 666.761C242.825 669.112 245.973 670.335 249.629 670.335H272.175V701.562C272.175 704.948 273.394 707.769 276.034 710.215C278.573 712.566 281.721 713.789 285.377 713.789H360.529C364.185 713.789 367.333 712.566 369.974 710.215C372.513 707.769 373.833 704.948 373.833 701.562V670.335H396.277C399.933 670.335 403.081 669.112 405.722 666.761C408.26 664.315 409.581 661.494 409.581 658.108V492.852C421.361 488.337 432.634 482.882 443.501 476.486C454.266 470.185 464.421 463.036 473.866 455.042C483.311 447.047 492.044 438.394 499.864 429.082C507.684 419.771 514.692 409.895 520.683 399.455C526.675 389.015 531.652 378.198 535.612 366.912C539.573 355.719 542.518 344.244 544.346 332.581C546.174 320.918 546.987 309.161 546.58 297.31C546.276 285.553 544.854 273.796 542.315 262.228C539.776 250.659 536.222 239.372 531.55 228.368C526.878 217.363 521.293 206.829 514.692 196.671C507.989 186.607 500.575 177.013 492.146 168.078C483.717 159.237 474.577 150.96 464.624 143.529C454.773 136.005 444.211 129.421 433.04 123.59C421.869 117.758 410.292 112.961 398.206 108.917C386.121 104.967 373.731 102.051 361.138 99.9816C348.545 98.0065 335.749 97.0659 322.953 97.0659ZM347.327 689.334H298.58V670.335H347.327V689.334ZM383.075 584.65H356.873C353.217 584.65 350.069 585.873 347.53 588.224C344.889 590.576 343.671 593.492 343.671 596.878C343.671 600.264 344.889 603.085 347.53 605.531C350.069 607.882 353.217 609.105 356.873 609.105H383.075V614.936H329.554C326 614.936 322.852 616.159 320.313 618.51C317.672 620.956 316.454 623.777 316.352 627.164C316.352 630.455 317.672 633.371 320.211 635.723C322.852 638.168 325.898 639.297 329.554 639.297H383.075V645.881H262.832V639.297H285.377C289.033 639.297 292.182 638.168 294.72 635.723C297.361 633.371 298.58 630.455 298.58 627.164C298.58 623.777 297.361 620.862 294.72 618.51C292.182 616.065 289.033 614.936 285.377 614.936H262.832V609.105H310.563C314.219 609.105 317.266 607.882 319.906 605.531C322.445 603.085 323.766 600.264 323.766 596.878C323.766 593.492 322.445 590.576 319.906 588.224C317.266 585.873 314.219 584.65 310.563 584.65H262.832V572.235H383.075V584.65ZM285.073 419.959H262.832V394.282H285.073V419.959ZM311.579 547.781V444.319H334.327V547.781H311.579ZM391.808 473.1C386.02 475.076 383.176 478.932 383.075 484.575V547.781H360.834V444.319H396.277C399.933 444.319 403.081 443.097 405.722 440.745C408.26 438.394 409.581 435.478 409.581 432.092V382.055C409.581 378.763 408.26 375.847 405.722 373.495C403.081 371.05 399.933 369.921 396.277 369.921H347.631C343.975 369.921 340.827 371.05 338.187 373.495C335.648 375.847 334.327 378.763 334.327 382.055V419.959H311.579V382.055C311.579 378.763 310.259 375.847 307.72 373.495C305.079 371.05 302.033 369.921 298.377 369.921H249.629C245.973 369.921 242.825 371.05 240.286 373.495C237.646 375.847 236.427 378.763 236.427 382.055V432.092C236.427 435.478 237.646 438.394 240.286 440.745C242.825 443.097 245.973 444.319 249.629 444.319H285.073V547.781H262.832V484.575C262.832 478.932 259.887 475.076 254.098 473.1C246.989 470.655 239.982 467.833 233.177 464.635C226.373 461.437 219.772 457.863 213.475 454.007C207.077 450.057 200.984 445.824 195.195 441.215C189.407 436.701 183.821 431.81 178.642 426.731C173.462 421.558 168.587 416.103 164.017 410.459C159.549 404.816 155.385 398.89 151.628 392.777C147.768 386.663 144.417 380.361 141.472 373.872C138.425 367.382 135.886 360.798 133.754 354.026C131.621 347.254 129.894 340.388 128.574 333.522C127.254 326.562 126.442 319.602 126.035 312.547C125.629 305.493 125.629 298.439 126.137 291.479C126.543 284.425 127.457 277.465 128.879 270.505C130.199 263.544 132.027 256.772 134.16 250C136.394 243.228 139.035 236.644 142.081 230.249C145.128 223.759 148.581 217.457 152.44 211.438C156.299 205.324 160.463 199.398 165.033 193.849C169.603 188.206 174.579 182.751 179.759 177.672C185.04 172.593 190.625 167.796 196.414 163.281C202.304 158.766 208.398 154.534 214.796 150.678C221.194 146.821 227.795 143.341 234.701 140.143C241.505 137.04 248.512 134.218 255.723 131.867C262.832 129.421 270.144 127.446 277.557 125.847C285.073 124.154 292.588 122.931 300.103 122.179C307.72 121.332 315.336 120.956 322.953 120.956C330.57 120.956 338.187 121.332 345.803 122.179C353.42 122.931 360.935 124.154 368.349 125.847C375.762 127.446 383.075 129.421 390.285 131.867C397.394 134.218 404.401 137.04 411.307 140.143C418.111 143.341 424.713 146.821 431.111 150.678C437.509 154.534 443.602 158.766 449.492 163.281C455.383 167.796 460.867 172.593 466.148 177.672C471.429 182.751 476.303 188.206 480.873 193.849C485.443 199.398 489.709 205.324 493.568 211.438C497.325 217.457 500.778 223.759 503.825 230.249C506.872 236.644 509.512 243.228 511.746 250C513.981 256.772 515.707 263.544 517.129 270.505C518.449 277.465 519.363 284.425 519.871 291.479C520.277 298.439 520.379 305.493 519.973 312.547C519.566 319.602 518.652 326.562 517.332 333.522C516.113 340.388 514.387 347.254 512.254 354.026C510.02 360.798 507.481 367.382 504.536 373.872C501.489 380.361 498.138 386.663 494.38 392.777C490.521 398.89 486.357 404.816 481.889 410.459C477.319 416.103 472.444 421.558 467.265 426.731C462.085 431.81 456.601 436.701 450.711 441.215C444.922 445.824 438.829 450.057 432.533 454.007C426.134 457.863 419.533 461.437 412.729 464.635C405.925 467.833 399.019 470.655 391.808 473.1ZM360.834 419.959V394.282H383.075V419.959H360.834Z" fill="white"/>
</g>
<mask id="mask1_13_8525" style="mask-type:luminance" maskUnits="userSpaceOnUse" x="304" y="0" width="53" height="96">
<path d="M304.262 0H356.259V95.9368H304.262V0Z" fill="white"/>
</mask>
<g mask="url(#mask1_13_8525)">
<path d="M322.948 72.1416C326.604 72.1416 329.753 70.9189 332.292 68.5675C334.932 66.2161 336.252 63.3004 336.252 59.9144V18.2477C336.252 14.8617 334.932 11.946 332.292 9.59462C329.753 7.24324 326.604 6.02051 322.948 6.02051C319.292 6.02051 316.144 7.24324 313.605 9.59462C311.066 11.946 309.746 14.8617 309.746 18.2477V59.9144C309.746 63.3004 311.066 66.2161 313.605 68.5675C316.144 70.9189 319.292 72.1416 322.948 72.1416Z" fill="white"/>
</g>
<mask id="mask2_13_8525" style="mask-type:luminance" maskUnits="userSpaceOnUse" x="0" y="264" width="97" height="49">
<path d="M0 264.485H96.2754V312.641H0V264.485Z" fill="white"/>
</mask>
<g mask="url(#mask2_13_8525)">
<path d="M58.1898 274.455H12.4894C8.83341 274.455 5.78671 275.677 3.14625 278.029C0.607323 280.38 -0.712891 283.296 -0.712891 286.682C-0.712891 290.068 0.607323 292.89 3.14625 295.335C5.78671 297.686 8.83341 298.909 12.4894 298.909H58.1898C61.8458 298.909 64.9941 297.686 67.533 295.335C70.1735 292.89 71.3921 290.068 71.3921 286.682C71.3921 283.296 70.1735 280.38 67.533 278.029C64.9941 275.677 61.8458 274.455 58.1898 274.455Z" fill="white"/>
</g>
<mask id="mask3_13_8525" style="mask-type:luminance" maskUnits="userSpaceOnUse" x="564" y="264" width="82" height="49">
<path d="M564.246 264.485H645.999V312.642H564.246V264.485Z" fill="white"/>
</mask>
<g mask="url(#mask3_13_8525)">
<path d="M633.405 274.455H587.704C584.048 274.455 581.002 275.677 578.361 278.029C575.822 280.38 574.502 283.296 574.502 286.682C574.502 290.068 575.822 292.89 578.361 295.335C581.002 297.686 584.048 298.909 587.704 298.909H633.405C637.061 298.909 640.209 297.686 642.748 295.335C645.388 292.89 646.607 290.068 646.607 286.682C646.607 283.296 645.388 280.38 642.748 278.029C640.209 275.677 637.061 274.455 633.405 274.455Z" fill="white"/>
</g>
<mask id="mask4_13_8525" style="mask-type:luminance" maskUnits="userSpaceOnUse" x="564" y="0" width="79" height="72">
<path d="M564.246 0H642.241V71.8585H564.246V0Z" fill="white"/>
</mask>
<g mask="url(#mask4_13_8525)">
<path d="M587.707 60.1961C591.363 60.1961 594.512 58.9734 597.152 56.622L623.861 31.9795C626.502 29.534 627.822 26.7123 627.924 23.2323C627.924 19.8463 626.604 16.9305 623.963 14.4851C621.424 12.1337 618.276 10.911 614.518 11.005C610.862 11.005 607.714 12.2278 605.175 14.6732L578.364 39.3158C574.2 43.1721 573.286 47.5927 575.521 52.6717C577.755 57.6566 581.817 60.1961 587.707 60.1961Z" fill="white"/>
</g>
<mask id="mask5_13_8525" style="mask-type:luminance" maskUnits="userSpaceOnUse" x="0" y="0" width="97" height="72">
<path d="M0 0H96.2754V71.8585H0V0Z" fill="white"/>
</mask>
<g mask="url(#mask5_13_8525)">
<path d="M40.8244 14.6729C38.2855 12.2274 35.1373 11.0047 31.3796 10.9106C27.7236 10.9106 24.5754 12.1333 21.9349 14.4848C19.2944 16.9302 17.9742 19.8459 18.0758 23.2319C18.0758 26.712 19.396 29.5337 22.138 31.9791L48.8473 56.6217C51.3863 58.9731 54.5345 60.1958 58.1905 60.1958C61.8466 60.1958 64.9948 58.9731 67.5337 56.6217C70.1742 54.2703 71.4944 51.3546 71.4944 47.9686C71.4944 44.5826 70.1742 41.7609 67.5337 39.3154L40.8244 14.6729Z" fill="white"/>
</g>
<path d="M597.149 479.12C594.509 476.769 591.36 475.546 587.704 475.546C584.048 475.546 581.002 476.769 578.361 479.12C575.822 481.471 574.502 484.387 574.502 487.773C574.502 491.065 575.822 493.981 578.361 496.332L605.172 520.975C607.711 523.42 610.859 524.549 614.515 524.549C618.171 524.549 621.218 523.42 623.858 520.975C626.397 518.623 627.717 515.708 627.717 512.416C627.717 509.03 626.397 506.114 623.858 503.763L597.149 479.12Z" fill="white"/>
<mask id="mask6_13_8525" style="mask-type:luminance" maskUnits="userSpaceOnUse" x="0" y="457" width="97" height="73">
<path d="M0 457.11H96.2754V529.345H0V457.11Z" fill="white"/>
</mask>
<g mask="url(#mask6_13_8525)">
<path d="M48.8484 479.12L22.1391 503.856C17.8737 507.713 16.9597 512.133 19.1939 517.212C21.4282 522.197 25.592 524.737 31.4823 524.737C35.1383 524.737 38.185 523.514 40.8254 521.163L67.5348 496.52C70.1753 494.075 71.4955 491.253 71.4955 487.867C71.4955 484.481 70.1753 481.565 67.5348 479.214C64.9959 476.862 61.8476 475.64 58.1916 475.64C54.5356 475.64 51.3873 476.862 48.8484 479.214V479.12Z" fill="white"/>
</g>
<path d="M338.281 317.156C338.281 321.106 336.86 324.398 333.813 327.22C330.868 329.947 327.212 331.358 322.946 331.358C318.681 331.358 315.127 329.947 312.08 327.22C309.135 324.398 307.611 321.106 307.611 317.156C307.611 313.299 309.135 309.913 312.08 307.186C315.127 304.364 318.681 303.047 322.946 303.047C327.212 303.047 330.868 304.364 333.813 307.186C336.86 309.913 338.281 313.299 338.281 317.156Z" fill="white"/>
<path d="M283.849 281.509C281.107 283.861 279.686 286.777 279.686 290.257C279.686 293.737 281.107 296.652 283.748 299.098C286.49 301.449 289.638 302.578 293.396 302.484C297.153 302.39 300.301 300.979 302.84 298.439C308.426 293.549 315.23 291.103 322.949 291.103C330.768 291.103 337.471 293.549 343.158 298.439C345.596 300.979 348.744 302.39 352.501 302.484C356.259 302.578 359.509 301.449 362.149 299.098C364.891 296.652 366.212 293.737 366.212 290.257C366.212 286.777 364.79 283.861 362.149 281.509C356.868 276.807 350.877 273.233 344.072 270.787C337.268 268.248 330.261 267.025 322.949 267.025C315.637 267.025 308.629 268.248 301.825 270.787C295.122 273.233 289.13 276.807 283.849 281.509Z" fill="white"/>
<path d="M255.715 255.172C253.074 257.524 251.652 260.345 251.652 263.731C251.551 267.211 252.769 270.127 255.41 272.479C257.949 274.924 261.097 276.147 264.855 276.147C268.511 276.147 271.659 275.018 274.198 272.573C280.799 266.835 288.314 262.415 296.743 259.311C305.173 256.207 313.906 254.702 322.945 254.702C331.983 254.702 340.717 256.207 349.146 259.311C357.576 262.415 365.091 266.835 371.692 272.573C374.332 274.83 377.379 275.959 381.035 275.959C384.691 275.865 387.738 274.642 390.277 272.29C392.816 269.939 394.034 267.023 394.034 263.731C394.034 260.345 392.714 257.524 390.175 255.172C381.137 247.272 370.778 241.158 359.099 236.926C347.522 232.599 335.436 230.53 322.945 230.53C310.453 230.53 298.368 232.599 286.791 236.926C275.112 241.158 264.855 247.272 255.715 255.172Z" fill="white"/>
<path d="M322.949 193.097C305.075 193.003 287.912 196.107 271.358 202.409C254.805 208.711 240.282 217.646 227.689 229.309C225.049 231.754 223.83 234.576 223.83 237.962C223.83 241.348 225.049 244.264 227.689 246.615C230.228 248.966 233.376 250.189 237.032 250.189C240.688 250.189 243.837 248.966 246.376 246.615C251.453 242.006 256.937 237.868 262.828 234.2C268.82 230.625 275.014 227.522 281.616 225.076C288.217 222.537 294.92 220.656 301.927 219.433C308.934 218.116 315.942 217.458 323.051 217.458C330.16 217.458 337.269 218.116 344.174 219.433C351.182 220.656 357.986 222.537 364.486 225.076C371.087 227.522 377.383 230.625 383.274 234.2C389.164 237.868 394.749 242.006 399.726 246.615C402.366 248.966 405.413 250.189 409.069 250.189C412.725 250.189 415.873 248.966 418.514 246.615C421.053 244.264 422.373 241.348 422.373 237.962C422.373 234.576 421.053 231.754 418.514 229.309C405.819 217.646 391.195 208.711 374.641 202.409C358.088 196.107 340.925 193.003 322.949 193.097Z" fill="white"/>
</svg>
