<svg width="762" height="527" viewBox="0 0 762 527" fill="none" xmlns="http://www.w3.org/2000/svg">
<mask id="mask0_14_8951" style="mask-type:luminance" maskUnits="userSpaceOnUse" x="0" y="0" width="762" height="527">
<path d="M0 0H762V526.582H0V0Z" fill="white"/>
</mask>
<g mask="url(#mask0_14_8951)">
<path d="M14.7921 319.654C9.56425 319.654 5.31557 324.586 5.31557 330.68V467.599C5.31557 473.693 9.56425 478.625 14.7921 478.625H106.008C111.235 478.625 115.484 473.693 115.484 467.599V330.68C115.484 324.586 111.235 319.654 106.008 319.654H14.7921ZM96.5311 456.573H24.2685V341.706H96.5311V456.573ZM164.685 255.678C159.457 255.678 155.208 260.61 155.208 266.704V467.619C155.208 473.713 159.457 478.646 164.685 478.646H255.883C261.111 478.646 265.359 473.713 265.359 467.619V266.704C265.359 260.61 261.111 255.678 255.883 255.678H164.685ZM246.424 456.573H174.161V277.73H246.424V456.573ZM305.101 176.233V467.599C305.101 473.693 309.35 478.625 314.578 478.625H405.793C411.021 478.625 415.27 473.693 415.27 467.599V176.233C415.27 170.139 411.021 165.207 405.793 165.207H314.578C309.332 165.207 305.101 170.139 305.101 176.233ZM324.054 187.259H396.317V456.573H324.054V187.259ZM583.381 515.453C583.381 521.527 579.132 526.48 573.904 526.48H13.2185C7.99066 526.48 3.74198 521.527 3.74198 515.453C3.74198 509.36 7.99066 504.427 13.2185 504.427H573.904C579.132 504.427 583.381 509.339 583.381 515.453ZM9.40689 221.296C4.17909 220.99 0.157708 215.813 0.419969 209.719C0.699718 203.646 5.14073 198.978 10.386 199.264C123.649 205.949 223.03 152 330.785 24.7826L292.093 22.3369C286.865 22.0108 282.844 16.8137 283.123 10.7198C283.421 4.64628 287.827 -0.0413288 293.107 0.305146L354.879 4.1979C360.107 4.524 364.111 9.72114 363.831 15.815L360.474 87.6986C360.212 93.5886 356.033 98.1132 351.015 98.1132C350.84 98.1132 350.665 98.1132 350.508 98.0928C345.28 97.7667 341.259 92.5696 341.538 86.4757L343.654 40.9447C238.241 165.187 139.892 221.825 29.1292 221.825C22.6075 221.887 16.0334 221.683 9.40689 221.296ZM760.427 256.738C739.078 211.064 694.948 176.559 655.469 174.664C630.956 173.502 610.394 185.445 597.561 208.272C588.381 224.597 584.64 243.47 586.493 261.364C579.43 268.396 572.873 276.548 566.823 285.781C566.071 262.445 564.533 239.536 561.77 218.198C577.174 206.886 589.57 188.115 594.396 161.314C598.89 136.47 592.63 111.177 575.775 86.0885C557.102 58.2277 528.113 39.783 494.159 34.0967C463.142 28.8996 429.484 34.8101 401.807 50.2588C398.625 52.0319 396.544 55.7413 396.439 59.8582C396.334 63.9752 398.187 67.8068 401.265 69.8041C424.886 85.2121 435.499 107.264 444.136 135.614C445.902 141.341 451.322 144.337 456.235 142.319C461.166 140.281 463.753 133.984 462.005 128.236C454.924 105.022 445.5 81.4212 425.917 62.7319C471.429 45.3878 529.844 53.479 560.861 99.6622C574.097 119.391 579.15 138.59 575.863 156.77C572.89 173.197 566.369 185.568 557.976 194.148C552.241 164.046 543.307 138.549 529.529 121.755C525.91 117.353 519.93 117.169 516.136 121.388C512.342 125.587 512.202 132.557 515.822 136.98C528.008 151.837 535.806 176.376 540.737 205.765C531.523 209.454 521.574 210.127 512.185 207.946C501.817 205.541 493.722 200.833 487.427 193.516C483.738 189.216 477.741 189.216 474.017 193.516C470.328 197.817 470.328 204.787 474.017 209.108C483.039 219.604 494.316 226.309 508.461 229.611C513.077 230.671 517.85 231.221 522.623 231.221C529.687 231.221 536.838 230.039 543.779 227.634C550.318 284.436 548.535 353.405 547.206 406.293C546.611 428.896 546.087 450.275 546.192 467.701C546.244 473.754 550.476 478.625 555.668 478.625C555.703 478.625 555.721 478.625 555.738 478.625C560.966 478.584 565.18 473.611 565.145 467.518C565.022 450.499 565.564 429.344 566.141 406.925C566.788 381.714 567.47 354.118 567.47 326.115C574.674 309.667 583.031 295.89 592.508 284.802C592.753 285.394 592.98 286.005 593.26 286.576C603.278 308.363 621.829 320.979 644.191 321.203C644.384 321.203 644.593 321.203 644.786 321.203C667.288 321.203 685.035 308.424 702.187 296.073C718.325 284.456 733.571 273.471 752.279 273.022C755.584 272.941 758.626 270.862 760.287 267.519C761.965 264.177 762 260.121 760.427 256.738ZM692.221 277.323C676.625 288.553 661.903 299.151 644.768 299.151C644.628 299.151 644.489 299.151 644.349 299.151C628.927 299.008 616.706 290.856 609.975 276.202C609.065 274.245 608.314 272.227 607.649 270.169C623.647 257.553 642.163 251.154 663.057 251.011C668.285 250.991 672.516 246.018 672.498 239.944C672.463 233.871 668.232 228.959 663.022 228.959C663.004 228.959 662.987 228.959 662.969 228.959C641.761 229.101 622.441 234.89 605.306 246.079C606.198 237.233 608.908 228.408 613.436 220.378C622.266 204.644 635.274 196.696 652.094 196.696C652.951 196.696 653.825 196.716 654.717 196.757C683.356 198.122 716.262 221.54 736.141 253.273C719.601 257.614 705.736 267.601 692.221 277.323Z" fill="white"/>
</g>
</svg>
