<svg width="647" height="689" viewBox="0 0 647 689" fill="none" xmlns="http://www.w3.org/2000/svg">
<mask id="mask0_13_8426" style="mask-type:luminance" maskUnits="userSpaceOnUse" x="0" y="0" width="647" height="689">
<path d="M0.246094 0.936279H646.014V688.318H0.246094V0.936279Z" fill="white"/>
</mask>
<g mask="url(#mask0_13_8426)">
<path fill-rule="evenodd" clip-rule="evenodd" d="M139.477 507.746C61.9166 502.587 0.448242 431.565 0.448242 344.737C0.448242 254.396 66.8141 181.289 148.572 181.289C205.143 181.289 254.318 216.306 279.305 267.678C281.703 272.618 280.004 278.655 275.507 281.29C271.109 283.924 265.512 282.058 263.213 277.228C241.324 232.113 198.246 201.487 148.572 201.487C76.9089 201.487 18.7388 265.593 18.7388 344.737C18.7388 423.772 76.9089 487.878 148.572 487.878C195.948 487.878 237.326 459.996 260.015 418.283C262.613 413.563 268.21 412.026 272.608 414.88C276.906 417.734 278.305 423.991 275.707 428.711C251.219 473.607 207.841 504.453 157.767 507.746V629.92C157.767 650.996 173.359 668.23 192.449 668.23H453.715C472.905 668.23 488.497 650.996 488.497 629.92V566.912L470.306 589.525C466.908 593.696 461.111 594.135 457.313 590.403C453.615 586.671 453.215 580.304 456.613 576.133L490.796 533.652C492.495 531.456 494.994 530.249 497.692 530.249C500.291 530.249 502.79 531.456 504.489 533.652L538.671 576.133C542.069 580.304 541.67 586.671 537.971 590.403C534.173 594.135 528.376 593.696 524.978 589.525L506.788 566.912V629.92C506.788 662.083 482.9 688.428 453.715 688.428H192.449C163.364 688.428 139.477 662.083 139.477 629.92V507.746ZM488.497 181.618V59.4439C488.497 38.368 472.905 21.134 453.715 21.134H192.449C173.359 21.134 157.767 38.368 157.767 59.4439V122.452L175.958 99.8394C179.356 95.6681 185.153 95.229 188.951 98.9612C192.649 102.693 193.049 109.06 189.651 113.231L155.468 155.712C153.769 157.908 151.271 159.115 148.572 159.115C145.973 159.115 143.475 157.908 141.775 155.712L107.593 113.231C104.195 109.06 104.595 102.693 108.293 98.9612C112.091 95.229 117.888 95.6681 121.286 99.8394L139.477 122.452V59.4439C139.477 27.2812 163.364 0.936279 192.449 0.936279H453.715C482.9 0.936279 506.788 27.2812 506.788 59.4439V181.618C584.348 186.777 645.816 257.799 645.816 344.737C645.816 434.968 579.45 508.075 497.692 508.075C443.72 508.075 396.444 476.242 370.558 428.711C367.959 423.991 369.358 417.734 373.656 414.88C378.054 412.026 383.651 413.563 386.25 418.283C408.938 459.996 450.317 487.878 497.692 487.878C569.355 487.878 627.525 423.772 627.525 344.737C627.525 265.593 569.355 201.487 497.692 201.487C448.018 201.487 404.94 232.113 383.051 277.228C380.752 282.058 375.155 283.924 370.758 281.29C366.26 278.655 364.561 272.618 366.96 267.678C390.547 219.05 435.824 185.131 488.497 181.618ZM148.572 402.586C162.165 402.586 173.659 392.268 173.659 378.985C173.659 365.593 162.165 355.385 148.572 355.385C124.384 355.385 105.294 335.516 105.294 311.696C105.294 290.95 119.687 273.277 139.277 268.886L139.077 257.47C139.077 256.372 139.177 255.274 139.477 254.176V246.493C139.477 240.894 143.575 236.394 148.572 236.394C153.669 236.394 157.767 240.894 157.767 246.493V269.215C162.765 270.532 168.162 272.618 172.959 275.472C178.856 278.985 183.854 283.375 186.552 287.986C189.351 292.596 188.152 298.853 183.954 301.927C179.756 305 174.059 303.683 171.26 299.073C169.961 296.877 167.262 295.011 164.364 293.255C159.167 290.291 152.87 288.096 148.572 288.096C135.079 288.096 123.585 298.304 123.585 311.696C123.585 324.978 135.079 335.187 148.572 335.187C172.859 335.187 191.95 355.165 191.95 378.985C191.95 399.622 177.557 417.405 157.967 421.686L158.167 431.895C158.267 437.493 154.269 442.103 149.272 442.213C144.174 442.323 139.976 437.932 139.876 432.334L139.677 421.906C129.282 419.93 122.186 414.222 113.79 405.55C110.092 401.708 109.892 395.341 113.39 391.28C116.788 387.218 122.585 386.999 126.283 390.841C133.18 397.976 138.477 402.586 148.572 402.586ZM523.579 234.637L513.884 315.538L552.764 336.614C555.263 337.931 557.062 340.456 557.661 343.42C558.261 346.384 557.661 349.567 555.862 351.872L475.803 462.301C473.105 466.143 468.207 467.241 464.309 464.936C460.511 462.63 458.612 457.581 460.012 452.861L483.699 371.521L443.32 354.726C440.722 353.628 438.723 351.213 437.823 348.359C437.023 345.396 437.423 342.212 438.922 339.688L506.987 227.722C509.286 223.88 513.784 222.233 517.782 223.88C521.78 225.636 524.179 230.027 523.579 234.637ZM500.391 274.813L460.511 340.346L498.292 356.043C502.89 357.909 505.288 363.398 503.789 368.557L492.595 406.867L534.473 349.128L499.991 330.467C496.393 328.601 494.394 324.43 494.894 320.148L500.391 274.813ZM246.821 334.199C241.724 334.199 237.626 329.589 237.626 324.1C237.626 318.502 241.724 314.001 246.821 314.001H376.954L370.258 306.756C366.66 302.915 366.56 296.438 370.158 292.486C373.656 288.535 379.453 288.425 383.051 292.267L405.84 316.855C408.538 319.709 409.338 324.1 407.938 327.832C406.539 331.674 403.241 334.199 399.443 334.199H246.821ZM399.443 355.165C404.54 355.165 408.638 359.776 408.638 365.264C408.638 370.862 404.54 375.363 399.443 375.363H269.31L276.006 382.608C279.605 386.45 279.704 392.926 276.106 396.878C272.608 400.83 266.811 400.939 263.213 397.097L240.425 372.509C237.726 369.655 236.926 365.264 238.326 361.532C239.725 357.69 243.023 355.165 246.821 355.165H399.443Z" fill="white"/>
</g>
</svg>
