<svg width="780" height="753" viewBox="0 0 780 753" fill="none" xmlns="http://www.w3.org/2000/svg">
<path d="M490.851 357.635C493.603 349.272 501.19 343.289 510.273 343.289H524.142C526.743 330.423 528.187 317.169 528.187 303.563C528.187 289.956 526.743 276.702 524.142 263.836H510.273C501.19 263.836 493.603 257.853 490.851 249.49C487.648 239.744 483.603 230.373 478.791 221.44C474.596 213.636 475.588 204.205 482.02 197.991L491.882 188.463C476.442 166.3 456.669 147.207 433.742 132.29L423.881 141.818C417.449 148.033 407.688 148.991 399.61 144.938C390.364 140.289 380.666 136.381 370.578 133.286C361.923 130.627 355.729 123.296 355.729 114.521V101.121C342.413 98.6087 328.695 97.2129 314.612 97.2129C300.53 97.2129 286.811 98.6087 273.495 101.121V114.521C273.495 123.296 267.302 130.627 258.646 133.286C248.559 136.381 238.86 140.289 229.614 144.938C221.537 148.991 211.776 148.033 205.344 141.818L195.482 132.29C172.543 147.207 152.782 166.312 137.343 188.463L147.204 197.991C153.636 204.205 154.629 213.636 150.433 221.44C145.621 230.373 141.576 239.744 138.373 249.49C135.622 257.853 128.034 263.836 118.951 263.836H105.082C102.482 276.702 101.037 289.956 101.037 303.563C101.037 317.169 102.482 330.423 105.082 343.289H118.951C128.034 343.289 135.622 349.272 138.373 357.635C141.576 367.382 145.621 376.752 150.433 385.685C154.629 393.489 153.636 402.92 147.204 409.134L137.343 418.662C152.782 440.825 172.555 459.918 195.482 474.835L205.344 465.307C211.776 459.092 221.537 458.134 229.614 462.188C238.86 466.836 248.559 470.744 258.646 473.84C267.302 476.498 273.495 483.829 273.495 492.604V506.004C286.811 508.516 300.53 509.912 314.612 509.912C328.695 509.912 342.413 508.516 355.729 506.004V492.604C355.729 483.829 361.923 476.498 370.578 473.84C380.666 470.744 390.364 466.836 399.61 462.188C407.688 458.134 417.449 459.092 423.881 465.307L433.742 474.835C456.681 459.918 476.442 440.813 491.882 418.662L482.02 409.134C475.588 402.92 474.596 393.489 478.791 385.685C483.603 376.752 487.648 367.382 490.851 357.635ZM314.625 412.812C252.177 412.812 201.562 363.91 201.562 303.575C201.562 243.239 252.177 194.337 314.625 194.337C377.073 194.337 427.687 243.239 427.687 303.575C427.687 363.91 377.073 412.812 314.625 412.812Z" fill="white"/>
<path d="M314.625 582.737C267.917 582.737 223.358 572.323 182.203 551.75L170.671 573.318C214.803 595.348 264.588 607 314.625 607C355.352 607 394.974 599.584 432.398 584.946L422.976 562.443C388.567 575.891 352.099 582.737 314.625 582.737Z" fill="white"/>
<path d="M615.597 390.528C624.278 362.43 628.687 333.167 628.687 303.575C628.687 268.899 622.67 234.865 610.824 202.434L587.118 210.517C598.022 240.339 603.562 271.654 603.562 303.575C603.562 330.812 599.517 357.733 591.528 383.586L615.597 390.528Z" fill="white"/>
<path d="M73.8396 457.928C42.3328 412.157 25.6875 358.789 25.6875 303.575C25.6875 149.635 155.295 24.4127 314.625 24.4127C385.842 24.4127 454.245 49.6587 507.246 95.4899L524.004 77.405C466.393 27.5806 392.023 0.137695 314.625 0.137695C141.451 0.137695 0.5625 136.26 0.5625 303.575C0.5625 363.583 18.6651 421.612 52.9104 471.364L73.8396 457.928Z" fill="white"/>
<path d="M565.875 188.269C593.627 188.269 616.125 166.532 616.125 139.719C616.125 112.906 593.627 91.1689 565.875 91.1689C538.123 91.1689 515.625 112.906 515.625 139.719C515.625 166.532 538.123 188.269 565.875 188.269Z" fill="white"/>
<path d="M113.625 570.6C141.377 570.6 163.875 548.863 163.875 522.05C163.875 495.237 141.377 473.5 113.625 473.5C85.8727 473.5 63.375 495.237 63.375 522.05C63.375 548.863 85.8727 570.6 113.625 570.6Z" fill="white"/>
<path d="M654.252 457.904L628.688 437.088L603.123 457.904C584.43 473.124 562.458 485.407 538.313 494.146L477.938 515.994L483.591 559.749C493.653 637.539 545.725 707.645 625.66 751.036L628.675 752.675L631.69 751.036C711.638 707.645 763.709 637.539 773.759 559.749L779.412 515.994L719.037 494.146C694.879 485.407 672.908 473.124 654.227 457.904H654.252ZM630.672 662.943C628.461 665.722 625.107 667.47 621.464 667.688C621.2 667.688 620.949 667.713 620.685 667.713C617.318 667.713 614.09 666.414 611.716 664.071L556.905 610.132L574.845 593.14L619.504 637.09L694.088 542.745L714.062 557.48L630.685 662.955L630.672 662.943Z" fill="white"/>
</svg>
