<svg width="780" height="802" viewBox="0 0 780 802" fill="none" xmlns="http://www.w3.org/2000/svg">
<mask id="mask0_13_8724" style="mask-type:luminance" maskUnits="userSpaceOnUse" x="0" y="0" width="780" height="802">
<path d="M0 0H780V802H0V0Z" fill="white"/>
</mask>
<g mask="url(#mask0_13_8724)">
<path fill-rule="evenodd" clip-rule="evenodd" d="M641.272 286.663C645.502 292.134 644.189 299.656 638.5 303.622L587.735 338.634C582.338 342.327 574.752 341.507 570.23 336.72L550.099 314.427C545.431 309.366 546.015 301.707 551.558 297.331C556.955 292.954 565.124 293.638 569.792 298.699L582.192 312.375L623.183 284.064C628.872 280.098 637.041 281.329 641.272 286.663ZM641.272 191.337C645.502 196.671 644.189 204.329 638.5 208.296L587.735 243.171C582.338 246.864 574.752 246.043 570.23 241.256L550.099 219.1C545.431 213.903 546.015 206.244 551.558 201.868C556.955 197.628 565.124 198.175 569.792 203.235L582.192 216.912L623.183 188.601C628.872 184.635 637.041 185.866 641.272 191.337ZM112.179 221.972C97.1535 221.972 84.1706 213.083 79.0649 200.774H145.293C140.041 213.083 127.058 221.972 112.179 221.972ZM112.179 123.5L139.749 176.429H84.4623L112.179 123.5ZM329.243 176.429H273.81L301.526 123.5L329.243 176.429ZM301.526 221.972C286.501 221.972 273.664 213.083 268.412 200.774H334.64C329.388 213.083 316.551 221.972 301.526 221.972ZM277.019 292.544C277.019 285.842 271.184 280.372 264.036 280.372H219.835V108.046H280.812L241.571 183.267C240.696 184.772 240.258 186.687 240.258 188.601C240.258 220.331 267.683 246.18 301.526 246.18C335.369 246.18 362.94 220.331 362.94 188.601C362.94 186.687 362.356 184.772 361.627 183.267L313.196 90.5396C311.008 86.4366 306.486 83.838 301.526 83.838H112.179C107.073 83.838 102.697 86.4366 100.509 90.5396L52.0778 183.267C51.2026 184.772 50.619 186.687 50.619 188.601C50.619 220.331 78.1896 246.18 112.179 246.18C146.022 246.18 173.593 220.331 173.593 188.601C173.593 186.687 173.009 184.772 172.134 183.267L132.893 108.046H193.869V280.372H149.523C142.375 280.372 136.686 285.842 136.686 292.544C136.686 299.246 142.375 304.579 149.523 304.579H264.036C271.184 304.579 277.019 299.246 277.019 292.544ZM738.863 607.107C736.529 614.63 731.423 620.921 724.275 624.75L533.761 727.052C490.873 750.029 472.785 751.123 424.791 754.132C350.832 758.645 279.207 750.576 206.415 745.105C205.394 744.968 204.373 744.968 203.497 745.105L142.813 752.627V606.15H157.109C160.464 606.15 163.819 604.919 166.445 602.868C220.127 558.145 278.478 553.905 355.5 588.917C357.397 589.875 359.439 590.285 361.627 590.285H491.749C519.319 590.285 533.177 621.605 513.922 639.931H354.187C346.456 639.931 340.329 645.676 340.329 652.924C340.329 660.036 346.456 665.78 354.187 665.78H520.632L525.738 664.139L693.495 574.147C717.273 561.427 746.157 581.806 738.863 607.107ZM116.993 773.005C116.993 775.467 114.659 777.656 112.033 777.656H73.9592C71.3335 777.656 68.9994 775.467 68.9994 773.005V583.857C68.9994 581.259 71.3335 579.207 73.9592 579.207H112.033C114.659 579.207 116.993 581.259 116.993 583.857V773.005ZM724.275 546.246C709.25 542.417 693.35 544.332 679.783 551.58L550.391 621.058C550.391 620.511 550.391 619.964 550.391 619.416C550.391 589.054 524.133 564.299 491.749 564.299H364.69C325.304 546.793 290.002 538.724 256.888 539.955C219.398 541.186 184.096 554.726 152.003 580.164H142.667C140.625 565.941 127.788 554.863 112.033 554.863H73.9592C57.0376 554.863 43.1794 567.855 43.1794 583.857V773.005C43.1794 789.007 57.0376 802 73.9592 802H112.033C126.912 802 139.312 792.016 142.229 778.886L205.685 770.954C219.544 772.048 233.402 773.142 246.823 774.236C306.632 779.16 364.399 783.673 426.396 779.981C476.286 776.972 499.042 775.467 547.473 749.482L737.988 647.18C783.063 623.109 774.894 559.239 724.275 546.246ZM641.272 95.8735C645.502 101.207 644.189 108.866 638.5 112.833L587.735 147.708C582.338 151.538 574.752 150.717 570.23 145.793L550.099 123.637C545.431 118.577 546.015 110.918 551.558 106.541C556.955 102.165 565.124 102.712 569.792 107.772L582.192 121.449L623.183 93.2749C628.872 89.3087 637.041 90.4028 641.272 95.8735ZM741.197 359.149C747.178 359.149 751.846 354.773 751.846 349.165V132.8H701.227C680.95 132.8 664.612 117.346 664.612 98.472V50.8772H531.719C525.884 50.8772 521.07 55.3905 521.07 60.8612V349.165C521.07 354.773 525.884 359.149 531.719 359.149H741.197ZM690.432 67.9731L733.611 108.456H701.227C695.392 108.456 690.432 103.943 690.432 98.472V67.9731ZM25.966 194.209C25.966 287.894 107.073 364.21 206.852 364.21C306.632 364.21 387.885 287.894 387.885 194.209C387.885 100.524 306.632 24.3445 206.852 24.3445C107.073 24.3445 25.966 100.524 25.966 194.209ZM773.873 112.012L686.639 30.0887C684.305 27.7636 680.95 26.5327 677.595 26.5327H531.719C511.734 26.5327 495.25 41.9874 495.25 60.8612V349.165C495.25 368.176 511.734 383.494 531.719 383.494H626.392V436.286H219.835V388.144C327.784 381.716 413.705 297.194 413.705 194.209C413.705 87.1204 320.928 0 206.852 0C92.7772 0 0 87.1204 0 194.209C0 297.194 85.921 381.716 193.869 388.144V448.458C193.869 455.16 199.704 460.63 206.852 460.63H410.204V534.074C410.204 540.776 415.893 546.109 423.041 546.109C430.335 546.109 436.024 540.776 436.024 534.074V460.63H639.375C646.669 460.63 652.358 455.16 652.358 448.458V383.494H741.197C761.328 383.494 777.666 368.176 777.666 349.165V120.628C777.666 117.483 776.353 114.337 773.873 112.012Z" fill="white"/>
</g>
</svg>
