<svg width="723" height="686" viewBox="0 0 723 686" fill="none" xmlns="http://www.w3.org/2000/svg">
<mask id="mask0_13_8568" style="mask-type:luminance" maskUnits="userSpaceOnUse" x="0" y="0" width="723" height="686">
<path d="M0 0H723V685.447H0V0Z" fill="white"/>
</mask>
<g mask="url(#mask0_13_8568)">
<path fill-rule="evenodd" clip-rule="evenodd" d="M452.904 378.279C452.904 330.457 411.763 291.566 361.321 291.566C310.879 291.566 269.858 330.457 269.858 378.279V487.602C269.858 499.473 280.113 509.195 292.754 509.195H430.008C442.648 509.195 452.904 499.473 452.904 487.602V378.279ZM280.948 302.533C260.557 321.978 248.036 348.772 248.036 378.279V435.597H172.313C165.039 435.597 159.077 429.944 159.077 423.048V320.056C159.077 287.496 186.981 260.929 221.443 260.929C248.751 260.929 272.959 278.113 280.948 302.533ZM221.443 240.127C238.496 240.127 252.329 227.012 252.329 210.846C252.329 194.679 238.496 181.452 221.443 181.452C204.391 181.452 190.439 194.679 190.439 210.846C190.439 227.012 204.391 240.127 221.443 240.127ZM322.208 233.57C322.208 254.145 339.737 270.764 361.321 270.764C383.024 270.764 400.554 254.145 400.554 233.57C400.554 213.107 383.024 196.488 361.321 196.488C339.737 196.488 322.208 213.107 322.208 233.57ZM441.814 302.533C449.803 278.113 474.01 260.929 501.318 260.929C535.662 260.929 563.685 287.496 563.685 320.056V423.048C563.685 429.944 557.723 435.597 550.448 435.597H474.726V378.279C474.726 348.772 462.205 321.978 441.814 302.533ZM501.318 240.127C518.371 240.127 532.323 227.012 532.323 210.846C532.323 194.679 518.371 181.452 501.318 181.452C484.266 181.452 470.433 194.679 470.433 210.846C470.433 227.012 484.266 240.127 501.318 240.127ZM430.008 529.997H292.754C268.069 529.997 248.036 511.004 248.036 487.602V456.399H172.313C152.876 456.399 137.135 441.476 137.135 423.048V320.056C137.135 288.062 157.05 260.476 185.669 247.701C175.175 238.544 168.617 225.43 168.617 210.846C168.617 183.148 192.228 160.763 221.443 160.763C250.54 160.763 274.27 183.261 274.27 210.846C274.27 225.43 267.592 238.657 257.099 247.814C275.582 256.067 290.607 270.538 298.835 288.627C305.871 284.218 313.622 280.487 321.731 277.548C308.614 266.921 300.266 251.206 300.266 233.57C300.266 201.688 327.693 175.686 361.321 175.686C395.068 175.686 422.495 201.688 422.495 233.57C422.495 251.206 414.148 266.921 401.031 277.548C409.14 280.487 416.771 284.218 423.926 288.627C432.154 270.538 447.18 256.067 465.663 247.814C455.169 238.657 448.491 225.43 448.491 210.846C448.491 183.148 472.222 160.763 501.318 160.763C530.534 160.763 554.145 183.261 554.145 210.846C554.145 225.43 547.586 238.544 537.093 247.701C565.712 260.476 585.627 288.062 585.627 320.056V423.048C585.627 441.476 569.886 456.399 550.448 456.399H474.726V487.602C474.726 511.004 454.692 529.997 430.008 529.997ZM369.669 543.451L398.169 575.219C402.104 579.628 401.508 586.185 396.857 589.803C392.326 593.534 385.409 593.081 381.474 588.672L372.292 578.497V675.046C372.292 680.698 367.403 685.447 361.321 685.447C282.737 685.447 207.968 661.818 145.244 617.388C84.4276 574.314 38.6364 513.039 16.2178 444.868C14.4291 439.328 17.6488 433.562 23.3727 431.866C29.2158 430.171 35.2975 433.223 37.0862 438.65C80.4925 570.471 205.583 660.122 350.47 664.419V578.497L341.288 588.672C337.352 593.081 330.436 593.534 325.905 589.803C321.254 586.185 320.658 579.628 324.593 575.219L352.974 543.451C357.863 538.137 366.33 539.155 369.669 543.451ZM352.974 141.883L324.593 110.115C320.658 105.819 321.254 99.2615 325.905 95.5306C330.436 91.7999 337.352 92.3651 341.288 96.6612L350.47 106.949V10.401C350.47 4.63521 355.359 0 361.321 0C440.025 0 514.793 23.5153 577.518 68.0585C638.334 111.019 684.125 172.294 706.544 240.579C708.333 246.006 705.113 251.884 699.27 253.58C693.665 255.276 687.464 252.337 685.556 246.684C642.269 114.863 517.178 25.2111 372.292 20.915V106.949L381.474 96.6612C385.409 92.3651 392.326 91.7999 396.857 95.5306C401.508 99.2615 402.104 105.819 398.169 110.115L369.788 141.883L365.853 144.709C360.844 146.631 356.671 145.387 352.974 141.883ZM47.9378 361.773C40.1867 367.991 44.9566 380.088 55.0926 380.088C57.5969 380.088 60.1011 379.183 62.1283 377.6L96.3524 349.902C101.003 345.267 100.168 338.258 95.6369 334.753L62.1283 307.846C57.4776 304.115 50.5612 304.681 46.7453 308.977C42.8101 313.386 43.2871 319.943 47.9378 323.674L58.6701 332.266H21.9417C26.5924 195.018 121.037 76.4245 260.199 35.2729C265.923 33.577 269.143 27.8113 267.354 22.2716C265.565 16.845 259.484 13.7926 253.64 15.4884C181.615 36.7426 116.982 80.1553 71.6681 137.7C24.6844 197.279 -0.119141 268.164 -0.119141 342.667C-0.119141 348.432 4.77002 353.068 10.8517 353.068H58.6701L47.9378 361.773ZM722.881 342.667C722.881 336.901 717.992 332.266 711.91 332.266H664.092L674.824 323.674C679.355 319.943 679.952 313.386 676.016 308.977C672.201 304.681 665.284 304.115 660.633 307.846L627.125 334.753C622.713 338.145 621.759 344.702 626.052 349.563L660.633 377.6C662.661 379.183 665.165 380.088 667.669 380.088C677.805 380.088 682.575 367.991 674.824 361.773L664.092 353.068H700.82C696.169 490.428 601.606 609.022 462.563 650.061C456.839 651.756 453.619 657.635 455.408 663.062C457.197 668.602 463.397 671.654 469.121 669.958C541.147 648.591 605.779 605.178 651.094 547.634C698.077 488.054 722.881 417.282 722.881 342.667Z" fill="white"/>
</g>
</svg>
