<svg width="595" height="613" viewBox="0 0 595 613" fill="none" xmlns="http://www.w3.org/2000/svg">
<path d="M453.255 495.214C464.479 495.214 478.803 487.068 490.028 472.239C496.442 463.676 501.359 454.59 502.856 445.922C505.742 431.093 499.862 424.41 495.907 421.485C492.059 418.666 483.186 414.802 469.931 421.485C462.02 425.349 454.217 432.555 447.803 440.701C441.389 449.264 436.471 458.35 435.082 467.018C432.089 481.847 437.968 488.531 441.923 491.35C445.344 494.274 449.299 495.214 453.255 495.214ZM463.517 452.606C472.389 441.119 481.262 437.359 484.148 437.359C484.683 440.179 483.186 449.786 474.314 461.274C465.548 472.761 456.675 476.521 453.682 476.521C453.255 473.179 454.644 463.676 463.517 452.606Z" fill="white"/>
<mask id="mask0_13_8401" style="mask-type:luminance" maskUnits="userSpaceOnUse" x="0" y="43" width="588" height="570">
<path d="M0 43.3389H587.837V612.386H0V43.3389Z" fill="white"/>
</mask>
<g mask="url(#mask0_13_8401)">
<path d="M541.123 232.047C544.116 238.73 546.04 245.414 548.499 252.202C529.364 267.031 518.033 298.57 516.109 303.791C515.147 303.791 514.078 303.373 512.154 302.851C509.267 300.449 502.319 291.886 496.439 284.68C496.439 284.68 496.439 284.262 495.905 284.262C479.763 265.987 454.642 272.253 453.68 272.775C443.418 275.595 439.997 281.338 438.5 285.62C435.079 296.69 444.38 307.133 446.304 309.117C447.373 310.057 449.297 312.459 437.966 322.484C437.538 323.007 437.004 323.424 436.042 323.946C435.079 324.886 433.048 326.766 432.086 327.288C421.824 320.605 413.913 322.484 410.493 323.946C405.575 325.826 402.155 329.168 400.123 333.45C396.275 342.535 401.192 353.083 402.155 355.485L411.455 372.298C415.838 379.922 423.748 385.665 432.621 387.545C432.621 388.485 432.086 389.947 431.124 391.827L405.041 412.922C404.613 413.444 404.613 413.444 404.079 413.862C395.741 422.53 395.206 432.033 395.741 435.375L393.816 461.274C392.747 470.359 386.44 475.581 386.44 476.103C385.906 476.521 385.906 476.521 385.478 477.043C370.192 493.334 356.402 505.762 344.643 513.907C341.757 515.787 337.801 516.727 334.381 516.309C330.853 515.787 327.967 513.385 325.936 510.566C323.584 506.179 321.553 502.42 321.553 502.42C321.125 501.898 321.125 500.958 320.591 500.436C313.749 492.29 314.711 484.667 314.711 484.667L317.17 469.837C318.132 463.154 317.17 456.47 314.177 450.726L306.801 436.837C304.877 443.521 301.883 449.786 298.035 455.53L296.004 458.35V458.872C296.966 461.274 297.501 463.676 296.966 466.495L294.507 481.847C294.507 483.204 292.583 497.094 303.914 511.505C304.877 512.863 306.373 516.309 308.832 520.069C313.215 527.797 321.125 533.018 329.891 534.898C331.922 535.42 334.381 535.42 336.305 535.42C343.146 535.42 350.095 533.54 355.44 529.154C368.268 520.069 382.485 506.702 398.734 490.41C401.62 488.008 411.455 478.505 412.951 463.154L414.876 436.315C414.876 435.897 414.876 435.375 414.876 434.957C414.876 434.957 414.876 431.093 417.869 427.751L444.914 406.238C445.342 405.716 446.304 404.776 446.838 404.359C447.8 402.375 453.68 393.811 451.221 383.786C449.725 378.46 446.304 374.178 440.959 371.254C439.997 370.836 438.928 370.314 437.538 370.314C433.583 369.896 430.162 367.494 428.131 364.153L418.831 347.861C418.296 346.399 417.869 344.519 417.334 343.057C417.869 343.057 418.831 343.58 420.755 344.937C433.583 353.605 444.914 343.057 449.297 339.193L450.794 337.836C467.47 323.007 470.891 309.535 460.628 298.047C459.132 296.69 458.17 294.706 457.101 293.348C457.635 293.348 457.635 293.348 458.17 292.826C458.597 292.826 472.387 289.484 480.191 298.047C497.936 320.082 501.357 321.545 503.815 321.962H504.35C523.912 328.228 530.861 316.741 533.32 311.519V310.997C535.778 303.791 543.582 285.62 552.989 274.133C557.372 292.304 559.296 311.519 559.296 331.152C559.296 455.948 469.394 560.797 349.56 587.531C278.366 524.873 197.764 564.557 182.584 572.702C151.583 559.753 123.576 541.164 100.058 518.607C86.8027 498.556 105.938 457.41 114.276 443.103C114.81 442.581 114.81 442.058 115.238 441.119C126.569 408.64 105.403 386.083 92.1477 378.982C89.2614 377.52 86.8027 375.64 84.3441 373.656C79.4267 368.852 76.4336 362.168 76.968 354.545C78.3577 311.519 57.2986 287.082 52.9158 282.8C45.9674 273.715 35.1706 268.911 27.3669 266.509C29.2911 258.886 31.7498 251.68 34.2085 244.474C42.5466 225.885 83.8096 208.654 108.396 202.388C108.824 202.388 108.824 202.388 109.358 201.97C144.207 189.021 165.373 170.85 171.787 147.875C177.667 127.302 169.329 108.609 162.915 98.0611C189.426 84.6939 218.395 75.0862 248.862 70.3868C251.32 77.0704 251.855 83.2319 249.824 88.5579C247.899 93.3617 241.058 96.1814 233.682 98.5833C220.426 103.387 210.057 108.191 200.757 113.413C190.922 119.156 186.967 132.106 192.419 143.071C197.336 152.679 207.599 157.9 221.816 157.9C222.351 157.9 223.313 157.9 223.847 157.9C239.989 157.378 254.313 149.755 265.11 143.071C265.538 142.549 266.5 142.131 267.996 140.669C279.328 132.524 287.131 128.242 292.049 128.764C297.501 128.764 301.883 124.9 302.418 119.678C302.952 114.352 298.463 110.071 293.118 109.549C280.824 109.131 267.569 117.277 256.238 125.422C255.275 125.84 254.741 126.362 254.313 126.78C245.441 132.106 234.109 138.267 222.778 138.789C220.426 138.789 211.981 138.789 210.057 134.925C209.095 133.046 209.095 130.644 210.592 129.704C218.93 124.9 227.696 120.618 239.989 116.232C248.327 113.413 262.651 108.191 267.569 94.7193C270.455 86.5737 270.455 77.4881 267.996 67.9849C274.945 67.4627 281.786 67.045 288.628 67.045C313.215 67.045 336.839 70.3868 359.395 76.1305C351.057 86.1559 339.726 103.805 342.719 119.678C342.719 120.096 342.719 120.618 343.146 121.036C344.215 123.96 346.14 133.046 344.643 139.207C344.215 140.669 342.719 142.131 340.688 141.609C327.967 140.669 309.794 141.191 296.004 146.935C282.748 152.157 275.372 166.046 277.404 179.935C278.366 186.619 277.404 189.961 276.869 189.961C272.914 192.781 260.193 200.508 250.786 202.388C249.824 202.388 248.861 202.91 247.899 202.91C235.606 205.312 210.057 211.056 211.554 231.629C211.981 238.313 214.975 244.056 220.426 247.816C229.192 254.082 243.41 255.022 263.079 250.74C263.614 250.74 309.259 241.654 335.343 248.338C335.77 248.338 335.77 248.338 336.305 248.338C348.598 250.218 365.809 256.484 365.809 263.167C365.809 264.629 364.847 265.987 363.35 267.031C355.974 272.775 341.757 281.338 324.546 276.535C319.629 274.655 277.831 260.243 230.689 266.509C229.192 266.509 192.846 270.373 172.749 305.253V305.775C167.832 315.279 163.877 330.63 166.336 346.399C172.215 342.117 178.629 338.776 185.043 335.852C185.043 324.886 188.891 316.323 189.96 313.921C204.605 288.022 231.223 285.202 232.613 285.202C277.404 278.936 317.17 293.766 317.598 294.288C317.598 294.288 318.132 294.288 318.667 294.706C345.177 302.434 367.199 288.544 375.644 282.278C381.951 277.474 385.478 270.373 385.478 263.167C385.478 237.373 346.567 230.167 339.726 229.227C309.259 221.499 261.155 231.107 259.231 231.629C239.027 235.911 233.147 232.987 232.185 232.047C231.651 231.629 231.223 231.629 231.223 229.645C231.223 228.287 233.682 224.841 251.855 221.081C253.244 220.559 254.313 220.559 255.275 220.142C270.455 216.8 287.666 204.79 288.2 204.268C295.576 199.046 298.463 189.439 296.538 176.071C295.576 170.328 298.463 165.106 303.38 163.122C311.29 159.78 324.546 158.423 339.298 159.362C350.522 159.78 361.319 152.679 363.35 141.609C365.809 130.122 362.388 117.694 361.319 114.352C359.929 104.327 372.116 88.0357 379.064 80.8299C380.026 81.3521 380.989 81.3521 381.523 81.8743C381.951 75.0862 383.02 68.9248 384.409 62.6589C356.936 53.5733 324.546 47.8296 290.659 47.8296C130.952 47.8296 0.749115 174.609 0.749115 330.108C0.749115 485.606 130.952 612.386 290.659 612.386C450.259 612.386 580.462 485.606 580.462 330.108C580.462 288.022 570.627 247.816 553.417 211.474L541.123 232.047ZM147.201 107.147C151.583 114.352 157.997 128.242 154.042 142.549C149.659 158.84 132.983 172.73 104.441 183.277C98.9892 184.739 75.899 190.901 54.84 202.388C76.968 163.644 108.824 130.644 147.201 107.147ZM24.3738 284.68C29.8256 286.56 35.7051 289.484 38.5913 293.766C39.1258 294.288 39.1258 294.706 39.5534 295.228C39.5534 295.228 59.7573 315.279 58.2607 353.083C57.7262 366.032 62.6436 378.46 72.0507 386.605C75.4715 389.947 79.4267 392.349 83.8096 394.751C86.8027 396.631 105.938 409.058 98.0271 432.973C94.1788 439.239 79.8543 465.033 77.3956 491.35C42.0121 446.862 20.4185 390.887 20.4185 330.108C20.4185 314.861 21.9151 299.509 24.3738 284.68ZM209.095 580.848C233.682 571.24 280.29 559.753 324.974 590.873C313.749 592.335 301.883 593.275 290.124 593.275C262.117 593.275 235.072 588.994 209.095 580.848Z" fill="white"/>
</g>
<mask id="mask1_13_8401" style="mask-type:luminance" maskUnits="userSpaceOnUse" x="396" y="0" width="199" height="284">
<path d="M396.275 0H595V283.949H396.275V0Z" fill="white"/>
</mask>
<g mask="url(#mask1_13_8401)">
<path d="M488.636 253.56C490.56 256.484 493.446 258.364 496.974 258.364C500.395 258.364 503.816 256.484 505.312 253.56L577.469 133.986C594.252 105.789 594.252 72.7887 577.469 44.4878C560.793 16.8135 530.327 0 496.974 0C463.087 0 433.049 16.8135 416.372 44.4878C399.696 72.7887 399.696 105.789 416.372 133.986L488.636 253.56ZM433.049 54.0955C446.304 32.0605 470.356 19.111 496.974 19.111C523.485 19.111 547.537 32.0605 560.793 54.0955C574.048 76.1305 574.048 102.447 560.793 123.96L496.974 229.645L433.049 124.378C419.793 102.447 419.793 76.1305 433.049 54.0955Z" fill="white"/>
</g>
<path d="M496.975 129.182C521.454 129.182 541.124 110.071 541.124 86.156C541.124 62.2412 521.454 43.1302 496.975 43.1302C472.388 43.1302 452.718 62.2412 452.718 86.156C452.718 110.071 472.388 129.182 496.975 129.182ZM496.975 62.2412C510.658 62.2412 521.454 72.7888 521.454 86.156C521.454 99.5233 510.658 110.071 496.975 110.071C483.185 110.071 472.388 99.5233 472.388 86.156C472.388 72.7888 483.185 62.2412 496.975 62.2412Z" fill="white"/>
<path d="M221.817 349.323C197.337 349.323 174.674 361.228 162.381 380.861C149.66 400.912 149.66 424.931 162.381 444.982L213.479 526.334C215.51 529.154 218.396 531.138 221.817 531.138C225.237 531.138 228.231 529.154 230.155 526.334L281.252 444.982C294.08 424.931 294.08 400.912 281.252 380.861C268.959 361.228 246.403 349.323 221.817 349.323ZM264.576 435.375L221.817 503.359L179.164 435.375C170.291 421.485 170.291 404.776 179.164 391.409C187.93 377.52 203.644 368.852 221.817 368.852C239.562 368.852 255.704 377.52 264.576 391.409C272.914 404.776 272.914 421.485 264.576 435.375Z" fill="white"/>
<path d="M221.815 387.545C205.673 387.545 192.418 400.494 192.418 416.263C192.418 432.032 205.673 444.982 221.815 444.982C238.064 444.982 251.319 432.032 251.319 416.263C251.319 400.494 238.064 387.545 221.815 387.545ZM221.815 425.871C216.47 425.871 211.981 421.485 211.981 416.263C211.981 411.042 216.47 406.656 221.815 406.656C227.267 406.656 231.65 411.042 231.65 416.263C231.65 421.485 227.267 425.871 221.815 425.871Z" fill="white"/>
</svg>
