<svg width="748" height="724" viewBox="0 0 748 724" fill="none" xmlns="http://www.w3.org/2000/svg">
<path d="M498.47 648.536C498.47 662.296 486.088 673.448 470.81 673.448C455.532 673.448 443.15 662.296 443.15 648.536C443.15 634.776 455.532 623.624 470.81 623.624C486.088 623.624 498.47 634.776 498.47 648.536Z" fill="white"/>
<path d="M111.23 623.624V723.272H0.589996L22.3215 583.782C27.0237 553.622 51.5674 529.05 84.3721 521.66L166.541 503.158V598.712H138.881C123.612 598.712 111.23 609.865 111.23 623.624Z" fill="white"/>
<path d="M539.96 175.208C539.96 188.968 527.578 200.12 512.3 200.12H152.72C137.442 200.12 125.06 188.968 125.06 175.208C125.06 161.448 137.442 150.296 152.72 150.296H157.726C168.578 108.992 197.271 74.1984 235.7 51.8606V81.7882C235.7 92.1101 244.985 100.472 256.445 100.472C267.905 100.472 277.19 92.1101 277.19 81.7882C277.19 81.7882 277.19 28.244 277.19 25.7362C277.19 11.9765 289.572 0.824219 304.85 0.824219H360.17C375.448 0.824219 387.83 11.9765 387.83 25.7362C387.83 22.2402 387.83 78.0763 387.83 81.7882C387.83 92.1101 397.115 100.472 408.575 100.472C420.035 100.472 429.32 92.1101 429.32 81.7882V51.8606C467.758 74.1984 496.442 108.992 507.294 150.296H512.3C527.578 150.296 539.96 161.448 539.96 175.208Z" fill="white"/>
<path d="M221.87 648.536C221.87 662.296 209.488 673.448 194.21 673.448C178.932 673.448 166.55 662.296 166.55 648.536C166.55 634.776 178.932 623.624 194.21 623.624C209.488 623.624 221.87 634.776 221.87 648.536Z" fill="white"/>
<path d="M431.201 486.243C421.612 480.613 415.49 470.914 415.49 460.152V447.339C420.478 446.766 425.604 445.96 430.749 445.13C437.12 394.575 469.316 350.248 518.524 324.348C508.916 296.53 502.176 267.59 498.47 237.488H443.15V277.339C443.15 344.22 375.189 400.662 332.51 400.662C289.831 400.662 221.87 344.22 221.87 277.339V237.488H166.55C159.617 293.789 142.956 346.345 114.346 394.284C112.539 397.307 113.019 401.085 115.951 403.278C142.218 422.95 200.452 441.675 249.53 447.347V460.16C249.53 474.46 238.724 486.916 223.327 490.387L221.87 490.719V598.712H443.15V525.529C437.397 513.048 433.34 499.878 431.201 486.243ZM332.51 511.529C312.604 511.529 294.939 502.045 284.714 486.965C288.65 478.661 291.02 469.652 291.02 460.16V429.394C305.025 434.899 319.123 438.03 332.51 438.03C345.897 438.03 359.995 434.899 374 429.394V460.168C374 469.66 376.37 478.678 380.306 486.982C370.072 502.054 352.398 511.529 332.51 511.529Z" fill="white"/>
<path d="M670.405 352.099C715.997 372.461 747.41 414.695 747.41 463.63C747.41 514.683 713.231 558.437 664.43 577.678V723.272H553.79V577.678C504.989 558.437 470.81 514.683 470.81 463.63C470.81 414.695 502.223 372.452 547.815 352.099C550.517 350.895 553.79 352.797 553.79 355.512V463.63L609.11 488.542L664.43 463.63V355.512C664.43 352.805 667.703 350.895 670.405 352.099Z" fill="white"/>
</svg>
