<svg width="673" height="864" viewBox="0 0 673 864" fill="none" xmlns="http://www.w3.org/2000/svg">
<path d="M439.929 345.978C440.188 345.978 440.443 346.031 440.682 346.132C440.92 346.234 441.137 346.383 441.319 346.571C441.502 346.759 441.646 346.982 441.744 347.228C441.842 347.473 441.892 347.736 441.892 348.001V523.013C441.892 523.278 441.842 523.541 441.744 523.786C441.646 524.032 441.502 524.255 441.319 524.443C441.137 524.631 440.92 524.78 440.682 524.881C440.443 524.983 440.188 525.036 439.929 525.036H388.795C388.273 525.036 387.772 524.822 387.403 524.443C387.033 524.064 386.826 523.549 386.826 523.013V348.001C386.826 347.465 387.033 346.95 387.403 346.571C387.772 346.191 388.273 345.978 388.795 345.978H439.929ZM477.476 393.962C476.954 393.964 476.454 394.178 476.085 394.557C475.716 394.936 475.508 395.449 475.506 395.985V523.013C475.506 523.549 475.714 524.064 476.083 524.443C476.452 524.822 476.953 525.036 477.476 525.036H528.574C528.832 525.036 529.088 524.983 529.327 524.881C529.565 524.78 529.782 524.631 529.964 524.443C530.146 524.255 530.291 524.032 530.389 523.786C530.487 523.541 530.537 523.278 530.536 523.013V395.985C530.536 395.45 530.33 394.936 529.962 394.557C529.594 394.178 529.095 393.964 528.574 393.962H477.476ZM300.087 393.962C299.565 393.964 299.065 394.178 298.696 394.557C298.327 394.936 298.119 395.449 298.117 395.985V523.013C298.117 523.549 298.325 524.064 298.694 524.443C299.064 524.822 299.565 525.036 300.087 525.036H351.178C351.437 525.037 351.694 524.985 351.933 524.884C352.172 524.782 352.39 524.633 352.573 524.445C352.756 524.257 352.901 524.034 353 523.788C353.098 523.542 353.149 523.279 353.148 523.013V395.985C353.148 395.448 352.94 394.934 352.571 394.555C352.201 394.175 351.701 393.962 351.178 393.962H300.087ZM566.17 314.736C565.648 314.738 565.148 314.952 564.779 315.331C564.41 315.71 564.202 316.223 564.2 316.759V523.013C564.2 523.549 564.408 524.064 564.777 524.443C565.147 524.822 565.647 525.036 566.17 525.036H617.268C617.527 525.036 617.782 524.983 618.021 524.881C618.259 524.78 618.476 524.631 618.658 524.443C618.841 524.255 618.985 524.032 619.083 523.786C619.181 523.541 619.232 523.278 619.231 523.013V316.759C619.231 316.224 619.024 315.71 618.656 315.331C618.288 314.952 617.789 314.738 617.268 314.736H566.17ZM656.706 540.991H260.649C258.32 541.154 256.138 542.219 254.545 543.971C252.951 545.723 252.065 548.031 252.065 550.428C252.065 552.825 252.951 555.133 254.545 556.885C256.138 558.637 258.32 559.702 260.649 559.865H656.706C659.035 559.702 661.217 558.637 662.81 556.885C664.404 555.133 665.29 552.825 665.29 550.428C665.29 548.031 664.404 545.723 662.81 543.971C661.217 542.219 659.035 541.154 656.706 540.991ZM557.428 215.036L492.076 282.366L438.944 228.453C437.085 226.476 434.859 224.9 432.398 223.82C429.936 222.739 427.29 222.174 424.613 222.159H424.479C421.854 222.155 419.254 222.686 416.83 223.721C414.407 224.757 412.207 226.276 410.36 228.191C390.233 248.832 298.245 348.51 288.164 363.418C287.339 364.482 286.779 365.736 286.532 367.073C286.285 368.409 286.359 369.787 286.747 371.087C287.114 372.027 287.704 372.858 288.464 373.504C289.224 374.15 290.129 374.589 291.097 374.783C291.561 374.895 292.037 374.951 292.514 374.951C294.777 374.74 296.906 373.754 298.557 372.149L424.131 271.241L478.141 326.028C481.92 329.838 487.012 331.961 492.307 331.934C497.603 331.906 502.673 329.732 506.414 325.883L585.233 244.678C586.487 247.526 588.537 249.928 591.123 251.577C593.709 253.226 596.714 254.048 599.756 253.94C603.493 253.81 607.076 252.381 609.919 249.887C612.762 247.392 614.696 243.981 615.405 240.21L624.615 198.811C625.12 195.64 624.899 192.391 623.968 189.323C623.037 186.255 621.422 183.453 619.252 181.138C617.133 178.813 614.506 177.037 611.589 175.957C608.671 174.877 605.546 174.523 602.469 174.925C594.677 175.878 562.344 181.815 555.636 186.042C552.886 187.766 550.705 190.3 549.377 193.315C548.049 196.329 547.636 199.684 548.19 202.944C548.615 205.597 549.686 208.097 551.305 210.21C552.924 212.323 555.038 213.981 557.449 215.029L557.428 215.036ZM470.753 177.282C456.974 144.143 437.517 113.812 413.307 87.7315C390.549 76.0074 366.334 67.5421 341.338 62.5718C354.372 94.8037 363.729 128.477 369.222 162.919C403.31 165.664 437.212 170.459 470.753 177.282ZM524.373 190.48C507.218 163.019 485.686 138.718 460.679 118.595C473.385 138.625 484.087 159.923 492.622 182.164C503.437 184.715 514.021 187.487 524.373 190.48ZM287.817 159.58C308.961 159.58 329.808 160.227 350.356 161.523C344.838 126.025 334.374 91.5289 319.285 59.094C298.378 56.6687 277.271 56.6687 256.363 59.094C243.767 83.2496 233.184 118.806 225.327 161.523C245.829 160.237 266.659 159.59 287.817 159.58ZM347.161 268.593C352.241 263.063 357.228 257.679 361.989 252.521C359.97 227.201 357.157 203.045 353.622 180.651C332.079 179.195 310.104 178.468 287.817 178.468C265.53 178.468 243.597 179.195 222.068 180.651C217.754 207.986 214.503 237.766 212.469 269.022C237.13 268.295 262.321 267.902 287.817 267.902C307.717 267.895 327.567 268.135 347.161 268.593ZM279.762 512.681V423.276C257.015 423.204 234.523 422.847 212.462 422.185C214.495 453.471 217.747 483.222 222.061 510.557C240.99 511.828 260.224 512.536 279.762 512.681ZM330.202 287.132C316.147 286.892 301.993 286.775 287.817 286.775C261.938 286.775 236.379 287.168 211.4 287.925C210.486 306.769 209.983 326.065 209.983 345.607C209.983 365.15 210.457 384.445 211.4 403.29C233.779 403.966 256.639 404.337 279.762 404.41V395.985C279.769 394.171 280.007 392.366 280.471 390.615C275.499 387.811 271.651 383.294 269.604 377.861C268.114 373.685 267.658 369.195 268.276 364.793C268.895 360.391 270.568 356.216 273.146 352.643C278.707 344.341 303.778 316.133 330.202 287.132ZM424.479 203.278H424.861C429.918 203.317 434.917 204.383 439.57 206.416C444.223 208.449 448.439 211.408 451.972 215.123L492.012 255.737L494.336 253.336C490.507 234.648 485.389 216.265 479.02 198.323C443.858 190.574 408.248 185.154 372.41 182.098C374.96 198.753 377.114 216.295 378.856 234.411C387.194 225.499 393.79 218.528 397.381 214.84C400.93 211.169 405.152 208.257 409.803 206.272C414.454 204.288 419.442 203.27 424.479 203.278ZM509.659 237.533L532.329 214.141C532.081 213.559 531.854 212.97 531.62 212.366C521.376 209.164 510.875 206.174 500.117 203.395C503.748 214.483 506.929 225.862 509.659 237.533ZM51.2682 500.72C68.4556 528.249 90.0446 552.602 115.125 572.75C102.395 552.679 91.6586 531.346 83.0763 509.072C72.2374 506.507 61.6347 503.722 51.2682 500.72ZM206.264 162.912C211.728 128.454 221.12 94.776 234.246 62.5718C209.275 67.5484 185.084 76.0136 162.349 87.7315C138.213 113.812 118.819 144.121 105.087 177.224C138.512 170.434 172.295 165.655 206.264 162.912ZM53.6201 345.6C53.6272 329.832 54.4075 314.075 55.9579 298.387C39.9051 300.17 24.5394 302.142 9.97431 304.303C6.12054 331.692 6.12054 359.508 9.97431 386.897C24.5394 389.08 39.9051 391.03 55.9579 392.813C54.4075 377.125 53.6272 361.368 53.6201 345.6ZM58.2532 412.043C42.6679 410.355 27.6636 408.485 13.396 406.447C18.537 430.943 26.7874 454.639 37.9357 476.928C50.0875 480.872 62.6218 484.509 75.5387 487.842C67.5868 463.156 61.8018 437.788 58.2532 412.043ZM233.07 550.428C233.067 542.974 235.938 535.823 241.054 530.536C235.784 530.289 230.534 530.003 225.306 529.678C233.162 572.394 243.725 607.95 256.342 632.106C277.247 634.531 298.352 634.531 319.257 632.106C327.69 615.077 334.364 597.187 339.17 578.731H260.649C253.339 578.729 246.329 575.747 241.157 570.44C235.986 565.134 233.078 557.936 233.07 550.428ZM341.395 628.628C366.372 623.652 390.568 615.185 413.307 603.461C420.684 595.66 427.586 587.399 433.971 578.724H358.355C353.961 595.782 348.291 612.467 341.395 628.628ZM105.094 513.962C118.821 547.065 138.213 577.375 162.349 603.454C185.083 615.177 209.274 623.647 234.246 628.628C221.119 596.422 211.727 562.741 206.264 528.281C172.298 525.536 138.517 520.755 105.094 513.962ZM203.104 509.094C198.974 481.905 195.885 452.481 193.958 421.559C152.87 420.017 113.524 417.456 77.1255 413.963C81.141 440.887 87.7451 467.335 96.8409 492.92C131.89 500.634 167.383 506.036 203.104 509.094ZM74.639 296.43C71.1158 329.11 71.1158 362.09 74.639 394.77C111.356 398.408 151.219 401.042 192.945 402.642C192.088 384.045 191.642 364.983 191.642 345.6C191.642 326.217 192.088 307.155 192.945 288.558C151.219 290.159 111.356 292.807 74.639 296.43ZM96.8409 198.28C87.7469 223.856 81.1428 250.294 77.1255 277.208C113.524 273.715 152.87 271.154 193.958 269.612C195.885 238.69 198.974 209.266 203.104 182.077C167.383 185.144 131.889 190.556 96.8409 198.28ZM75.5387 203.373C62.6313 206.686 50.0969 210.324 37.9357 214.287C26.7874 236.576 18.537 260.272 13.396 284.767C27.6636 282.73 42.6467 280.86 58.2532 279.172C61.8023 253.429 67.5872 228.057 75.5387 203.373ZM115.125 118.428C90.0462 138.578 68.4575 162.93 51.2682 190.458C61.6253 187.461 72.228 184.672 83.0763 182.091C91.6599 159.825 102.397 138.493 115.125 118.428Z" fill="white"/>
<path d="M3.5245 766.595H2.7468C2.7326 766.494 2.7036 766.405 2.6598 766.326C2.616 766.247 2.55978 766.18 2.49112 766.124C2.42247 766.068 2.34316 766.026 2.2532 765.996C2.16442 765.967 2.06795 765.952 1.96378 765.952C1.77557 765.952 1.61162 765.999 1.47195 766.092C1.33227 766.184 1.22396 766.319 1.14702 766.497C1.07008 766.673 1.03161 766.888 1.03161 767.14C1.03161 767.399 1.07008 767.617 1.14702 767.793C1.22514 767.969 1.33404 768.103 1.47372 768.193C1.6134 768.283 1.77498 768.327 1.95845 768.327C2.06143 768.327 2.15672 768.314 2.24432 768.287C2.3331 768.259 2.41181 768.22 2.48047 768.168C2.54912 768.114 2.60594 768.05 2.65092 767.974C2.69709 767.898 2.72905 767.812 2.7468 767.715L3.5245 767.718C3.50438 767.885 3.45407 768.046 3.37358 768.201C3.29427 768.355 3.18714 768.493 3.0522 768.615C2.91844 768.736 2.75864 768.832 2.5728 768.903C2.38814 768.973 2.17921 769.008 1.94602 769.008C1.62169 769.008 1.33168 768.934 1.07599 768.787C0.821496 768.641 0.620265 768.428 0.472301 768.15C0.325521 767.872 0.252131 767.535 0.252131 767.14C0.252131 766.743 0.326705 766.406 0.475852 766.128C0.625 765.849 0.827415 765.638 1.0831 765.492C1.33878 765.345 1.62642 765.272 1.94602 765.272C2.15672 765.272 2.35204 765.301 2.53196 765.361C2.71307 765.42 2.87346 765.506 3.01314 765.62C3.15282 765.732 3.26645 765.87 3.35405 766.033C3.44283 766.197 3.49964 766.384 3.5245 766.595ZM4.06161 768.958V766.231H4.79492V766.706H4.82333C4.87305 766.537 4.9565 766.409 5.07369 766.323C5.19087 766.235 5.32582 766.191 5.47852 766.191C5.51639 766.191 5.55723 766.194 5.60103 766.199C5.64483 766.203 5.6833 766.21 5.71644 766.218V766.889C5.68093 766.879 5.63181 766.869 5.56907 766.861C5.50633 766.853 5.44892 766.848 5.39684 766.848C5.28557 766.848 5.18614 766.873 5.09854 766.921C5.01213 766.969 4.94348 767.035 4.89258 767.12C4.84286 767.205 4.818 767.304 4.818 767.415V768.958H4.06161ZM7.22346 769.011C6.94292 769.011 6.70144 768.954 6.49902 768.841C6.29779 768.726 6.14273 768.564 6.03382 768.354C5.92492 768.143 5.87047 767.894 5.87047 767.607C5.87047 767.326 5.92492 767.08 6.03382 766.868C6.14273 766.656 6.29602 766.491 6.4937 766.373C6.69256 766.254 6.92575 766.195 7.19327 766.195C7.37319 766.195 7.54069 766.224 7.69576 766.282C7.85201 766.339 7.98813 766.425 8.10414 766.54C8.22132 766.654 8.31247 766.799 8.37757 766.973C8.44268 767.146 8.47523 767.348 8.47523 767.58V767.788H6.17232V767.319H7.76323C7.76323 767.21 7.73955 767.114 7.69221 767.03C7.64486 766.946 7.57916 766.88 7.49512 766.832C7.41226 766.784 7.31578 766.76 7.2057 766.76C7.09088 766.76 6.98908 766.786 6.9003 766.84C6.81271 766.892 6.74405 766.962 6.69434 767.051C6.64462 767.138 6.61917 767.236 6.61799 767.344V767.79C6.61799 767.924 6.64284 768.041 6.69256 768.139C6.74346 768.238 6.81507 768.313 6.9074 768.367C6.99973 768.42 7.10923 768.446 7.23588 768.446C7.31993 768.446 7.39687 768.435 7.46671 768.411C7.53655 768.387 7.59632 768.352 7.64604 768.304C7.69576 768.257 7.73364 768.199 7.75968 768.13L8.45925 768.177C8.42374 768.345 8.35094 768.491 8.24086 768.617C8.13195 768.741 7.99109 768.838 7.81827 768.908C7.64663 768.977 7.44836 769.011 7.22346 769.011ZM9.74654 769.009C9.57253 769.009 9.41747 768.979 9.28134 768.919C9.14521 768.857 9.03749 768.767 8.95819 768.647C8.88006 768.526 8.841 768.376 8.841 768.196C8.841 768.045 8.86882 767.917 8.92445 767.814C8.98008 767.711 9.05584 767.629 9.15172 767.566C9.2476 767.503 9.3565 767.456 9.47843 767.424C9.60153 767.392 9.73056 767.369 9.8655 767.356C10.0241 767.34 10.152 767.324 10.249 767.31C10.3461 767.295 10.4165 767.272 10.4603 767.243C10.5041 767.213 10.526 767.169 10.526 767.111V767.101C10.526 766.988 10.4905 766.901 10.4195 766.84C10.3496 766.778 10.2502 766.747 10.1212 766.747C9.98506 766.747 9.87675 766.777 9.79625 766.838C9.71576 766.897 9.66249 766.972 9.63645 767.062L8.93688 767.005C8.97239 766.839 9.04223 766.696 9.1464 766.575C9.25056 766.453 9.38491 766.36 9.54945 766.294C9.71517 766.228 9.90693 766.195 10.1247 766.195C10.2762 766.195 10.4213 766.213 10.5597 766.248C10.6994 766.284 10.8231 766.339 10.9308 766.413C11.0397 766.488 11.1256 766.584 11.1883 766.701C11.251 766.817 11.2824 766.956 11.2824 767.118V768.958H10.5651V768.58H10.5438C10.5 768.665 10.4414 768.74 10.368 768.805C10.2946 768.869 10.2064 768.919 10.1034 768.956C10.0004 768.992 9.88148 769.009 9.74654 769.009ZM9.96316 768.487C10.0744 768.487 10.1727 768.465 10.2579 768.422C10.3431 768.377 10.41 768.316 10.4585 768.24C10.5071 768.165 10.5313 768.079 10.5313 767.983V767.694C10.5077 767.709 10.4751 767.723 10.4337 767.736C10.3934 767.748 10.3479 767.759 10.297 767.77C10.2461 767.779 10.1952 767.788 10.1443 767.797C10.0934 767.804 10.0472 767.81 10.0058 767.816C9.91699 767.829 9.83946 767.85 9.77317 767.878C9.70688 767.907 9.65539 767.945 9.6187 767.994C9.582 768.041 9.56365 768.1 9.56365 768.171C9.56365 768.274 9.60094 768.353 9.67551 768.407C9.75127 768.461 9.84715 768.487 9.96316 768.487ZM13.3199 766.231V766.799H11.6775V766.231H13.3199ZM12.0503 765.577H12.8067V768.12C12.8067 768.19 12.8174 768.244 12.8387 768.283C12.86 768.321 12.8896 768.348 12.9275 768.363C12.9665 768.378 13.0115 768.386 13.0624 768.386C13.0979 768.386 13.1334 768.383 13.1689 768.377C13.2045 768.37 13.2317 768.365 13.2506 768.361L13.3696 768.924C13.3317 768.936 13.2784 768.95 13.2098 768.965C13.1411 768.981 13.0577 768.992 12.9594 768.995C12.7771 769.002 12.6173 768.978 12.48 768.922C12.3439 768.867 12.238 768.78 12.1622 768.663C12.0864 768.546 12.0492 768.398 12.0503 768.219V765.577ZM15.0262 769.011C14.7456 769.011 14.5042 768.954 14.3018 768.841C14.1005 768.726 13.9455 768.564 13.8366 768.354C13.7277 768.143 13.6732 767.894 13.6732 767.607C13.6732 767.326 13.7277 767.08 13.8366 766.868C13.9455 766.656 14.0988 766.491 14.2964 766.373C14.4953 766.254 14.7285 766.195 14.996 766.195C15.1759 766.195 15.3434 766.224 15.4985 766.282C15.6547 766.339 15.7909 766.425 15.9069 766.54C16.0241 766.654 16.1152 766.799 16.1803 766.973C16.2454 767.146 16.278 767.348 16.278 767.58V767.788H13.9751V767.319H15.566C15.566 767.21 15.5423 767.114 15.4949 767.03C15.4476 766.946 15.3819 766.88 15.2979 766.832C15.215 766.784 15.1185 766.76 15.0084 766.76C14.8936 766.76 14.7918 766.786 14.703 766.84C14.6154 766.892 14.5468 766.962 14.4971 767.051C14.4474 767.138 14.4219 767.236 14.4207 767.344V767.79C14.4207 767.924 14.4456 768.041 14.4953 768.139C14.5462 768.238 14.6178 768.313 14.7101 768.367C14.8025 768.42 14.912 768.446 15.0386 768.446C15.1227 768.446 15.1996 768.435 15.2694 768.411C15.3393 768.387 15.3991 768.352 15.4488 768.304C15.4985 768.257 15.5364 768.199 15.5624 768.13L16.262 768.177C16.2265 768.345 16.1537 768.491 16.0436 768.617C15.9347 768.741 15.7938 768.838 15.621 768.908C15.4494 768.977 15.2511 769.011 15.0262 769.011ZM17.7765 769.002C17.5694 769.002 17.3818 768.949 17.2137 768.842C17.0468 768.735 16.9142 768.577 16.816 768.368C16.7189 768.159 16.6704 767.902 16.6704 767.598C16.6704 767.285 16.7207 767.025 16.8213 766.818C16.9219 766.61 17.0557 766.454 17.2226 766.351C17.3907 766.247 17.5747 766.195 17.7748 766.195C17.9275 766.195 18.0547 766.221 18.1565 766.273C18.2595 766.324 18.3424 766.388 18.4051 766.465C18.469 766.541 18.5175 766.615 18.5507 766.689H18.5738V765.321H19.3284V768.958H18.5827V768.521H18.5507C18.5152 768.597 18.4649 768.672 18.3998 768.747C18.3358 768.82 18.2524 768.881 18.1494 768.929C18.0476 768.978 17.9233 769.002 17.7765 769.002ZM18.0162 768.4C18.1382 768.4 18.2412 768.367 18.3252 768.301C18.4104 768.233 18.4755 768.139 18.5205 768.019C18.5667 767.898 18.5898 767.756 18.5898 767.594C18.5898 767.432 18.5673 767.291 18.5223 767.172C18.4773 767.052 18.4122 766.96 18.327 766.895C18.2417 766.83 18.1382 766.797 18.0162 766.797C17.892 766.797 17.7872 766.831 17.702 766.898C17.6167 766.966 17.5522 767.059 17.5084 767.179C17.4646 767.298 17.4427 767.437 17.4427 767.594C17.4427 767.753 17.4646 767.893 17.5084 768.015C17.5534 768.136 17.6179 768.23 17.702 768.299C17.7872 768.367 17.892 768.4 18.0162 768.4ZM21.1217 768.958V765.321H21.8781V766.689H21.9012C21.9343 766.615 21.9823 766.541 22.045 766.465C22.1089 766.388 22.1918 766.324 22.2936 766.273C22.3966 766.221 22.5244 766.195 22.6771 766.195C22.876 766.195 23.0595 766.247 23.2275 766.351C23.3956 766.454 23.53 766.61 23.6306 766.818C23.7312 767.025 23.7815 767.285 23.7815 767.598C23.7815 767.902 23.7324 768.159 23.6341 768.368C23.5371 768.577 23.4045 768.735 23.2364 768.842C23.0695 768.949 22.8825 769.002 22.6753 769.002C22.5286 769.002 22.4037 768.978 22.3007 768.929C22.1989 768.881 22.1154 768.82 22.0503 768.747C21.9852 768.672 21.9355 768.597 21.9012 768.521H21.8675V768.958H21.1217ZM21.8621 767.594C21.8621 767.756 21.8846 767.898 21.9296 768.019C21.9746 768.139 22.0397 768.233 22.1249 768.301C22.2101 768.367 22.3137 768.4 22.4356 768.4C22.5587 768.4 22.6629 768.367 22.7481 768.299C22.8334 768.23 22.8979 768.136 22.9417 768.015C22.9867 767.893 23.0091 767.753 23.0091 767.594C23.0091 767.437 22.9872 767.298 22.9434 767.179C22.8997 767.059 22.8351 766.966 22.7499 766.898C22.6647 766.831 22.5599 766.797 22.4356 766.797C22.3125 766.797 22.2084 766.83 22.1231 766.895C22.0391 766.96 21.9746 767.052 21.9296 767.172C21.8846 767.291 21.8621 767.432 21.8621 767.594ZM24.6653 769.981C24.5694 769.981 24.4795 769.973 24.3954 769.957C24.3126 769.943 24.2439 769.925 24.1895 769.902L24.3599 769.338C24.4487 769.365 24.5286 769.38 24.5996 769.382C24.6718 769.385 24.734 769.368 24.786 769.332C24.8393 769.297 24.8825 769.237 24.9157 769.151L24.96 769.036L23.9817 766.231H24.7772L25.3418 768.233H25.3702L25.9402 766.231H26.7409L25.6809 769.253C25.63 769.399 25.5608 769.527 25.4732 769.636C25.3868 769.746 25.2773 769.831 25.1447 769.89C25.0121 769.95 24.8523 769.981 24.6653 769.981ZM30.2721 766.367C30.2579 766.224 30.1969 766.113 30.0892 766.033C29.9815 765.954 29.8353 765.915 29.6507 765.915C29.5252 765.915 29.4192 765.932 29.3328 765.968C29.2464 766.002 29.1801 766.05 29.134 766.112C29.089 766.173 29.0665 766.243 29.0665 766.321C29.0641 766.386 29.0777 766.443 29.1073 766.492C29.1381 766.54 29.1801 766.582 29.2334 766.618C29.2867 766.652 29.3482 766.682 29.4181 766.708C29.4879 766.733 29.5625 766.754 29.6418 766.772L29.9685 766.85C30.1271 766.886 30.2727 766.933 30.4053 766.992C30.5378 767.051 30.6527 767.124 30.7497 767.211C30.8468 767.297 30.922 767.399 30.9752 767.516C31.0297 767.633 31.0575 767.768 31.0587 767.919C31.0575 768.142 31.0007 768.335 30.8882 768.498C30.777 768.66 30.616 768.786 30.4053 768.876C30.1958 768.965 29.943 769.009 29.6471 769.009C29.3535 769.009 29.0979 768.964 28.8801 768.874C28.6634 768.784 28.4942 768.651 28.3722 768.475C28.2515 768.297 28.1882 768.078 28.1823 767.816H28.9262C28.9345 767.938 28.9694 768.04 29.031 768.122C29.0937 768.202 29.1772 768.263 29.2813 768.304C29.3867 768.345 29.5057 768.365 29.6382 768.365C29.7684 768.365 29.8815 768.346 29.9774 768.308C30.0744 768.27 30.1496 768.217 30.2029 768.15C30.2561 768.082 30.2828 768.005 30.2828 767.917C30.2828 767.836 30.2585 767.767 30.21 767.711C30.1626 767.656 30.0928 767.608 30.0004 767.569C29.9093 767.53 29.7974 767.495 29.6649 767.463L29.2689 767.363C28.9623 767.289 28.7203 767.172 28.5427 767.014C28.3651 766.855 28.277 766.641 28.2781 766.373C28.277 766.152 28.3356 765.96 28.4539 765.796C28.5735 765.631 28.7374 765.503 28.9458 765.41C29.1541 765.318 29.3908 765.272 29.656 765.272C29.9259 765.272 30.1614 765.318 30.3627 765.41C30.5651 765.503 30.7225 765.631 30.835 765.796C30.9474 765.96 31.0054 766.151 31.009 766.367H30.2721ZM33.3105 767.797V766.231H34.0669V768.958H33.3407V768.462H33.3123C33.2508 768.622 33.1484 768.751 33.0051 768.848C32.8631 768.945 32.6897 768.993 32.4849 768.993C32.3026 768.993 32.1422 768.952 32.0037 768.869C31.8652 768.786 31.7569 768.668 31.6788 768.516C31.6019 768.363 31.5628 768.18 31.5616 767.967V766.231H32.318V767.832C32.3192 767.993 32.3624 768.12 32.4476 768.214C32.5328 768.307 32.6471 768.354 32.7903 768.354C32.8815 768.354 32.9667 768.333 33.046 768.292C33.1253 768.249 33.1892 768.187 33.2377 768.104C33.2875 768.021 33.3117 767.919 33.3105 767.797ZM35.4284 767.381V768.958H34.672V766.231H35.3928V766.712H35.4248C35.4852 766.553 35.5864 766.428 35.7284 766.335C35.8705 766.242 36.0427 766.195 36.2451 766.195C36.4345 766.195 36.5996 766.236 36.7405 766.319C36.8814 766.402 36.9909 766.521 37.069 766.674C37.1471 766.827 37.1862 767.009 37.1862 767.221V768.958H36.4298V767.356C36.431 767.189 36.3883 767.059 36.3019 766.966C36.2155 766.871 36.0966 766.824 35.945 766.824C35.8432 766.824 35.7533 766.845 35.6752 766.889C35.5982 766.933 35.5378 766.997 35.4941 767.081C35.4514 767.164 35.4295 767.264 35.4284 767.381ZM38.56 769.009C38.386 769.009 38.2309 768.979 38.0948 768.919C37.9587 768.857 37.851 768.767 37.7717 768.647C37.6935 768.526 37.6545 768.376 37.6545 768.196C37.6545 768.045 37.6823 767.917 37.7379 767.814C37.7936 767.711 37.8693 767.629 37.9652 767.566C38.0611 767.503 38.17 767.456 38.2919 767.424C38.415 767.392 38.544 767.369 38.679 767.356C38.8376 767.34 38.9654 767.324 39.0625 767.31C39.1596 767.295 39.23 767.272 39.2738 767.243C39.3176 767.213 39.3395 767.169 39.3395 767.111V767.101C39.3395 766.988 39.304 766.901 39.233 766.84C39.1631 766.778 39.0637 766.747 38.9347 766.747C38.7985 766.747 38.6902 766.777 38.6097 766.838C38.5292 766.897 38.476 766.972 38.4499 767.062L37.7504 767.005C37.7859 766.839 37.8557 766.696 37.9599 766.575C38.064 766.453 38.1984 766.36 38.3629 766.294C38.5286 766.228 38.7204 766.195 38.9382 766.195C39.0897 766.195 39.2347 766.213 39.3732 766.248C39.5129 766.284 39.6366 766.339 39.7443 766.413C39.8532 766.488 39.939 766.584 40.0018 766.701C40.0645 766.817 40.0959 766.956 40.0959 767.118V768.958H39.3786V768.58H39.3572C39.3134 768.665 39.2549 768.74 39.1815 768.805C39.1081 768.869 39.0199 768.919 38.9169 768.956C38.8139 768.992 38.695 769.009 38.56 769.009ZM38.7766 768.487C38.8879 768.487 38.9862 768.465 39.0714 768.422C39.1566 768.377 39.2235 768.316 39.272 768.24C39.3205 768.165 39.3448 768.079 39.3448 767.983V767.694C39.3211 767.709 39.2886 767.723 39.2472 767.736C39.2069 767.748 39.1613 767.759 39.1104 767.77C39.0595 767.779 39.0086 767.788 38.9577 767.797C38.9068 767.804 38.8607 767.81 38.8192 767.816C38.7305 767.829 38.6529 767.85 38.5866 767.878C38.5204 767.907 38.4689 767.945 38.4322 767.994C38.3955 768.041 38.3771 768.1 38.3771 768.171C38.3771 768.274 38.4144 768.353 38.489 768.407C38.5647 768.461 38.6606 768.487 38.7766 768.487ZM40.6827 768.958V766.231H41.416V766.706H41.4444C41.4941 766.537 41.5776 766.409 41.6948 766.323C41.812 766.235 41.9469 766.191 42.0996 766.191C42.1375 766.191 42.1783 766.194 42.2221 766.199C42.2659 766.203 42.3044 766.21 42.3375 766.218V766.889C42.302 766.879 42.2529 766.869 42.1902 766.861C42.1274 766.853 42.07 766.848 42.0179 766.848C41.9067 766.848 41.8072 766.873 41.7196 766.921C41.6332 766.969 41.5646 767.035 41.5137 767.12C41.464 767.205 41.4391 767.304 41.4391 767.415V768.958H40.6827ZM43.6066 769.002C43.3995 769.002 43.2119 768.949 43.0438 768.842C42.8769 768.735 42.7443 768.577 42.646 768.368C42.549 768.159 42.5004 767.902 42.5004 767.598C42.5004 767.285 42.5508 767.025 42.6514 766.818C42.752 766.61 42.8857 766.454 43.0526 766.351C43.2207 766.247 43.4048 766.195 43.6048 766.195C43.7575 766.195 43.8848 766.221 43.9866 766.273C44.0896 766.324 44.1724 766.388 44.2352 766.465C44.2991 766.541 44.3476 766.615 44.3808 766.689H44.4039V765.321H45.1585V768.958H44.4127V768.521H44.3808C44.3453 768.597 44.295 768.672 44.2298 768.747C44.1659 768.82 44.0825 768.881 43.9795 768.929C43.8777 768.978 43.7534 769.002 43.6066 769.002ZM43.8463 768.4C43.9682 768.4 44.0712 768.367 44.1553 768.301C44.2405 768.233 44.3056 768.139 44.3506 768.019C44.3968 767.898 44.4198 767.756 44.4198 767.594C44.4198 767.432 44.3973 767.291 44.3524 767.172C44.3074 767.052 44.2423 766.96 44.157 766.895C44.0718 766.83 43.9682 766.797 43.8463 766.797C43.722 766.797 43.6173 766.831 43.532 766.898C43.4468 766.966 43.3823 767.059 43.3385 767.179C43.2947 767.298 43.2728 767.437 43.2728 767.594C43.2728 767.753 43.2947 767.893 43.3385 768.015C43.3835 768.136 43.448 768.23 43.532 768.299C43.6173 768.367 43.722 768.4 43.8463 768.4ZM45.7804 768.958V766.231H46.5368V768.958H45.7804ZM46.1603 765.879C46.0479 765.879 45.9514 765.842 45.8709 765.767C45.7916 765.691 45.752 765.601 45.752 765.495C45.752 765.391 45.7916 765.302 45.8709 765.227C45.9514 765.152 46.0479 765.114 46.1603 765.114C46.2728 765.114 46.3687 765.152 46.448 765.227C46.5285 765.302 46.5687 765.391 46.5687 765.495C46.5687 765.601 46.5285 765.691 46.448 765.767C46.3687 765.842 46.2728 765.879 46.1603 765.879Z" fill="white"/>
<path d="M1.76847 802.61V803.178H0.0852273V802.61H1.76847ZM0.470526 805.337V802.412C0.470526 802.215 0.508996 802.051 0.585938 801.921C0.664062 801.79 0.770597 801.693 0.90554 801.628C1.04048 801.563 1.19377 801.53 1.36541 801.53C1.48142 801.53 1.58736 801.539 1.68324 801.557C1.7803 801.574 1.85251 801.59 1.89986 801.605L1.76491 802.173C1.73532 802.163 1.69863 802.154 1.65483 802.146C1.61222 802.138 1.56842 802.134 1.52344 802.134C1.41217 802.134 1.33464 802.16 1.29084 802.212C1.24704 802.263 1.22514 802.334 1.22514 802.427V805.337H0.470526ZM2.23056 805.337V802.61H2.96387V803.085H2.99228C3.04199 802.916 3.12544 802.788 3.24263 802.702C3.35982 802.614 3.49476 802.57 3.64746 802.57C3.68534 802.57 3.72618 802.573 3.76998 802.578C3.81377 802.582 3.85224 802.589 3.88539 802.597V803.268C3.84988 803.258 3.80075 803.248 3.73801 803.24C3.67528 803.232 3.61787 803.227 3.56578 803.227C3.45452 803.227 3.35508 803.252 3.26749 803.3C3.18108 803.348 3.11242 803.414 3.06152 803.499C3.01181 803.584 2.98695 803.683 2.98695 803.794V805.337H2.23056ZM5.38175 805.39C5.10594 805.39 4.86742 805.331 4.66619 805.214C4.46615 805.096 4.31167 804.931 4.20277 804.721C4.09387 804.509 4.03942 804.263 4.03942 803.984C4.03942 803.702 4.09387 803.456 4.20277 803.245C4.31167 803.033 4.46615 802.869 4.66619 802.752C4.86742 802.633 5.10594 802.574 5.38175 802.574C5.65755 802.574 5.89548 802.633 6.09553 802.752C6.29676 802.869 6.45182 803.033 6.56072 803.245C6.66963 803.456 6.72408 803.702 6.72408 803.984C6.72408 804.263 6.66963 804.509 6.56072 804.721C6.45182 804.931 6.29676 805.096 6.09553 805.214C5.89548 805.331 5.65755 805.39 5.38175 805.39ZM5.3853 804.804C5.51077 804.804 5.61553 804.769 5.69957 804.698C5.78362 804.625 5.84695 804.527 5.88956 804.403C5.93336 804.279 5.95526 804.137 5.95526 803.978C5.95526 803.82 5.93336 803.678 5.88956 803.554C5.84695 803.43 5.78362 803.332 5.69957 803.259C5.61553 803.187 5.51077 803.151 5.3853 803.151C5.25864 803.151 5.15211 803.187 5.0657 803.259C4.98047 803.332 4.91596 803.43 4.87216 803.554C4.82955 803.678 4.80824 803.82 4.80824 803.978C4.80824 804.137 4.82955 804.279 4.87216 804.403C4.91596 804.527 4.98047 804.625 5.0657 804.698C5.15211 804.769 5.25864 804.804 5.3853 804.804ZM7.21591 805.337V802.61H7.93679V803.091H7.96875C8.02557 802.931 8.12027 802.805 8.25284 802.713C8.38542 802.62 8.54403 802.574 8.72869 802.574C8.91572 802.574 9.07493 802.621 9.20632 802.714C9.33771 802.807 9.42531 802.932 9.46911 803.091H9.49751C9.55315 802.934 9.65376 802.81 9.79936 802.716C9.94614 802.621 10.1196 802.574 10.3196 802.574C10.5741 802.574 10.7807 802.655 10.9393 802.817C11.0991 802.978 11.179 803.207 11.179 803.503V805.337H10.4244V803.652C10.4244 803.5 10.3841 803.387 10.3036 803.311C10.2231 803.235 10.1225 803.197 10.0018 803.197C9.86446 803.197 9.75734 803.241 9.6804 803.329C9.60346 803.415 9.56499 803.529 9.56499 803.671V805.337H8.83168V803.636C8.83168 803.502 8.79321 803.396 8.71626 803.316C8.64051 803.237 8.54048 803.197 8.41619 803.197C8.33215 803.197 8.25639 803.219 8.18892 803.261C8.12263 803.303 8.06996 803.361 8.03089 803.437C7.99183 803.512 7.9723 803.599 7.9723 803.7V805.337H7.21591ZM14.3843 802.61V803.178H12.7419V802.61H14.3843ZM13.1148 801.956H13.8712V804.499C13.8712 804.569 13.8818 804.623 13.9031 804.662C13.9244 804.7 13.954 804.727 13.9919 804.742C14.031 804.757 14.076 804.765 14.1269 804.765C14.1624 804.765 14.1979 804.762 14.2334 804.756C14.2689 804.749 14.2961 804.744 14.3151 804.74L14.434 805.303C14.3962 805.315 14.3429 805.329 14.2742 805.344C14.2056 805.36 14.1221 805.371 14.0239 805.374C13.8416 805.381 13.6818 805.357 13.5445 805.301C13.4084 805.246 13.3024 805.159 13.2267 805.042C13.1509 804.925 13.1136 804.777 13.1148 804.598V801.956ZM15.692 803.76V805.337H14.9356V801.7H15.6707V803.091H15.7027C15.7642 802.93 15.8637 802.804 16.001 802.713C16.1383 802.62 16.3105 802.574 16.5177 802.574C16.7071 802.574 16.8722 802.615 17.0131 802.698C17.1551 802.78 17.2652 802.898 17.3433 803.052C17.4226 803.204 17.4617 803.387 17.4605 803.6V805.337H16.7041V803.735C16.7053 803.567 16.6627 803.436 16.5763 803.343C16.491 803.249 16.3715 803.203 16.2176 803.203C16.1146 803.203 16.0235 803.224 15.9442 803.268C15.866 803.312 15.8045 803.376 15.7595 803.46C15.7157 803.543 15.6932 803.643 15.692 803.76ZM19.2987 805.39C19.0181 805.39 18.7766 805.333 18.5742 805.22C18.373 805.105 18.2179 804.943 18.109 804.733C18.0001 804.522 17.9457 804.273 17.9457 803.986C17.9457 803.705 18.0001 803.459 18.109 803.247C18.2179 803.035 18.3712 802.87 18.5689 802.752C18.7678 802.633 19.0009 802.574 19.2685 802.574C19.4484 802.574 19.6159 802.603 19.771 802.661C19.9272 802.718 20.0633 802.804 20.1793 802.918C20.2965 803.033 20.3877 803.178 20.4528 803.352C20.5179 803.525 20.5504 803.727 20.5504 803.959V804.167H18.2475V803.698H19.8384C19.8384 803.589 19.8147 803.493 19.7674 803.409C19.7201 803.324 19.6544 803.259 19.5703 803.211C19.4875 803.163 19.391 803.139 19.2809 803.139C19.1661 803.139 19.0643 803.165 18.9755 803.219C18.8879 803.271 18.8192 803.341 18.7695 803.43C18.7198 803.517 18.6944 803.615 18.6932 803.723V804.168C18.6932 804.303 18.718 804.42 18.7678 804.518C18.8187 804.617 18.8903 804.692 18.9826 804.746C19.0749 804.799 19.1844 804.825 19.3111 804.825C19.3951 804.825 19.4721 804.814 19.5419 804.79C19.6117 804.766 19.6715 804.731 19.7212 804.683C19.771 804.636 19.8088 804.578 19.8349 804.509L20.5344 804.556C20.4989 804.724 20.4261 804.87 20.3161 804.996C20.2071 805.12 20.0663 805.217 19.8935 805.287C19.7218 805.356 19.5236 805.39 19.2987 805.39ZM25.257 801.7V805.337H24.593L23.0109 803.048H22.9843V805.337H22.2155V801.7H22.8902L24.4598 803.987H24.4917V801.7H25.257ZM27.1103 805.39C26.8345 805.39 26.5959 805.331 26.3947 805.214C26.1947 805.096 26.0402 804.931 25.9313 804.721C25.8224 804.509 25.7679 804.263 25.7679 803.984C25.7679 803.702 25.8224 803.456 25.9313 803.245C26.0402 803.033 26.1947 802.869 26.3947 802.752C26.5959 802.633 26.8345 802.574 27.1103 802.574C27.3861 802.574 27.624 802.633 27.824 802.752C28.0253 802.869 28.1803 803.033 28.2892 803.245C28.3981 803.456 28.4526 803.702 28.4526 803.984C28.4526 804.263 28.3981 804.509 28.2892 804.721C28.1803 804.931 28.0253 805.096 27.824 805.214C27.624 805.331 27.3861 805.39 27.1103 805.39ZM27.1138 804.804C27.2393 804.804 27.344 804.769 27.4281 804.698C27.5121 804.625 27.5755 804.527 27.6181 804.403C27.6619 804.279 27.6838 804.137 27.6838 803.978C27.6838 803.82 27.6619 803.678 27.6181 803.554C27.5755 803.43 27.5121 803.332 27.4281 803.259C27.344 803.187 27.2393 803.151 27.1138 803.151C26.9872 803.151 26.8806 803.187 26.7942 803.259C26.709 803.332 26.6445 803.43 26.6007 803.554C26.5581 803.678 26.5368 803.82 26.5368 803.978C26.5368 804.137 26.5581 804.279 26.6007 804.403C26.6445 804.527 26.709 804.625 26.7942 804.698C26.8806 804.769 26.9872 804.804 27.1138 804.804ZM30.6934 804.176V802.61H31.4498V805.337H30.7235V804.841H30.6951C30.6336 805.001 30.5312 805.13 30.388 805.227C30.2459 805.324 30.0725 805.372 29.8677 805.372C29.6854 805.372 29.525 805.331 29.3865 805.248C29.248 805.165 29.1397 805.047 29.0616 804.895C28.9847 804.742 28.9456 804.559 28.9444 804.346V802.61H29.7008V804.211C29.702 804.372 29.7452 804.499 29.8304 804.593C29.9157 804.686 30.0299 804.733 30.1731 804.733C30.2643 804.733 30.3495 804.712 30.4288 804.671C30.5081 804.628 30.572 804.566 30.6206 804.483C30.6703 804.4 30.6945 804.297 30.6934 804.176ZM32.8112 803.76V805.337H32.0548V802.61H32.7757V803.091H32.8076C32.868 802.932 32.9692 802.807 33.1112 802.714C33.2533 802.621 33.4255 802.574 33.6279 802.574C33.8173 802.574 33.9825 802.615 34.1233 802.698C34.2642 802.781 34.3737 802.9 34.4518 803.053C34.5299 803.206 34.569 803.388 34.569 803.6V805.337H33.8126V803.735C33.8138 803.568 33.7712 803.438 33.6847 803.345C33.5983 803.25 33.4794 803.203 33.3279 803.203C33.2261 803.203 33.1361 803.224 33.058 803.268C32.981 803.312 32.9207 803.376 32.8769 803.46C32.8343 803.543 32.8124 803.643 32.8112 803.76ZM36.3366 805.337V801.7H37.7712C38.047 801.7 38.282 801.753 38.4761 801.858C38.6702 801.963 38.8182 802.108 38.92 802.293C39.023 802.478 39.0745 802.691 39.0745 802.933C39.0745 803.174 39.0224 803.387 38.9182 803.572C38.8141 803.757 38.6631 803.9 38.4655 804.003C38.269 804.106 38.031 804.158 37.7517 804.158H36.8373V803.542H37.6274C37.7754 803.542 37.8973 803.516 37.9932 803.465C38.0902 803.413 38.1624 803.342 38.2098 803.25C38.2583 803.158 38.2826 803.052 38.2826 802.933C38.2826 802.812 38.2583 802.707 38.2098 802.617C38.1624 802.525 38.0902 802.455 37.9932 802.405C37.8961 802.354 37.773 802.329 37.6238 802.329H37.1054V805.337H36.3366ZM39.5597 805.337V802.61H40.293V803.085H40.3214C40.3711 802.916 40.4545 802.788 40.5717 802.702C40.6889 802.614 40.8239 802.57 40.9766 802.57C41.0144 802.57 41.0553 802.573 41.0991 802.578C41.1429 802.582 41.1813 802.589 41.2145 802.597V803.268C41.179 803.258 41.1299 803.248 41.0671 803.24C41.0044 803.232 40.947 803.227 40.8949 803.227C40.7836 803.227 40.6842 803.252 40.5966 803.3C40.5102 803.348 40.4415 803.414 40.3906 803.499C40.3409 803.584 40.3161 803.683 40.3161 803.794V805.337H39.5597ZM42.7108 805.39C42.435 805.39 42.1965 805.331 41.9953 805.214C41.7952 805.096 41.6408 804.931 41.5319 804.721C41.423 804.509 41.3685 804.263 41.3685 803.984C41.3685 803.702 41.423 803.456 41.5319 803.245C41.6408 803.033 41.7952 802.869 41.9953 802.752C42.1965 802.633 42.435 802.574 42.7108 802.574C42.9867 802.574 43.2246 802.633 43.4246 802.752C43.6259 802.869 43.7809 803.033 43.8898 803.245C43.9987 803.456 44.0532 803.702 44.0532 803.984C44.0532 804.263 43.9987 804.509 43.8898 804.721C43.7809 804.931 43.6259 805.096 43.4246 805.214C43.2246 805.331 42.9867 805.39 42.7108 805.39ZM42.7144 804.804C42.8399 804.804 42.9446 804.769 43.0287 804.698C43.1127 804.625 43.176 804.527 43.2187 804.403C43.2625 804.279 43.2844 804.137 43.2844 803.978C43.2844 803.82 43.2625 803.678 43.2187 803.554C43.176 803.43 43.1127 803.332 43.0287 803.259C42.9446 803.187 42.8399 803.151 42.7144 803.151C42.5877 803.151 42.4812 803.187 42.3948 803.259C42.3096 803.332 42.2451 803.43 42.2013 803.554C42.1586 803.678 42.1373 803.82 42.1373 803.978C42.1373 804.137 42.1586 804.279 42.2013 804.403C42.2451 804.527 42.3096 804.625 42.3948 804.698C42.4812 804.769 42.5877 804.804 42.7144 804.804ZM44.545 802.61H45.3014V805.472C45.3014 805.682 45.26 805.853 45.1771 805.983C45.0943 806.113 44.9753 806.209 44.8202 806.269C44.6663 806.329 44.4823 806.36 44.268 806.36C44.242 806.36 44.2171 806.359 44.1934 806.358C44.1686 806.358 44.1425 806.357 44.1153 806.356V805.765C44.1354 805.766 44.1532 805.766 44.1686 805.766C44.1828 805.768 44.1982 805.768 44.2148 805.768C44.3367 805.768 44.4219 805.742 44.4704 805.69C44.5202 805.639 44.545 805.562 44.545 805.459V802.61ZM44.9214 802.258C44.8102 802.258 44.7143 802.221 44.6338 802.146C44.5533 802.07 44.5131 801.98 44.5131 801.874C44.5131 801.77 44.5533 801.681 44.6338 801.606C44.7143 801.531 44.8102 801.493 44.9214 801.493C45.0351 801.493 45.1315 801.531 45.2108 801.606C45.2913 801.681 45.3316 801.77 45.3316 801.874C45.3316 801.98 45.2913 802.07 45.2108 802.146C45.1315 802.221 45.0351 802.258 44.9214 802.258ZM47.1502 805.39C46.8697 805.39 46.6282 805.333 46.4258 805.22C46.2246 805.105 46.0695 804.943 45.9606 804.733C45.8517 804.522 45.7972 804.273 45.7972 803.986C45.7972 803.705 45.8517 803.459 45.9606 803.247C46.0695 803.035 46.2228 802.87 46.4205 802.752C46.6193 802.633 46.8525 802.574 47.12 802.574C47.3 802.574 47.4674 802.603 47.6225 802.661C47.7788 802.718 47.9149 802.804 48.0309 802.918C48.1481 803.033 48.2392 803.178 48.3043 803.352C48.3694 803.525 48.402 803.727 48.402 803.959V804.167H46.0991V803.698H47.69C47.69 803.589 47.6663 803.493 47.619 803.409C47.5716 803.324 47.5059 803.259 47.4219 803.211C47.339 803.163 47.2425 803.139 47.1325 803.139C47.0176 803.139 46.9158 803.165 46.8271 803.219C46.7395 803.271 46.6708 803.341 46.6211 803.43C46.5714 803.517 46.5459 803.615 46.5447 803.723V804.168C46.5447 804.303 46.5696 804.42 46.6193 804.518C46.6702 804.617 46.7418 804.692 46.8342 804.746C46.9265 804.799 47.036 804.825 47.1626 804.825C47.2467 804.825 47.3236 804.814 47.3935 804.79C47.4633 804.766 47.5231 804.731 47.5728 804.683C47.6225 804.636 47.6604 804.578 47.6864 804.509L48.386 804.556C48.3505 804.724 48.2777 804.87 48.1676 804.996C48.0587 805.12 47.9179 805.217 47.745 805.287C47.5734 805.356 47.3751 805.39 47.1502 805.39ZM50.1278 805.39C49.8485 805.39 49.6082 805.331 49.407 805.213C49.2069 805.093 49.053 804.927 48.9453 804.715C48.8388 804.503 48.7855 804.26 48.7855 803.984C48.7855 803.704 48.8394 803.459 48.9471 803.249C49.056 803.037 49.2105 802.872 49.4105 802.753C49.6106 802.634 49.8485 802.574 50.1243 802.574C50.3622 802.574 50.5705 802.617 50.7493 802.704C50.928 802.79 51.0695 802.911 51.1737 803.068C51.2778 803.224 51.3352 803.407 51.3459 803.618H50.6321C50.612 803.482 50.5587 803.372 50.4723 803.29C50.3871 803.206 50.2752 803.163 50.1367 803.163C50.0195 803.163 49.9171 803.195 49.8295 803.259C49.7431 803.322 49.6757 803.414 49.6271 803.535C49.5786 803.655 49.5543 803.802 49.5543 803.973C49.5543 804.147 49.578 804.295 49.6254 804.417C49.6739 804.539 49.742 804.632 49.8295 804.696C49.9171 804.76 50.0195 804.792 50.1367 804.792C50.2231 804.792 50.3007 804.774 50.3693 804.738C50.4392 804.703 50.4966 804.651 50.5415 804.584C50.5877 804.515 50.6179 804.433 50.6321 804.337H51.3459C51.334 804.545 51.2772 804.729 51.1754 804.888C51.0748 805.045 50.9357 805.168 50.7582 805.257C50.5806 805.346 50.3705 805.39 50.1278 805.39ZM53.2808 802.61V803.178H51.6384V802.61H53.2808ZM52.0113 801.956H52.7677V804.499C52.7677 804.569 52.7783 804.623 52.7996 804.662C52.8209 804.7 52.8505 804.727 52.8884 804.742C52.9275 804.757 52.9724 804.765 53.0233 804.765C53.0589 804.765 53.0944 804.762 53.1299 804.756C53.1654 804.749 53.1926 804.744 53.2116 804.74L53.3305 805.303C53.2926 805.315 53.2394 805.329 53.1707 805.344C53.1021 805.36 53.0186 805.371 52.9204 805.374C52.7381 805.381 52.5783 805.357 52.441 805.301C52.3048 805.246 52.1989 805.159 52.1231 805.042C52.0474 804.925 52.0101 804.777 52.0113 804.598V801.956Z" fill="white"/>
</svg>
