<svg width="710" height="680" viewBox="0 0 710 680" fill="none" xmlns="http://www.w3.org/2000/svg">
<mask id="mask0_13_8732" style="mask-type:luminance" maskUnits="userSpaceOnUse" x="0" y="213" width="710" height="467">
<path d="M0 213.398H710V679.387H0V213.398Z" fill="white"/>
</mask>
<g mask="url(#mask0_13_8732)">
<path d="M649.483 247.578C647.924 242.679 642.989 238.919 636.756 238.919H72.8596C66.7557 238.919 61.5609 242.451 60.2622 247.578L1.30117 454.709C0.262211 458.127 1.30116 461.659 3.63883 464.508C6.10634 467.242 10.0025 469.065 13.8986 469.065H286.886V611.254H219.093C211.691 611.254 206.106 616.153 206.106 622.533V667.993C206.106 674.487 211.691 679.386 219.093 679.386H507.275C514.678 679.386 520.262 674.487 520.262 667.993V622.533C520.262 616.153 514.678 611.254 507.275 611.254H422.989V469.065H696.106C700.262 469.065 703.898 467.242 706.236 464.508C708.704 461.887 709.743 458.127 708.704 454.709L649.483 247.578ZM409.873 446.392H367.924V395.236H451.95L459.353 446.392H409.873ZM250.652 446.392L257.925 395.236H342.08V446.392H250.652ZM164.808 329.61H241.171L235.067 372.107H155.976L164.808 329.61ZM129.613 372.449H51.6908L63.509 330.066H138.704L129.613 372.449ZM439.223 306.937H367.795V261.478H432.6L439.223 306.937ZM458.963 261.478H530.262L540.132 306.937H465.847L458.963 261.478ZM367.924 329.61H442.73L448.704 372.107H368.184L367.924 329.61ZM342.08 372.449H261.431L267.535 330.066H342.21V372.449H342.08ZM342.08 306.937H270.522L277.015 261.478H341.821V306.937H342.08ZM244.158 306.937H169.873L179.743 261.478H251.041L244.158 306.937ZM231.821 395.236L224.548 446.392H140.002L150.782 395.236H231.821ZM477.665 395.236H558.314L569.093 446.392H484.808L477.665 395.236ZM474.678 372.449L468.574 330.066H544.938L554.028 372.449H474.678ZM571.041 329.61H646.236L658.054 372.107H580.132L571.041 329.61ZM639.743 306.937H566.236L556.366 261.478H626.626L639.743 306.937ZM82.9895 261.478H153.249L143.249 306.937H70.0025L82.9895 261.478ZM45.1973 395.236H124.678L113.899 446.392H30.5219L45.1973 395.236ZM494.158 656.713H231.821V633.927H494.158V656.713ZM396.886 611.254H312.6V469.065H396.886V611.254ZM595.717 446.392L584.808 395.236H664.418L678.834 446.392H595.717Z" fill="white"/>
</g>
<mask id="mask1_13_8732" style="mask-type:luminance" maskUnits="userSpaceOnUse" x="197" y="0" width="333" height="156">
<path d="M197.143 0H529.61V155.064H197.143V0Z" fill="white"/>
</mask>
<g mask="url(#mask1_13_8732)">
<path d="M354.934 146.974C440.518 146.974 509.739 86.0199 509.739 11.2795C509.739 4.89926 504.025 0.00012207 496.752 0.00012207H212.856C205.454 0.00012207 199.869 4.89926 199.869 11.2795C200.129 86.3617 269.48 146.974 354.934 146.974ZM482.856 22.6729C476.233 80.4372 420.908 124.188 354.544 124.188C288.441 124.188 232.986 80.3232 226.233 22.6729H482.856Z" fill="white"/>
</g>
<mask id="mask2_13_8732" style="mask-type:luminance" maskUnits="userSpaceOnUse" x="97" y="0" width="101" height="39">
<path d="M97.4023 0H197.143V38.3956H97.4023V0Z" fill="white"/>
</mask>
<g mask="url(#mask2_13_8732)">
<path d="M128.178 31.446H175.062C182.334 31.446 187.919 26.4329 187.919 20.0526C187.919 13.5584 182.334 8.65929 175.062 8.65929H128.178C120.776 8.65929 115.191 13.5584 115.191 20.0526C115.191 26.4329 120.776 31.446 128.178 31.446Z" fill="white"/>
</g>
<mask id="mask3_13_8732" style="mask-type:luminance" maskUnits="userSpaceOnUse" x="496" y="0" width="101" height="39">
<path d="M496.361 0H596.102V38.3956H496.361V0Z" fill="white"/>
</mask>
<g mask="url(#mask3_13_8732)">
<path d="M534.542 31.4459H581.425C588.698 31.4459 594.412 26.4328 594.412 20.0525C594.412 13.5583 588.698 8.65916 581.425 8.65916H534.542C527.139 8.65916 521.555 13.5583 521.555 20.0525C521.555 26.4328 527.659 31.4459 534.542 31.4459Z" fill="white"/>
</g>
<path d="M342.074 169.191V208.954C342.074 215.334 347.659 220.347 354.931 220.347C362.334 220.347 367.918 215.334 367.918 208.954V169.191C367.918 162.697 362.334 157.798 354.931 157.798C347.659 157.798 342.074 162.697 342.074 169.191Z" fill="white"/>
<path d="M472.986 114.389C467.791 118.947 467.791 125.897 472.986 130.454L524.415 175.572C529.609 179.901 537.531 179.901 542.466 175.572C547.531 171.242 547.661 164.064 542.466 159.621L491.038 114.617C486.103 109.832 478.181 109.832 472.986 114.389Z" fill="white"/>
<path d="M218.18 114.389L167.011 159.279C161.817 163.837 161.817 170.9 167.011 175.458C172.206 179.901 180.258 179.901 185.453 175.458L236.752 130.34C241.946 125.783 241.946 118.719 236.752 114.162C231.427 109.832 223.375 109.832 218.18 114.389Z" fill="white"/>
</svg>
