<svg width="651" height="660" viewBox="0 0 651 660" fill="none" xmlns="http://www.w3.org/2000/svg">
<g clip-path="url(#clip0_13_7873)">
<path fill-rule="evenodd" clip-rule="evenodd" d="M334.949 490.197V624.059C334.947 626.614 333.932 629.063 332.125 630.87C330.319 632.676 327.869 633.692 325.314 633.694H277.613C272.624 633.69 267.839 631.707 264.311 628.178C260.783 624.65 258.799 619.866 258.796 614.876V567.64C238.656 562.117 219.288 554.092 201.145 543.752L167.738 577.152C164.206 580.677 159.42 582.657 154.43 582.657C149.44 582.657 144.654 580.677 141.122 577.152L73.6719 509.693C70.1468 506.162 68.167 501.375 68.167 496.385C68.167 491.395 70.1468 486.609 73.6719 483.077L107.079 449.677C96.7395 431.531 88.7165 412.16 83.1971 392.018H35.9482C30.9598 392.015 26.1767 390.032 22.6488 386.505C19.1208 382.978 17.1363 378.196 17.1309 373.207V277.803C17.1345 272.814 19.1182 268.03 22.6463 264.501C26.1745 260.973 30.9586 258.989 35.9482 258.986H83.1902C88.7066 238.845 96.7298 219.476 107.072 201.334L73.6719 167.927C70.1468 164.395 68.167 159.609 68.167 154.618C68.167 149.628 70.1468 144.842 73.6719 141.31L141.129 73.8589C144.661 70.3337 149.447 68.3539 154.437 68.3539C159.427 68.3539 164.213 70.3337 167.745 73.8589L201.151 107.266C219.294 96.9253 238.662 88.9021 258.803 83.3842V36.1345C258.806 31.1449 260.79 26.3607 264.318 22.8325C267.846 19.3043 272.63 17.3205 277.62 17.3169H325.321C327.876 17.3187 330.325 18.3344 332.132 20.1409C333.938 21.9474 334.954 24.3971 334.956 26.9519V160.813C334.956 163.369 333.941 165.819 332.134 167.626C330.327 169.433 327.876 170.448 325.321 170.448C284.198 170.448 244.759 186.785 215.681 215.863C186.603 244.942 170.267 284.382 170.267 325.505C170.267 366.629 186.603 406.068 215.681 435.147C244.759 464.226 284.198 480.562 325.321 480.562C326.586 480.562 327.839 480.812 329.008 481.296C330.177 481.78 331.239 482.49 332.134 483.384C333.029 484.279 333.738 485.341 334.223 486.51C334.707 487.679 334.949 488.932 334.949 490.197ZM460.058 374.804H334.949V335.14H541.145C543.528 346.475 550.026 356.524 559.384 363.347C568.743 370.17 580.298 373.284 591.817 372.086C603.337 370.888 614.004 365.464 621.759 356.861C629.513 348.258 633.805 337.087 633.805 325.505C633.805 313.923 629.513 302.752 621.759 294.15C614.004 285.547 603.337 280.123 591.817 278.925C580.298 277.727 568.743 280.84 559.384 287.664C550.026 294.487 543.528 304.536 541.145 315.87H334.949V276.207H460.058C462.569 276.14 464.956 275.095 466.709 273.295C468.461 271.494 469.442 269.081 469.442 266.568C469.442 264.056 468.461 261.642 466.709 259.842C464.956 258.042 462.569 256.997 460.058 256.93H334.949V217.266H415.954C417.763 217.266 419.535 216.758 421.068 215.798C422.601 214.838 423.833 213.466 424.623 211.839L475.085 124.432C486.017 127.941 497.856 127.321 508.36 122.688C518.865 118.055 527.306 109.731 532.086 99.2925C536.866 88.8539 537.653 77.0249 534.298 66.045C530.943 55.0651 523.679 45.6965 513.881 39.7127C504.082 33.7289 492.43 31.5454 481.13 33.5754C469.83 35.6055 459.667 41.7083 452.564 50.7284C445.461 59.7485 441.912 71.0598 442.588 82.5209C443.264 93.9821 448.119 104.797 456.234 112.92C456.924 113.609 457.636 114.281 458.372 114.934L410.403 197.99H325.314C308.569 197.99 291.988 201.288 276.517 207.696C261.046 214.104 246.989 223.497 235.148 235.338C223.308 247.179 213.915 261.236 207.507 276.707C201.099 292.178 197.801 308.76 197.801 325.505C197.801 342.251 201.099 358.833 207.507 374.304C213.915 389.775 223.308 403.832 235.148 415.673C246.989 427.514 261.046 436.906 276.517 443.315C291.988 449.723 308.569 453.021 325.314 453.021H410.431L458.399 536.083C457.668 536.728 456.956 537.397 456.261 538.091C448.207 546.175 443.394 556.931 442.733 568.324C442.072 579.716 445.61 590.956 452.676 599.917C459.742 608.878 469.847 614.939 481.08 616.953C492.312 618.967 503.893 616.795 513.633 610.847C523.372 604.899 530.594 595.589 533.932 584.676C537.271 573.763 536.495 562.006 531.75 551.627C527.006 541.248 518.623 532.967 508.186 528.352C497.749 523.736 485.983 523.105 475.113 526.579L424.636 439.172C423.841 437.549 422.605 436.183 421.069 435.229C419.534 434.275 417.761 433.773 415.954 433.779H334.949V394.081H460.058C462.569 394.014 464.956 392.969 466.709 391.169C468.461 389.368 469.442 386.955 469.442 384.442C469.442 381.93 468.461 379.516 466.709 377.716C464.956 375.916 462.569 374.871 460.058 374.804Z" fill="white"/>
</g>
<defs>
<clipPath id="clip0_13_7873">
<rect width="651" height="660" fill="white"/>
</clipPath>
</defs>
</svg>
