<svg width="763" height="865" viewBox="0 0 763 865" fill="none" xmlns="http://www.w3.org/2000/svg">
<g clip-path="url(#clip0_13_7845)">
<path d="M38.2061 787.544H37.4284C37.4142 787.443 37.3852 787.354 37.3414 787.276C37.2976 787.197 37.2414 787.129 37.1728 787.073C37.1041 787.018 37.0248 786.975 36.9348 786.946C36.8461 786.916 36.7496 786.901 36.6454 786.901C36.4572 786.901 36.2933 786.948 36.1536 787.041C36.0139 787.134 35.9056 787.269 35.8287 787.446C35.7517 787.623 35.7132 787.837 35.7132 788.089C35.7132 788.348 35.7517 788.566 35.8287 788.742C35.9068 788.919 36.0157 789.052 36.1554 789.142C36.295 789.232 36.4566 789.277 36.6401 789.277C36.7431 789.277 36.8384 789.263 36.926 789.236C37.0147 789.209 37.0935 789.169 37.1621 789.117C37.2308 789.064 37.2876 788.999 37.3326 788.924C37.3787 788.848 37.4107 788.761 37.4284 788.664L38.2061 788.668C38.186 788.835 38.1357 788.996 38.0552 789.151C37.9759 789.305 37.8688 789.443 37.7338 789.565C37.6001 789.685 37.4403 789.781 37.2544 789.852C37.0698 789.922 36.8609 789.957 36.6277 789.957C36.3033 789.957 36.0133 789.884 35.7576 789.737C35.5031 789.59 35.3019 789.378 35.1539 789.099C35.0072 788.821 34.9338 788.484 34.9338 788.089C34.9338 787.693 35.0083 787.355 35.1575 787.077C35.3066 786.799 35.5091 786.587 35.7647 786.441C36.0204 786.295 36.3081 786.221 36.6277 786.221C36.8384 786.221 37.0337 786.251 37.2136 786.31C37.3947 786.369 37.5551 786.456 37.6948 786.569C37.8345 786.682 37.9481 786.82 38.0357 786.983C38.1245 787.146 38.1813 787.333 38.2061 787.544ZM38.7433 789.907V787.18H39.4766V787.656H39.505C39.5547 787.487 39.6381 787.359 39.7553 787.272C39.8725 787.185 40.0075 787.141 40.1602 787.141C40.198 787.141 40.2389 787.143 40.2827 787.148C40.3265 787.153 40.3649 787.159 40.3981 787.168V787.839C40.3626 787.828 40.3134 787.819 40.2507 787.81C40.188 787.802 40.1306 787.798 40.0785 787.798C39.9672 787.798 39.8678 787.822 39.7802 787.871C39.6938 787.918 39.6251 787.984 39.5742 788.07C39.5245 788.155 39.4996 788.253 39.4996 788.364V789.907H38.7433ZM41.9051 789.96C41.6246 789.96 41.3831 789.904 41.1807 789.79C40.9794 789.675 40.8244 789.513 40.7155 789.304C40.6066 789.093 40.5521 788.844 40.5521 788.556C40.5521 788.275 40.6066 788.029 40.7155 787.817C40.8244 787.605 40.9777 787.44 41.1753 787.322C41.3742 787.204 41.6074 787.144 41.8749 787.144C42.0548 787.144 42.2223 787.173 42.3774 787.231C42.5336 787.288 42.6698 787.374 42.7858 787.489C42.903 787.604 42.9941 787.748 43.0592 787.922C43.1243 788.095 43.1569 788.297 43.1569 788.529V788.737H40.854V788.268H42.4449C42.4449 788.159 42.4212 788.063 42.3738 787.979C42.3265 787.895 42.2608 787.829 42.1768 787.782C42.0939 787.733 41.9974 787.709 41.8873 787.709C41.7725 787.709 41.6707 787.736 41.5819 787.789C41.4943 787.841 41.4257 787.911 41.376 788C41.3263 788.088 41.3008 788.186 41.2996 788.293V788.739C41.2996 788.874 41.3245 788.99 41.3742 789.089C41.4251 789.187 41.4967 789.263 41.589 789.316C41.6814 789.369 41.7909 789.396 41.9175 789.396C42.0016 789.396 42.0785 789.384 42.1483 789.36C42.2182 789.337 42.278 789.301 42.3277 789.254C42.3774 789.206 42.4153 789.148 42.4413 789.08L43.1409 789.126C43.1054 789.294 43.0326 789.441 42.9225 789.566C42.8136 789.691 42.6727 789.788 42.4999 789.858C42.3283 789.926 42.13 789.96 41.9051 789.96ZM44.4282 789.959C44.2542 789.959 44.0991 789.929 43.963 789.868C43.8269 789.807 43.7191 789.716 43.6398 789.597C43.5617 789.476 43.5226 789.325 43.5226 789.146C43.5226 788.994 43.5505 788.867 43.6061 788.764C43.6617 788.661 43.7375 788.578 43.8334 788.515C43.9292 788.452 44.0381 788.405 44.1601 788.373C44.2832 788.341 44.4122 788.319 44.5471 788.306C44.7058 788.289 44.8336 788.274 44.9307 788.259C45.0277 788.244 45.0982 788.222 45.142 788.192C45.1858 788.162 45.2077 788.119 45.2077 788.061V788.05C45.2077 787.938 45.1721 787.851 45.1011 787.789C45.0313 787.727 44.9318 787.697 44.8028 787.697C44.6667 787.697 44.5584 787.727 44.4779 787.787C44.3974 787.846 44.3441 787.921 44.3181 788.011L43.6185 787.954C43.654 787.788 43.7239 787.645 43.828 787.524C43.9322 787.402 44.0666 787.309 44.2311 787.244C44.3968 787.178 44.5886 787.144 44.8064 787.144C44.9579 787.144 45.1029 787.162 45.2414 787.198C45.3811 787.233 45.5048 787.288 45.6125 787.363C45.7214 787.437 45.8072 787.533 45.8699 787.65C45.9327 787.766 45.964 787.906 45.964 788.068V789.907H45.2467V789.529H45.2254C45.1816 789.614 45.123 789.689 45.0496 789.755C44.9762 789.818 44.8881 789.869 44.7851 789.905C44.6821 789.941 44.5631 789.959 44.4282 789.959ZM44.6448 789.437C44.7561 789.437 44.8543 789.415 44.9395 789.371C45.0248 789.326 45.0916 789.266 45.1402 789.19C45.1887 789.114 45.213 789.028 45.213 788.932V788.643C45.1893 788.658 45.1568 788.673 45.1153 788.686C45.0751 788.697 45.0295 788.709 44.9786 788.719C44.9277 788.729 44.8768 788.738 44.8259 788.746C44.775 788.753 44.7288 788.76 44.6874 788.766C44.5986 788.779 44.5211 788.799 44.4548 788.828C44.3885 788.856 44.337 788.895 44.3003 788.943C44.2636 788.99 44.2453 789.05 44.2453 789.121C44.2453 789.224 44.2826 789.302 44.3572 789.357C44.4329 789.41 44.5288 789.437 44.6448 789.437ZM48.0015 787.18V787.748H46.3591V787.18H48.0015ZM46.732 786.527H47.4884V789.069C47.4884 789.139 47.499 789.193 47.5203 789.233C47.5416 789.27 47.5712 789.297 47.6091 789.312C47.6482 789.328 47.6932 789.335 47.7441 789.335C47.7796 789.335 47.8151 789.333 47.8506 789.327C47.8861 789.32 47.9133 789.314 47.9323 789.311L48.0512 789.873C48.0133 789.885 47.9601 789.899 47.8914 789.914C47.8228 789.931 47.7393 789.941 47.6411 789.945C47.4588 789.952 47.299 789.927 47.1617 789.872C47.0255 789.816 46.9196 789.73 46.8438 789.612C46.7681 789.495 46.7308 789.347 46.732 789.169V786.527ZM49.7078 789.96C49.4273 789.96 49.1858 789.904 48.9834 789.79C48.7822 789.675 48.6271 789.513 48.5182 789.304C48.4093 789.093 48.3548 788.844 48.3548 788.556C48.3548 788.275 48.4093 788.029 48.5182 787.817C48.6271 787.605 48.7804 787.44 48.9781 787.322C49.1769 787.204 49.4101 787.144 49.6776 787.144C49.8576 787.144 50.0251 787.173 50.1801 787.231C50.3364 787.288 50.4725 787.374 50.5885 787.489C50.7057 787.604 50.7968 787.748 50.8619 787.922C50.9271 788.095 50.9596 788.297 50.9596 788.529V788.737H48.6567V788.268H50.2476C50.2476 788.159 50.2239 788.063 50.1766 787.979C50.1292 787.895 50.0635 787.829 49.9795 787.782C49.8966 787.733 49.8002 787.709 49.6901 787.709C49.5753 787.709 49.4735 787.736 49.3847 787.789C49.2971 787.841 49.2284 787.911 49.1787 788C49.129 788.088 49.1035 788.186 49.1024 788.293V788.739C49.1024 788.874 49.1272 788.99 49.1769 789.089C49.2278 789.187 49.2994 789.263 49.3918 789.316C49.4841 789.369 49.5936 789.396 49.7203 789.396C49.8043 789.396 49.8812 789.384 49.9511 789.36C50.0209 789.337 50.0807 789.301 50.1304 789.254C50.1801 789.206 50.218 789.148 50.2441 789.08L50.9436 789.126C50.9081 789.294 50.8353 789.441 50.7252 789.566C50.6163 789.691 50.4755 789.788 50.3026 789.858C50.131 789.926 49.9327 789.96 49.7078 789.96ZM52.4582 789.952C52.251 789.952 52.0634 789.898 51.8953 789.792C51.7284 789.684 51.5959 789.526 51.4976 789.318C51.4005 789.108 51.352 788.851 51.352 788.547C51.352 788.235 51.4023 787.975 51.5029 787.768C51.6035 787.559 51.7373 787.404 51.9042 787.301C52.0723 787.197 52.2564 787.144 52.4564 787.144C52.6091 787.144 52.7364 787.17 52.8382 787.223C52.9411 787.273 53.024 787.337 53.0867 787.414C53.1507 787.49 53.1992 787.565 53.2323 787.638H53.2554V786.271H54.01V789.907H53.2643V789.47H53.2323C53.1968 789.546 53.1465 789.621 53.0814 789.696C53.0175 789.769 52.934 789.83 52.8311 789.879C52.7293 789.927 52.605 789.952 52.4582 789.952ZM52.6979 789.35C52.8198 789.35 52.9228 789.317 53.0068 789.25C53.0921 789.183 53.1572 789.089 53.2021 788.968C53.2483 788.847 53.2714 788.706 53.2714 788.544C53.2714 788.381 53.2489 788.241 53.2039 788.121C53.1589 788.001 53.0938 787.909 53.0086 787.844C52.9234 787.779 52.8198 787.746 52.6979 787.746C52.5736 787.746 52.4688 787.78 52.3836 787.848C52.2984 787.915 52.2339 788.009 52.1901 788.128C52.1463 788.248 52.1244 788.386 52.1244 788.544C52.1244 788.702 52.1463 788.842 52.1901 788.964C52.2351 789.085 52.2996 789.18 52.3836 789.248C52.4688 789.316 52.5736 789.35 52.6979 789.35ZM55.8034 789.907V786.271H56.5597V787.638H56.5828C56.616 787.565 56.6639 787.49 56.7267 787.414C56.7906 787.337 56.8734 787.273 56.9752 787.223C57.0782 787.17 57.2061 787.144 57.3588 787.144C57.5576 787.144 57.7411 787.197 57.9092 787.301C58.0773 787.404 58.2116 787.559 58.3122 787.768C58.4128 787.975 58.4632 788.235 58.4632 788.547C58.4632 788.851 58.414 789.108 58.3158 789.318C58.2187 789.526 58.0861 789.684 57.9181 789.792C57.7512 789.898 57.5641 789.952 57.357 789.952C57.2102 789.952 57.0853 789.927 56.9823 789.879C56.8805 789.83 56.7971 789.769 56.732 789.696C56.6669 789.621 56.6172 789.546 56.5828 789.47H56.5491V789.907H55.8034ZM56.5438 788.544C56.5438 788.706 56.5663 788.847 56.6112 788.968C56.6562 789.089 56.7213 789.183 56.8066 789.25C56.8918 789.317 56.9954 789.35 57.1173 789.35C57.2404 789.35 57.3445 789.316 57.4298 789.248C57.515 789.18 57.5795 789.085 57.6233 788.964C57.6683 788.842 57.6908 788.702 57.6908 788.544C57.6908 788.386 57.6689 788.248 57.6251 788.128C57.5813 788.009 57.5168 787.915 57.4316 787.848C57.3463 787.78 57.2416 787.746 57.1173 787.746C56.9942 787.746 56.89 787.779 56.8048 787.844C56.7207 787.909 56.6562 788.001 56.6112 788.121C56.5663 788.241 56.5438 788.381 56.5438 788.544ZM59.3469 790.93C59.2511 790.93 59.1611 790.922 59.0771 790.907C58.9942 790.893 58.9255 790.874 58.8711 790.852L59.0415 790.287C59.1303 790.314 59.2102 790.329 59.2812 790.332C59.3535 790.334 59.4156 790.317 59.4677 790.282C59.521 790.246 59.5642 790.186 59.5973 790.101L59.6417 789.985L58.6634 787.18H59.4588L60.0234 789.183H60.0518L60.6218 787.18H61.4226L60.3626 790.202C60.3117 790.349 60.2424 790.477 60.1548 790.585C60.0684 790.696 59.9589 790.78 59.8263 790.839C59.6938 790.9 59.534 790.93 59.3469 790.93ZM62.9811 789.907V786.271H63.7499V789.273H65.3089V789.907H62.9811ZM66.5815 789.959C66.4075 789.959 66.2524 789.929 66.1163 789.868C65.9802 789.807 65.8725 789.716 65.7931 789.597C65.715 789.476 65.676 789.325 65.676 789.146C65.676 788.994 65.7038 788.867 65.7594 788.764C65.815 788.661 65.8908 788.578 65.9867 788.515C66.0826 788.452 66.1915 788.405 66.3134 788.373C66.4365 788.341 66.5655 788.319 66.7005 788.306C66.8591 788.289 66.9869 788.274 67.084 788.259C67.181 788.244 67.2515 788.222 67.2953 788.192C67.3391 788.162 67.361 788.119 67.361 788.061V788.05C67.361 787.938 67.3255 787.851 67.2544 787.789C67.1846 787.727 67.0852 787.697 66.9561 787.697C66.82 787.697 66.7117 787.727 66.6312 787.787C66.5507 787.846 66.4975 787.921 66.4714 788.011L65.7718 787.954C65.8074 787.788 65.8772 787.645 65.9814 787.524C66.0855 787.402 66.2199 787.309 66.3844 787.244C66.5501 787.178 66.7419 787.144 66.9597 787.144C67.1112 787.144 67.2562 787.162 67.3947 787.198C67.5344 787.233 67.6581 787.288 67.7658 787.363C67.8747 787.437 67.9605 787.533 68.0233 787.65C68.086 787.766 68.1174 787.906 68.1174 788.068V789.907H67.4V789.529H67.3787C67.3349 789.614 67.2763 789.689 67.2029 789.755C67.1296 789.818 67.0414 789.869 66.9384 789.905C66.8354 789.941 66.7164 789.959 66.5815 789.959ZM66.7981 789.437C66.9094 789.437 67.0076 789.415 67.0929 789.371C67.1781 789.326 67.245 789.266 67.2935 789.19C67.342 789.114 67.3663 789.028 67.3663 788.932V788.643C67.3426 788.658 67.3101 788.673 67.2686 788.686C67.2284 788.697 67.1828 788.709 67.1319 788.719C67.081 788.729 67.0301 788.738 66.9792 788.746C66.9283 788.753 66.8822 788.76 66.8407 788.766C66.752 788.779 66.6744 788.799 66.6081 788.828C66.5418 788.856 66.4904 788.895 66.4537 788.943C66.417 788.99 66.3986 789.05 66.3986 789.121C66.3986 789.224 66.4359 789.302 66.5105 789.357C66.5862 789.41 66.6821 789.437 66.7981 789.437ZM68.7042 789.907V787.18H69.4375V787.656H69.4659C69.5156 787.487 69.5991 787.359 69.7163 787.272C69.8335 787.185 69.9684 787.141 70.1211 787.141C70.159 787.141 70.1998 787.143 70.2436 787.148C70.2874 787.153 70.3259 787.159 70.359 787.168V787.839C70.3235 787.828 70.2744 787.819 70.2116 787.81C70.1489 787.802 70.0915 787.798 70.0394 787.798C69.9281 787.798 69.8287 787.822 69.7411 787.871C69.6547 787.918 69.5861 787.984 69.5352 788.07C69.4854 788.155 69.4606 788.253 69.4606 788.364V789.907H68.7042ZM73.0193 787.958L72.3268 788C72.315 787.941 72.2895 787.888 72.2504 787.84C72.2114 787.792 72.1599 787.753 72.096 787.725C72.0332 787.695 71.9581 787.681 71.8705 787.681C71.7533 787.681 71.6544 787.706 71.574 787.755C71.4935 787.804 71.4532 787.869 71.4532 787.951C71.4532 788.016 71.4793 788.071 71.5313 788.116C71.5834 788.161 71.6728 788.197 71.7994 788.224L72.2931 788.323C72.5582 788.378 72.7559 788.465 72.8861 788.586C73.0163 788.707 73.0814 788.866 73.0814 789.062C73.0814 789.241 73.0287 789.398 72.9234 789.533C72.8192 789.668 72.676 789.773 72.4937 789.849C72.3126 789.923 72.1037 789.96 71.8669 789.96C71.5059 789.96 71.2182 789.885 71.004 789.735C70.7909 789.583 70.666 789.378 70.6294 789.117L71.3733 789.078C71.3958 789.188 71.4503 789.272 71.5367 789.33C71.6231 789.387 71.7338 789.415 71.8687 789.415C72.0013 789.415 72.1078 789.39 72.1883 789.339C72.27 789.287 72.3114 789.22 72.3126 789.138C72.3114 789.07 72.2824 789.014 72.2256 788.97C72.1688 788.925 72.0812 788.89 71.9628 788.867L71.4905 788.773C71.2242 788.719 71.0259 788.627 70.8957 788.496C70.7667 788.364 70.7021 788.197 70.7021 787.993C70.7021 787.818 70.7495 787.667 70.8442 787.54C70.9401 787.414 71.0744 787.316 71.2472 787.247C71.4213 787.179 71.6249 787.144 71.858 787.144C72.2025 787.144 72.4736 787.217 72.6713 787.363C72.8701 787.508 72.9861 787.707 73.0193 787.958ZM74.7291 786.271H75.6773L76.6787 788.714H76.7213L77.7227 786.271H78.6709V789.907H77.9252V787.54H77.895L76.9539 789.889H76.4461L75.5051 787.532H75.4749V789.907H74.7291V786.271ZM80.533 789.96C80.2525 789.96 80.011 789.904 79.8086 789.79C79.6074 789.675 79.4523 789.513 79.3434 789.304C79.2345 789.093 79.18 788.844 79.18 788.556C79.18 788.275 79.2345 788.029 79.3434 787.817C79.4523 787.605 79.6056 787.44 79.8033 787.322C80.0021 787.204 80.2353 787.144 80.5028 787.144C80.6828 787.144 80.8503 787.173 81.0053 787.231C81.1616 787.288 81.2977 787.374 81.4137 787.489C81.5309 787.604 81.622 787.748 81.6871 787.922C81.7522 788.095 81.7848 788.297 81.7848 788.529V788.737H79.4819V788.268H81.0728C81.0728 788.159 81.0491 788.063 81.0018 787.979C80.9544 787.895 80.8887 787.829 80.8047 787.782C80.7218 787.733 80.6254 787.709 80.5153 787.709C80.4004 787.709 80.2987 787.736 80.2099 787.789C80.1223 787.841 80.0536 787.911 80.0039 788C79.9542 788.088 79.9287 788.186 79.9276 788.293V788.739C79.9276 788.874 79.9524 788.99 80.0021 789.089C80.053 789.187 80.1246 789.263 80.217 789.316C80.3093 789.369 80.4188 789.396 80.5455 789.396C80.6295 789.396 80.7064 789.384 80.7763 789.36C80.8461 789.337 80.9059 789.301 80.9556 789.254C81.0053 789.206 81.0432 789.148 81.0692 789.08L81.7688 789.126C81.7333 789.294 81.6605 789.441 81.5504 789.566C81.4415 789.691 81.3007 789.788 81.1278 789.858C80.9562 789.926 80.7579 789.96 80.533 789.96ZM82.2784 789.907V787.18H83.0348V789.907H82.2784ZM82.6584 786.828C82.5459 786.828 82.4495 786.791 82.369 786.717C82.2897 786.641 82.25 786.55 82.25 786.445C82.25 786.341 82.2897 786.251 82.369 786.177C82.4495 786.101 82.5459 786.063 82.6584 786.063C82.7708 786.063 82.8667 786.101 82.946 786.177C83.0265 786.251 83.0668 786.341 83.0668 786.445C83.0668 786.55 83.0265 786.641 82.946 786.717C82.8667 786.791 82.7708 786.828 82.6584 786.828ZM84.8836 789.96C84.6031 789.96 84.3616 789.904 84.1592 789.79C83.9579 789.675 83.8029 789.513 83.694 789.304C83.5851 789.093 83.5306 788.844 83.5306 788.556C83.5306 788.275 83.5851 788.029 83.694 787.817C83.8029 787.605 83.9562 787.44 84.1539 787.322C84.3527 787.204 84.5859 787.144 84.8534 787.144C85.0334 787.144 85.2008 787.173 85.3559 787.231C85.5122 787.288 85.6483 787.374 85.7643 787.489C85.8815 787.604 85.9726 787.748 86.0377 787.922C86.1028 788.095 86.1354 788.297 86.1354 788.529V788.737H83.8325V788.268H85.4234C85.4234 788.159 85.3997 788.063 85.3524 787.979C85.305 787.895 85.2393 787.829 85.1553 787.782C85.0724 787.733 84.9759 787.709 84.8659 787.709C84.751 787.709 84.6492 787.736 84.5605 787.789C84.4729 787.841 84.4042 787.911 84.3545 788C84.3048 788.088 84.2793 788.186 84.2781 788.293V788.739C84.2781 788.874 84.303 788.99 84.3527 789.089C84.4036 789.187 84.4752 789.263 84.5676 789.316C84.6599 789.369 84.7694 789.396 84.896 789.396C84.9801 789.396 85.057 789.384 85.1269 789.36C85.1967 789.337 85.2565 789.301 85.3062 789.254C85.3559 789.206 85.3938 789.148 85.4198 789.08L86.1194 789.126C86.0839 789.294 86.0111 789.441 85.901 789.566C85.7921 789.691 85.6512 789.788 85.4784 789.858C85.3068 789.926 85.1085 789.96 84.8836 789.96ZM86.629 789.907V787.18H87.3623V787.656H87.3907C87.4404 787.487 87.5239 787.359 87.6411 787.272C87.7583 787.185 87.8932 787.141 88.0459 787.141C88.0838 787.141 88.1246 787.143 88.1684 787.148C88.2122 787.153 88.2507 787.159 88.2838 787.168V787.839C88.2483 787.828 88.1992 787.819 88.1365 787.81C88.0737 787.802 88.0163 787.798 87.9642 787.798C87.853 787.798 87.7535 787.822 87.6659 787.871C87.5795 787.918 87.5109 787.984 87.46 788.07C87.4102 788.155 87.3854 788.253 87.3854 788.364V789.907H86.629ZM90.2623 787.18V787.748H88.6199V787.18H90.2623ZM88.9927 786.527H89.7491V789.069C89.7491 789.139 89.7598 789.193 89.7811 789.233C89.8024 789.27 89.832 789.297 89.8699 789.312C89.9089 789.328 89.9539 789.335 90.0048 789.335C90.0403 789.335 90.0758 789.333 90.1113 789.327C90.1468 789.32 90.1741 789.314 90.193 789.311L90.312 789.873C90.2741 789.885 90.2208 789.899 90.1522 789.914C90.0835 789.931 90.0001 789.941 89.9018 789.945C89.7195 789.952 89.5597 789.927 89.4224 789.872C89.2863 789.816 89.1803 789.73 89.1046 789.612C89.0288 789.495 88.9915 789.347 88.9927 789.169V786.527ZM91.9579 789.96C91.6821 789.96 91.4436 789.902 91.2424 789.785C91.0423 789.666 90.8878 789.502 90.7789 789.291C90.67 789.079 90.6156 788.834 90.6156 788.554C90.6156 788.273 90.67 788.026 90.7789 787.816C90.8878 787.604 91.0423 787.439 91.2424 787.322C91.4436 787.204 91.6821 787.144 91.9579 787.144C92.2337 787.144 92.4717 787.204 92.6717 787.322C92.8729 787.439 93.028 787.604 93.1369 787.816C93.2458 788.026 93.3002 788.273 93.3002 788.554C93.3002 788.834 93.2458 789.079 93.1369 789.291C93.028 789.502 92.8729 789.666 92.6717 789.785C92.4717 789.902 92.2337 789.96 91.9579 789.96ZM91.9615 789.375C92.0869 789.375 92.1917 789.339 92.2757 789.268C92.3598 789.196 92.4231 789.098 92.4657 788.973C92.5095 788.849 92.5314 788.708 92.5314 788.549C92.5314 788.39 92.5095 788.249 92.4657 788.125C92.4231 788 92.3598 787.902 92.2757 787.83C92.1917 787.758 92.0869 787.722 91.9615 787.722C91.8348 787.722 91.7283 787.758 91.6419 787.83C91.5566 787.902 91.4921 788 91.4483 788.125C91.4057 788.249 91.3844 788.39 91.3844 788.549C91.3844 788.708 91.4057 788.849 91.4483 788.973C91.4921 789.098 91.5566 789.196 91.6419 789.268C91.7283 789.339 91.8348 789.375 91.9615 789.375ZM93.8063 789.907V786.271H94.5627V787.638H94.5858C94.6189 787.565 94.6668 787.49 94.7296 787.414C94.7935 787.337 94.8764 787.273 94.9782 787.223C95.0811 787.17 95.209 787.144 95.3617 787.144C95.5605 787.144 95.744 787.197 95.9121 787.301C96.0802 787.404 96.2145 787.559 96.3152 787.768C96.4158 787.975 96.4661 788.235 96.4661 788.547C96.4661 788.851 96.417 789.108 96.3187 789.318C96.2217 789.526 96.0891 789.684 95.921 789.792C95.7541 789.898 95.5671 789.952 95.3599 789.952C95.2131 789.952 95.0882 789.927 94.9853 789.879C94.8835 789.83 94.8 789.769 94.7349 789.696C94.6698 789.621 94.6201 789.546 94.5858 789.47H94.552V789.907H93.8063ZM94.5467 788.544C94.5467 788.706 94.5692 788.847 94.6142 788.968C94.6592 789.089 94.7243 789.183 94.8095 789.25C94.8947 789.317 94.9983 789.35 95.1202 789.35C95.2433 789.35 95.3475 789.316 95.4327 789.248C95.5179 789.18 95.5824 789.085 95.6262 788.964C95.6712 788.842 95.6937 788.702 95.6937 788.544C95.6937 788.386 95.6718 788.248 95.628 788.128C95.5842 788.009 95.5197 787.915 95.4345 787.848C95.3493 787.78 95.2445 787.746 95.1202 787.746C94.9971 787.746 94.8929 787.779 94.8077 787.844C94.7237 787.909 94.6592 788.001 94.6142 788.121C94.5692 788.241 94.5467 788.381 94.5467 788.544ZM98.2137 789.96C97.9331 789.96 97.6917 789.904 97.4893 789.79C97.288 789.675 97.133 789.513 97.0241 789.304C96.9152 789.093 96.8607 788.844 96.8607 788.556C96.8607 788.275 96.9152 788.029 97.0241 787.817C97.133 787.605 97.2863 787.44 97.4839 787.322C97.6828 787.204 97.916 787.144 98.1835 787.144C98.3634 787.144 98.5309 787.173 98.686 787.231C98.8422 787.288 98.9784 787.374 99.0944 787.489C99.2116 787.604 99.3027 787.748 99.3678 787.922C99.4329 788.095 99.4655 788.297 99.4655 788.529V788.737H97.1626V788.268H98.7535C98.7535 788.159 98.7298 788.063 98.6824 787.979C98.6351 787.895 98.5694 787.829 98.4854 787.782C98.4025 787.733 98.306 787.709 98.1959 787.709C98.0811 787.709 97.9793 787.736 97.8905 787.789C97.8029 787.841 97.7343 787.911 97.6846 788C97.6349 788.088 97.6094 788.186 97.6082 788.293V788.739C97.6082 788.874 97.6331 788.99 97.6828 789.089C97.7337 789.187 97.8053 789.263 97.8976 789.316C97.99 789.369 98.0995 789.396 98.2261 789.396C98.3102 789.396 98.3871 789.384 98.4569 789.36C98.5268 789.337 98.5866 789.301 98.6363 789.254C98.686 789.206 98.7239 789.148 98.7499 789.08L99.4495 789.126C99.414 789.294 99.3412 789.441 99.2311 789.566C99.1222 789.691 98.9813 789.788 98.8085 789.858C98.6369 789.926 98.4386 789.96 98.2137 789.96ZM99.9591 789.907V787.18H100.692V787.656H100.721C100.771 787.487 100.854 787.359 100.971 787.272C101.088 787.185 101.223 787.141 101.376 787.141C101.414 787.141 101.455 787.143 101.498 787.148C101.542 787.153 101.581 787.159 101.614 787.168V787.839C101.578 787.828 101.529 787.819 101.467 787.81C101.404 787.802 101.346 787.798 101.294 787.798C101.183 787.798 101.084 787.822 100.996 787.871C100.91 787.918 100.841 787.984 100.79 788.07C100.74 788.155 100.715 788.253 100.715 788.364V789.907H99.9591ZM103.121 789.96C102.84 789.96 102.599 789.904 102.396 789.79C102.195 789.675 102.04 789.513 101.931 789.304C101.822 789.093 101.768 788.844 101.768 788.556C101.768 788.275 101.822 788.029 101.931 787.817C102.04 787.605 102.193 787.44 102.391 787.322C102.59 787.204 102.823 787.144 103.091 787.144C103.271 787.144 103.438 787.173 103.593 787.231C103.749 787.288 103.886 787.374 104.002 787.489C104.119 787.604 104.21 787.748 104.275 787.922C104.34 788.095 104.373 788.297 104.373 788.529V788.737H102.07V788.268H103.661C103.661 788.159 103.637 788.063 103.59 787.979C103.542 787.895 103.477 787.829 103.393 787.782C103.31 787.733 103.213 787.709 103.103 787.709C102.988 787.709 102.887 787.736 102.798 787.789C102.71 787.841 102.642 787.911 102.592 788C102.542 788.088 102.517 788.186 102.515 788.293V788.739C102.515 788.874 102.54 788.99 102.59 789.089C102.641 789.187 102.713 789.263 102.805 789.316C102.897 789.369 103.007 789.396 103.133 789.396C103.217 789.396 103.294 789.384 103.364 789.36C103.434 789.337 103.494 789.301 103.544 789.254C103.593 789.206 103.631 789.148 103.657 789.08L104.357 789.126C104.321 789.294 104.248 789.441 104.138 789.566C104.029 789.691 103.889 789.788 103.716 789.858C103.544 789.926 103.346 789.96 103.121 789.96ZM105.623 788.331V789.907H104.866V787.18H105.587V787.661H105.619C105.68 787.503 105.781 787.377 105.923 787.285C106.065 787.191 106.237 787.144 106.439 787.144C106.629 787.144 106.794 787.186 106.935 787.269C107.076 787.352 107.185 787.47 107.263 787.624C107.341 787.777 107.381 787.959 107.381 788.171V789.907H106.624V788.306C106.625 788.139 106.583 788.009 106.496 787.915C106.41 787.82 106.291 787.773 106.139 787.773C106.038 787.773 105.948 787.795 105.869 787.839C105.793 787.882 105.732 787.946 105.688 788.03C105.646 788.113 105.624 788.213 105.623 788.331ZM110.246 787.958L109.553 788C109.542 787.941 109.516 787.888 109.477 787.84C109.438 787.792 109.386 787.753 109.323 787.725C109.26 787.695 109.185 787.681 109.097 787.681C108.98 787.681 108.881 787.706 108.801 787.755C108.72 787.804 108.68 787.869 108.68 787.951C108.68 788.016 108.706 788.071 108.758 788.116C108.81 788.161 108.899 788.197 109.026 788.224L109.52 788.323C109.785 788.378 109.982 788.465 110.113 788.586C110.243 788.707 110.308 788.866 110.308 789.062C110.308 789.241 110.255 789.398 110.15 789.533C110.046 789.668 109.903 789.773 109.72 789.849C109.539 789.923 109.33 789.96 109.093 789.96C108.732 789.96 108.445 789.885 108.231 789.735C108.017 789.583 107.893 789.378 107.856 789.117L108.6 789.078C108.622 789.188 108.677 789.272 108.763 789.33C108.85 789.387 108.96 789.415 109.095 789.415C109.228 789.415 109.334 789.39 109.415 789.339C109.497 789.287 109.538 789.22 109.539 789.138C109.538 789.07 109.509 789.014 109.452 788.97C109.395 788.925 109.308 788.89 109.189 788.867L108.717 788.773C108.451 788.719 108.252 788.627 108.122 788.496C107.993 788.364 107.929 788.197 107.929 787.993C107.929 787.818 107.976 787.667 108.071 787.54C108.167 787.414 108.301 787.316 108.474 787.247C108.648 787.179 108.851 787.144 109.085 787.144C109.429 787.144 109.7 787.217 109.898 787.363C110.097 787.508 110.213 787.707 110.246 787.958Z" fill="white"/>
<path d="M36.4501 819.217V819.785H34.7669V819.217H36.4501ZM35.1522 821.944V819.02C35.1522 818.822 35.1906 818.658 35.2676 818.528C35.3457 818.398 35.4522 818.3 35.5872 818.235C35.7221 818.17 35.8754 818.138 36.0471 818.138C36.1631 818.138 36.269 818.146 36.3649 818.164C36.4619 818.182 36.5342 818.198 36.5815 818.212L36.4466 818.78C36.417 818.771 36.3803 818.762 36.3365 818.754C36.2939 818.745 36.2501 818.741 36.2051 818.741C36.0938 818.741 36.0163 818.767 35.9725 818.819C35.9287 818.87 35.9068 818.942 35.9068 819.034V821.944H35.1522ZM36.9122 821.944V819.217H37.6455V819.693H37.6739C37.7236 819.524 37.8071 819.396 37.9243 819.309C38.0415 819.222 38.1764 819.178 38.3291 819.178C38.367 819.178 38.4078 819.18 38.4516 819.185C38.4954 819.19 38.5339 819.196 38.567 819.205V819.876C38.5315 819.865 38.4824 819.856 38.4197 819.847C38.3569 819.839 38.2995 819.835 38.2474 819.835C38.1362 819.835 38.0367 819.859 37.9491 819.908C37.8627 819.955 37.7941 820.021 37.7432 820.107C37.6934 820.192 37.6686 820.29 37.6686 820.401V821.944H36.9122ZM40.0634 821.998C39.7876 821.998 39.5491 821.939 39.3478 821.822C39.1478 821.703 38.9933 821.539 38.8844 821.328C38.7755 821.116 38.7211 820.871 38.7211 820.591C38.7211 820.31 38.7755 820.063 38.8844 819.853C38.9933 819.641 39.1478 819.476 39.3478 819.359C39.5491 819.241 39.7876 819.182 40.0634 819.182C40.3392 819.182 40.5771 819.241 40.7772 819.359C40.9784 819.476 41.1335 819.641 41.2424 819.853C41.3513 820.063 41.4057 820.31 41.4057 820.591C41.4057 820.871 41.3513 821.116 41.2424 821.328C41.1335 821.539 40.9784 821.703 40.7772 821.822C40.5771 821.939 40.3392 821.998 40.0634 821.998ZM40.0669 821.412C40.1924 821.412 40.2972 821.376 40.3812 821.305C40.4653 821.233 40.5286 821.135 40.5712 821.01C40.615 820.886 40.6369 820.745 40.6369 820.586C40.6369 820.427 40.615 820.286 40.5712 820.162C40.5286 820.037 40.4653 819.939 40.3812 819.867C40.2972 819.795 40.1924 819.759 40.0669 819.759C39.9403 819.759 39.8337 819.795 39.7473 819.867C39.6621 819.939 39.5976 820.037 39.5538 820.162C39.5112 820.286 39.4899 820.427 39.4899 820.586C39.4899 820.745 39.5112 820.886 39.5538 821.01C39.5976 821.135 39.6621 821.233 39.7473 821.305C39.8337 821.376 39.9403 821.412 40.0669 821.412ZM41.8975 821.944V819.217H42.6184V819.698H42.6504C42.7072 819.538 42.8019 819.412 42.9345 819.32C43.0671 819.228 43.2257 819.182 43.4103 819.182C43.5974 819.182 43.7566 819.228 43.888 819.322C44.0194 819.414 44.1069 819.54 44.1507 819.698H44.1792C44.2348 819.542 44.3354 819.417 44.481 819.324C44.6278 819.229 44.8012 819.182 45.0012 819.182C45.2557 819.182 45.4623 819.263 45.6209 819.425C45.7807 819.586 45.8606 819.814 45.8606 820.11V821.944H45.106V820.259C45.106 820.108 45.0658 819.994 44.9853 819.918C44.9048 819.843 44.8042 819.805 44.6834 819.805C44.5461 819.805 44.439 819.849 44.362 819.936C44.2851 820.023 44.2466 820.137 44.2466 820.279V821.944H43.5133V820.243C43.5133 820.11 43.4748 820.003 43.3979 819.924C43.3221 819.844 43.2221 819.805 43.0978 819.805C43.0138 819.805 42.938 819.826 42.8706 819.869C42.8043 819.91 42.7516 819.969 42.7125 820.044C42.6735 820.119 42.6539 820.207 42.6539 820.307V821.944H41.8975ZM50.6711 818.308V821.944H50.007L48.425 819.656H48.3983V821.944H47.6295V818.308H48.3042L49.8738 820.595H49.9058V818.308H50.6711ZM52.5243 821.998C52.2485 821.998 52.01 821.939 51.8088 821.822C51.6087 821.703 51.4542 821.539 51.3453 821.328C51.2364 821.116 51.182 820.871 51.182 820.591C51.182 820.31 51.2364 820.063 51.3453 819.853C51.4542 819.641 51.6087 819.476 51.8088 819.359C52.01 819.241 52.2485 819.182 52.5243 819.182C52.8001 819.182 53.0381 819.241 53.2381 819.359C53.4393 819.476 53.5944 819.641 53.7033 819.853C53.8122 820.063 53.8667 820.31 53.8667 820.591C53.8667 820.871 53.8122 821.116 53.7033 821.328C53.5944 821.539 53.4393 821.703 53.2381 821.822C53.0381 821.939 52.8001 821.998 52.5243 821.998ZM52.5279 821.412C52.6533 821.412 52.7581 821.376 52.8422 821.305C52.9262 821.233 52.9895 821.135 53.0321 821.01C53.0759 820.886 53.0978 820.745 53.0978 820.586C53.0978 820.427 53.0759 820.286 53.0321 820.162C52.9895 820.037 52.9262 819.939 52.8422 819.867C52.7581 819.795 52.6533 819.759 52.5279 819.759C52.4012 819.759 52.2947 819.795 52.2083 819.867C52.123 819.939 52.0585 820.037 52.0147 820.162C51.9721 820.286 51.9508 820.427 51.9508 820.586C51.9508 820.745 51.9721 820.886 52.0147 821.01C52.0585 821.135 52.123 821.233 52.2083 821.305C52.2947 821.376 52.4012 821.412 52.5279 821.412ZM56.1074 820.783V819.217H56.8638V821.944H56.1376V821.449H56.1092C56.0476 821.609 55.9453 821.737 55.802 821.834C55.66 821.931 55.4866 821.98 55.2818 821.98C55.0995 821.98 54.9391 821.938 54.8006 821.856C54.6621 821.773 54.5538 821.655 54.4757 821.502C54.3987 821.35 54.3597 821.167 54.3585 820.954V819.217H55.1149V820.819C55.1161 820.98 55.1593 821.107 55.2445 821.2C55.3297 821.294 55.444 821.341 55.5872 821.341C55.6783 821.341 55.7636 821.32 55.8429 821.278C55.9222 821.236 55.9861 821.173 56.0346 821.09C56.0843 821.007 56.1086 820.905 56.1074 820.783ZM58.2252 820.368V821.944H57.4688V819.217H58.1897V819.698H58.2217C58.282 819.54 58.3833 819.414 58.5253 819.322C58.6673 819.228 58.8396 819.182 59.042 819.182C59.2314 819.182 59.3965 819.223 59.5374 819.306C59.6782 819.389 59.7877 819.507 59.8659 819.661C59.944 819.814 59.983 819.996 59.983 820.208V821.944H59.2267V820.343C59.2278 820.176 59.1852 820.046 59.0988 819.952C59.0124 819.857 58.8934 819.81 58.7419 819.81C58.6401 819.81 58.5502 819.832 58.472 819.876C58.3951 819.92 58.3347 819.984 58.2909 820.068C58.2483 820.15 58.2264 820.25 58.2252 820.368ZM61.7506 821.944V818.308H63.1853C63.4611 818.308 63.6961 818.361 63.8902 818.466C64.0843 818.57 64.2323 818.715 64.3341 818.901C64.4371 819.086 64.4885 819.299 64.4885 819.54C64.4885 819.782 64.4365 819.995 64.3323 820.179C64.2281 820.364 64.0772 820.508 63.8795 820.611C63.683 820.714 63.4451 820.765 63.1657 820.765H62.2513V820.149H63.0415C63.1894 820.149 63.3113 820.124 63.4072 820.073C63.5043 820.021 63.5765 819.949 63.6238 819.858C63.6724 819.766 63.6966 819.66 63.6966 819.54C63.6966 819.419 63.6724 819.314 63.6238 819.224C63.5765 819.133 63.5043 819.063 63.4072 819.013C63.3102 818.962 63.1871 818.937 63.0379 818.937H62.5194V821.944H61.7506ZM64.9737 821.944V819.217H65.707V819.693H65.7354C65.7852 819.524 65.8686 819.396 65.9858 819.309C66.103 819.222 66.2379 819.178 66.3906 819.178C66.4285 819.178 66.4693 819.18 66.5131 819.185C66.5569 819.19 66.5954 819.196 66.6286 819.205V819.876C66.593 819.865 66.5439 819.856 66.4812 819.847C66.4184 819.839 66.361 819.835 66.3089 819.835C66.1977 819.835 66.0982 819.859 66.0107 819.908C65.9242 819.955 65.8556 820.021 65.8047 820.107C65.755 820.192 65.7301 820.29 65.7301 820.401V821.944H64.9737ZM68.1249 821.998C67.8491 821.998 67.6106 821.939 67.4094 821.822C67.2093 821.703 67.0548 821.539 66.9459 821.328C66.837 821.116 66.7826 820.871 66.7826 820.591C66.7826 820.31 66.837 820.063 66.9459 819.853C67.0548 819.641 67.2093 819.476 67.4094 819.359C67.6106 819.241 67.8491 819.182 68.1249 819.182C68.4007 819.182 68.6386 819.241 68.8387 819.359C69.0399 819.476 69.195 819.641 69.3039 819.853C69.4128 820.063 69.4672 820.31 69.4672 820.591C69.4672 820.871 69.4128 821.116 69.3039 821.328C69.195 821.539 69.0399 821.703 68.8387 821.822C68.6386 821.939 68.4007 821.998 68.1249 821.998ZM68.1285 821.412C68.2539 821.412 68.3587 821.376 68.4427 821.305C68.5268 821.233 68.5901 821.135 68.6327 821.01C68.6765 820.886 68.6984 820.745 68.6984 820.586C68.6984 820.427 68.6765 820.286 68.6327 820.162C68.5901 820.037 68.5268 819.939 68.4427 819.867C68.3587 819.795 68.2539 819.759 68.1285 819.759C68.0018 819.759 67.8953 819.795 67.8089 819.867C67.7236 819.939 67.6591 820.037 67.6153 820.162C67.5727 820.286 67.5514 820.427 67.5514 820.586C67.5514 820.745 67.5727 820.886 67.6153 821.01C67.6591 821.135 67.7236 821.233 67.8089 821.305C67.8953 821.376 68.0018 821.412 68.1285 821.412ZM69.9591 819.217H70.7155V822.079C70.7155 822.29 70.674 822.46 70.5912 822.591C70.5083 822.721 70.3894 822.816 70.2343 822.877C70.0804 822.937 69.8963 822.967 69.6821 822.967C69.656 822.967 69.6312 822.966 69.6075 822.965C69.5827 822.965 69.5566 822.965 69.5294 822.964V822.372C69.5495 822.373 69.5673 822.374 69.5827 822.374C69.5969 822.375 69.6122 822.376 69.6288 822.376C69.7507 822.376 69.836 822.35 69.8845 822.298C69.9342 822.247 69.9591 822.17 69.9591 822.067V819.217ZM70.3355 818.866C70.2242 818.866 70.1283 818.828 70.0479 818.754C69.9674 818.678 69.9271 818.587 69.9271 818.482C69.9271 818.378 69.9674 818.288 70.0479 818.214C70.1283 818.138 70.2242 818.1 70.3355 818.1C70.4491 818.1 70.5456 818.138 70.6249 818.214C70.7054 818.288 70.7456 818.378 70.7456 818.482C70.7456 818.587 70.7054 818.678 70.6249 818.754C70.5456 818.828 70.4491 818.866 70.3355 818.866ZM72.5643 821.998C72.2837 821.998 72.0423 821.941 71.8398 821.827C71.6386 821.712 71.4835 821.55 71.3746 821.341C71.2657 821.13 71.2113 820.881 71.2113 820.593C71.2113 820.313 71.2657 820.066 71.3746 819.854C71.4835 819.643 71.6368 819.477 71.8345 819.359C72.0334 819.241 72.2666 819.182 72.5341 819.182C72.714 819.182 72.8815 819.211 73.0366 819.269C73.1928 819.325 73.329 819.411 73.445 819.526C73.5621 819.641 73.6533 819.785 73.7184 819.959C73.7835 820.132 73.8161 820.334 73.8161 820.566V820.774H71.5131V820.305H73.104C73.104 820.197 73.0804 820.1 73.033 820.016C72.9857 819.932 72.92 819.866 72.8359 819.819C72.7531 819.77 72.6566 819.746 72.5465 819.746C72.4317 819.746 72.3299 819.773 72.2411 819.826C72.1535 819.878 72.0849 819.949 72.0352 820.037C71.9854 820.125 71.96 820.223 71.9588 820.33V820.776C71.9588 820.911 71.9837 821.028 72.0334 821.126C72.0843 821.224 72.1559 821.3 72.2482 821.353C72.3406 821.406 72.45 821.433 72.5767 821.433C72.6607 821.433 72.7377 821.421 72.8075 821.397C72.8774 821.374 72.9371 821.338 72.9869 821.291C73.0366 821.244 73.0745 821.186 73.1005 821.117L73.8001 821.163C73.7646 821.331 73.6918 821.478 73.5817 821.603C73.4728 821.728 73.3319 821.825 73.1591 821.895C72.9875 821.963 72.7892 821.998 72.5643 821.998ZM75.5419 821.998C75.2625 821.998 75.0223 821.938 74.821 821.82C74.621 821.7 74.4671 821.535 74.3594 821.323C74.2528 821.111 74.1996 820.867 74.1996 820.591C74.1996 820.312 74.2534 820.067 74.3612 819.856C74.4701 819.644 74.6245 819.479 74.8246 819.361C75.0246 819.241 75.2625 819.182 75.5384 819.182C75.7763 819.182 75.9846 819.225 76.1634 819.311C76.3421 819.398 76.4835 819.519 76.5877 819.675C76.6919 819.831 76.7493 820.015 76.7599 820.226H76.0462C76.026 820.089 75.9728 819.98 75.8864 819.897C75.8011 819.813 75.6893 819.771 75.5508 819.771C75.4336 819.771 75.3312 819.803 75.2436 819.867C75.1572 819.93 75.0897 820.021 75.0412 820.142C74.9927 820.263 74.9684 820.409 74.9684 820.581C74.9684 820.755 74.9921 820.903 75.0394 821.025C75.0879 821.147 75.156 821.239 75.2436 821.303C75.3312 821.367 75.4336 821.399 75.5508 821.399C75.6372 821.399 75.7147 821.381 75.7834 821.346C75.8532 821.31 75.9106 821.259 75.9556 821.191C76.0018 821.123 76.032 821.041 76.0462 820.945H76.7599C76.7481 821.153 76.6913 821.336 76.5895 821.495C76.4889 821.653 76.3498 821.776 76.1722 821.864C75.9947 821.953 75.7846 821.998 75.5419 821.998ZM78.6949 819.217V819.785H77.0525V819.217H78.6949ZM77.4253 818.564H78.1817V821.106C78.1817 821.176 78.1924 821.231 78.2137 821.27C78.235 821.307 78.2646 821.334 78.3025 821.35C78.3415 821.365 78.3865 821.373 78.4374 821.373C78.4729 821.373 78.5084 821.37 78.5439 821.364C78.5795 821.357 78.6067 821.351 78.6256 821.348L78.7446 821.911C78.7067 821.922 78.6534 821.936 78.5848 821.951C78.5161 821.968 78.4327 821.978 78.3344 821.982C78.1521 821.989 77.9923 821.964 77.855 821.909C77.7189 821.853 77.613 821.767 77.5372 821.65C77.4614 821.532 77.4242 821.384 77.4253 821.206V818.564Z" fill="white"/>
<path fill-rule="evenodd" clip-rule="evenodd" d="M68.3606 449.26C68.3606 387.679 119.477 337.725 182.493 337.725C245.54 337.725 296.692 387.678 296.692 449.26C296.692 510.841 245.576 560.861 182.493 560.861C119.41 560.861 68.3606 510.908 68.3606 449.26ZM255.674 575.133C234.094 587.144 209.123 593.993 182.521 593.993C155.888 593.993 130.982 587.143 109.401 575.133C40.6162 603.168 -7.76074 669.493 -7.76074 746.881L372.834 746.849C372.834 669.467 324.456 603.14 255.672 575.101L255.674 575.133ZM467.273 449.26C467.273 510.905 518.422 560.861 581.473 560.861C644.487 560.861 695.672 510.908 695.672 449.26C695.672 387.616 644.556 337.725 581.473 337.725C518.389 337.725 467.273 387.678 467.273 449.26ZM654.62 575.133C633.04 587.144 608.069 593.993 581.468 593.993C554.834 593.993 529.928 587.143 508.347 575.133C439.562 603.168 391.185 669.493 391.185 746.881H771.78C771.78 669.498 723.405 603.172 654.62 575.133ZM381.991 218.996C445.071 218.996 496.19 169.043 496.19 107.396C496.19 45.751 445.074 -4.20508 381.991 -4.20508C318.908 -4.20508 267.792 45.7477 267.792 107.396C267.792 169.04 318.908 218.996 381.991 218.996ZM323.475 404.951H440.445C455.963 357.866 495.539 321.259 545.022 308.993C524.191 275.287 492.7 248.527 455.142 233.235C433.529 245.246 408.59 252.158 381.989 252.158C355.355 252.158 330.384 245.245 308.836 233.235C271.281 248.527 239.823 275.287 218.955 308.993C268.441 321.258 308.018 357.862 323.499 404.951H323.475Z" fill="white"/>
</g>
<defs>
<clipPath id="clip0_13_7845">
<rect width="763" height="865" fill="white"/>
</clipPath>
</defs>
</svg>
