<svg width="873" height="740" viewBox="0 0 873 740" fill="none" xmlns="http://www.w3.org/2000/svg">
<path d="M443.553 314.994C504.109 314.994 553.261 269.618 553.261 213.918C553.261 158.098 504.109 112.841 443.553 112.841C383.128 112.841 333.844 158.098 333.844 213.918C333.844 269.618 383.128 314.994 443.553 314.994ZM443.553 125.566C496.506 125.566 539.498 165.18 539.498 213.918C539.498 262.535 496.506 302.27 443.553 302.27C390.73 302.27 347.738 262.535 347.738 213.918C347.738 165.18 390.73 125.566 443.553 125.566Z" fill="white"/>
<mask id="mask0_13_8687" style="mask-type:luminance" maskUnits="userSpaceOnUse" x="410" y="0" width="68" height="100">
<path d="M410.651 0H477.76V99.756H410.651V0Z" fill="white"/>
</mask>
<g mask="url(#mask0_13_8687)">
<path d="M443.548 98.3156C447.349 98.3156 450.495 95.4345 450.495 91.8332V6.96264C450.495 3.48139 447.349 0.600342 443.548 0.600342C439.747 0.600342 436.602 3.48139 436.602 6.96264V91.8332C436.602 95.4345 439.747 98.3156 443.548 98.3156Z" fill="white"/>
</g>
<path d="M344.984 132.168C346.425 133.369 348.129 133.969 349.964 133.969C351.668 133.969 353.503 133.369 354.814 132.168C357.567 129.647 357.567 125.566 354.814 123.165L289.671 63.1434C287.049 60.6225 282.593 60.6225 279.84 63.1434C277.219 65.5443 277.219 69.6257 279.84 72.1466L344.984 132.168Z" fill="white"/>
<path d="M219.023 220.278H311.168C314.969 220.278 318.115 217.397 318.115 213.916C318.115 210.315 314.969 207.554 311.168 207.554H219.023C215.222 207.554 212.077 210.315 212.077 213.916C212.077 217.397 215.222 220.278 219.023 220.278Z" fill="white"/>
<path d="M344.984 295.666L279.84 355.687C277.219 358.088 277.219 362.17 279.84 364.69C281.282 365.891 282.986 366.491 284.821 366.491C286.525 366.491 288.36 365.891 289.671 364.69L354.814 304.669C357.567 302.148 357.567 298.186 354.814 295.666C352.062 293.145 347.736 293.145 344.984 295.666Z" fill="white"/>
<path d="M436.605 335.88V420.75C436.605 424.232 439.751 427.113 443.552 427.113C447.353 427.113 450.498 424.232 450.498 420.75V335.88C450.498 332.399 447.353 329.518 443.552 329.518C439.751 329.518 436.605 332.399 436.605 335.88Z" fill="white"/>
<path d="M532.287 295.666C529.666 298.186 529.666 302.148 532.287 304.669L597.431 364.69C598.873 365.891 600.577 366.491 602.412 366.491C604.116 366.491 605.951 365.891 607.261 364.69C610.014 362.17 610.014 358.088 607.261 355.687L542.118 295.666C539.365 293.145 535.04 293.145 532.287 295.666Z" fill="white"/>
<path d="M569.12 213.916C569.12 217.397 572.135 220.278 576.067 220.278H668.08C672.013 220.278 675.027 217.397 675.027 213.916C675.027 210.315 672.013 207.554 668.08 207.554H576.067C572.266 207.554 569.12 210.315 569.12 213.916Z" fill="white"/>
<path d="M537.268 133.969C538.972 133.969 540.807 133.369 542.118 132.168L607.261 72.1466C610.014 69.6257 610.014 65.5443 607.261 63.1434C604.509 60.6225 600.183 60.6225 597.431 63.1434L532.287 123.165C529.666 125.566 529.666 129.647 532.287 132.168C533.729 133.369 535.433 133.969 537.268 133.969Z" fill="white"/>
<mask id="mask1_13_8687" style="mask-type:luminance" maskUnits="userSpaceOnUse" x="0" y="499" width="873" height="241">
<path d="M0 499.259H872.816V739.706H0V499.259Z" fill="white"/>
</mask>
<g mask="url(#mask1_13_8687)">
<path d="M799.024 623.384L871.376 534.912C872.949 532.991 873.211 530.351 872.031 528.19C870.983 526.029 868.492 524.708 865.871 524.708H551.689C549.46 524.708 547.494 525.549 546.183 527.229L429.528 669.961C420.878 665.039 415.635 655.916 416.683 646.672L419.567 623.384L491.919 534.912C493.492 532.991 493.754 530.351 492.575 528.19C491.395 526.029 489.036 524.708 486.414 524.708H172.101C170.003 524.708 167.906 525.549 166.595 527.229L1.96757 728.542C0.394724 730.583 0.132553 733.104 1.3122 735.264C2.49189 737.425 4.98225 738.866 7.60372 738.866H321.786C324.014 738.866 325.98 737.905 327.291 736.225L333.714 728.422H381.687L381.556 728.542C379.983 730.583 379.721 733.104 380.9 735.264C382.08 737.425 384.439 738.866 387.061 738.866H701.374C703.471 738.866 705.568 737.905 706.879 736.225L713.302 728.422H801.907C819.34 728.422 833.496 715.337 833.496 699.251C833.496 687.127 825.238 676.203 813.049 672.002C801.776 668.04 794.96 657.716 796.271 646.672L799.024 623.384ZM759.308 650.874H717.627L760.881 597.935H802.563L759.308 650.874ZM604.249 726.021L655.236 663.599H689.971L638.852 726.021H604.249ZM551.295 726.021L602.283 663.599H637.935L586.816 726.021H551.295ZM499.652 726.021L550.64 663.599H584.981L533.994 726.021H499.652ZM451.68 726.021L502.667 663.599H533.338L482.351 726.021H451.68ZM505.682 597.935H539.106L495.851 650.874H462.428L505.682 597.935ZM556.407 597.935H587.078L543.824 650.874H513.153L556.407 597.935ZM636.493 537.433L597.433 585.09H566.762L605.822 537.433H636.493ZM688.136 537.433L649.076 585.09H614.735L653.795 537.433H688.136ZM741.089 537.433L702.03 585.09H666.378L705.437 537.433H741.089ZM792.994 537.433L754.066 585.09H719.331L758.391 537.433H792.994ZM656.023 597.935H691.544L648.289 650.874H612.769L656.023 597.935ZM595.467 650.874H561.126L604.38 597.935H638.721L595.467 650.874ZM665.722 650.874L708.976 597.935H743.58L700.326 650.874H665.722ZM813.049 585.09H771.367L810.427 537.433H851.977L813.049 585.09ZM555.096 537.433H588.52L549.46 585.09H516.168L555.096 537.433ZM379.852 650.874H338.17L381.424 597.935H423.106L379.852 650.874ZM224.661 726.021L275.779 663.599H310.383L259.395 726.021H224.661ZM171.707 726.021L222.826 663.599H258.347L207.359 726.021H171.707ZM120.065 726.021L171.183 663.599H205.524L154.406 726.021H120.065ZM72.0917 726.021L123.21 663.599H153.881L102.763 726.021H72.0917ZM126.225 597.935H159.518L116.263 650.874H82.9708L126.225 597.935ZM176.819 597.935H207.49L164.236 650.874H133.565L176.819 597.935ZM256.905 537.433L217.976 585.09H187.305L226.365 537.433H256.905ZM308.548 537.433L269.619 585.09H235.278L274.338 537.433H308.548ZM361.501 537.433L322.442 585.09H286.921L325.849 537.433H361.501ZM413.537 537.433L374.478 585.09H339.874L378.803 537.433H413.537ZM276.435 597.935H312.087L268.833 650.874H233.181L276.435 597.935ZM215.879 650.874H181.538L224.792 597.935H259.133L215.879 650.874ZM286.134 650.874L329.388 597.935H364.123L320.869 650.874H286.134ZM433.461 585.09H391.779L430.839 537.433H472.52L433.461 585.09ZM175.64 537.433H208.932L170.003 585.09H136.58L175.64 537.433ZM72.4849 663.599H105.909L54.7901 726.021H21.4975L72.4849 663.599ZM318.378 726.021H276.697L327.684 663.599H369.366L318.378 726.021ZM344.2 715.697L403.183 643.431L402.92 645.352C401.217 659.037 408.688 672.482 421.14 680.044L392.041 715.697H344.2ZM452.073 663.599H485.365L434.378 726.021H400.954L452.073 663.599ZM697.835 726.021H656.154L707.272 663.599H748.954L697.835 726.021ZM808.068 683.886C815.015 686.287 819.733 692.409 819.733 699.251C819.733 708.375 811.738 715.697 801.907 715.697H723.657L782.771 643.431L782.508 645.352C780.411 662.038 791.028 677.884 808.068 683.886Z" fill="white"/>
</g>
</svg>
