<svg width="749" height="803" viewBox="0 0 749 803" fill="none" xmlns="http://www.w3.org/2000/svg">
<mask id="mask0_13_8659" style="mask-type:luminance" maskUnits="userSpaceOnUse" x="0" y="0" width="750" height="803">
<path d="M0 0H749.008V802.495H0V0Z" fill="white"/>
</mask>
<g mask="url(#mask0_13_8659)">
<path d="M261.851 69.6495C291.741 55.2754 323.515 47.095 357.173 45.2252C390.705 43.4723 423.232 48.03 454.755 59.1319C449.229 61.3523 444.582 64.5075 440.94 68.9483C434.033 78.0636 429.26 87.9969 426.372 98.8651C424.111 113.94 415.571 124.692 400.626 131.002C374.504 142.805 357.801 170.852 348.256 192.472C343.86 202.756 342.856 213.274 345.367 224.142C347.754 234.893 353.154 244.242 361.568 252.072C369.104 258.733 377.769 263.524 387.816 266.095C397.863 268.783 407.91 269.017 418.083 267.03C442.824 262.122 450.861 265.628 452.117 266.329C452.745 266.68 453.248 267.03 453.624 267.498C453.876 271.354 453.499 275.094 452.494 278.833C449.354 290.987 449.354 303.141 452.369 315.295C454.252 323.241 455.132 331.305 455.006 339.368C455.508 356.196 456.136 379.102 483.138 384.945C502.604 386.814 519.433 381.672 533.875 369.285C556.858 353.859 570.045 333.058 573.31 306.88C573.812 295.779 578.836 286.78 588.129 279.885C594.911 274.626 598.93 268.082 600.437 260.019C601.944 251.955 600.437 244.476 595.916 237.464L607.219 234.659C611.363 259.902 610.735 285.144 605.586 310.27C600.311 335.278 590.767 358.884 576.826 380.854C562.886 402.941 545.429 422.107 524.456 438.468C503.357 454.945 479.998 467.566 454.378 476.448C428.632 485.33 402.133 490.004 374.755 490.355C347.377 490.705 320.752 486.732 294.755 478.552C268.759 470.371 245.148 458.334 223.547 442.558C202.071 426.665 183.987 407.967 169.418 386.347C167.283 383.075 164.144 380.971 160.125 380.153C156.106 379.335 152.338 379.92 148.822 382.023C145.306 384.01 143.171 386.931 142.166 390.671C141.287 394.411 141.915 397.916 144.175 401.189C153.343 414.861 163.893 427.599 175.823 439.403C187.629 451.089 200.564 461.723 214.63 471.072C228.696 480.538 243.641 488.602 259.34 495.38C275.164 502.041 291.365 507.3 308.193 511.156C325.022 514.896 342.102 517.233 359.433 517.934C376.639 518.635 393.844 517.817 411.05 515.363C428.13 513.026 444.833 509.169 461.16 503.677C477.486 498.301 493.059 491.523 508.004 483.343C522.949 475.046 536.764 465.58 549.699 454.828C562.635 444.194 574.44 432.391 584.864 419.536C595.414 406.681 604.456 393.008 612.117 378.517C619.778 364.026 625.931 348.951 630.453 333.408C634.974 317.866 637.862 301.972 639.118 285.845C640.5 269.718 639.997 253.708 637.988 237.698C635.853 221.571 632.211 205.911 626.936 190.485C621.536 175.176 614.754 160.452 606.34 146.311C597.925 132.171 588.255 118.849 577.078 106.461C565.9 94.1907 553.718 82.8549 540.155 72.6879C526.717 62.5209 512.4 53.7562 497.078 46.1601C481.756 38.564 465.806 32.4872 449.229 27.8127C432.777 23.0213 415.822 19.866 398.617 18.23C381.411 16.5939 364.206 16.5939 346.875 17.9963C329.669 19.5155 312.715 22.437 296.137 26.9947C279.559 31.5523 263.484 37.5123 248.162 44.8746C244.52 46.6276 242.008 49.4323 240.753 53.055C239.497 56.6777 239.873 60.3005 241.757 63.6895C243.641 67.0786 246.53 69.4158 250.548 70.5844C254.442 71.753 258.209 71.4025 261.851 69.6495ZM601.065 207.314L586.873 210.819C576.575 213.274 569.417 219.117 565.775 228.349C562.761 236.763 564.142 244.359 569.919 251.254C571.929 253.825 571.552 256.396 568.412 258.85C552.462 271.121 544.174 286.897 543.42 306.179C540.406 323.592 531.112 337.265 515.539 347.198C508.381 353.742 499.715 357.248 489.794 357.716C486.78 357.015 485.398 356.781 484.896 338.667C485.021 328.383 483.766 318.216 481.254 308.166C479.496 299.986 479.621 291.805 481.882 283.742C484.142 271.822 487.659 253.825 467.565 242.489C449.354 235.01 430.893 234.075 411.929 239.685C401.003 242.022 391.458 239.685 383.169 232.673C378.774 228.933 375.885 224.376 374.629 218.883C373.248 213.507 373.75 208.132 376.011 202.99C382.542 183.24 395.1 167.58 413.562 156.128C424.362 151.453 433.405 144.792 440.689 136.144C447.973 127.496 452.745 117.68 455.006 106.929C456.89 99.3326 460.029 92.4377 464.551 85.8934C474.723 80.9852 485.524 78.5311 496.827 78.4142C522.196 93.1389 543.922 111.603 561.881 133.807C579.841 156.011 592.902 180.552 601.065 207.314ZM746.747 554.629C743.984 538.268 735.068 525.53 720.248 516.415C714.597 512.792 708.443 510.104 701.787 508.585C695.13 506.949 688.474 506.365 681.567 506.949C674.785 507.533 668.255 509.169 661.975 511.857C655.696 514.545 650.17 518.168 645.272 522.609L553.718 606.867C541.787 595.765 518.428 583.962 472.086 581.741C430.391 579.871 391.333 569.587 354.787 550.889C339.842 542.475 323.766 536.749 306.812 533.36C259.214 524.946 217.77 531.49 192.652 551.591C176.075 563.861 157.864 573.21 138.021 579.871V573.678C138.021 568.068 136.891 562.693 134.631 557.667C132.37 552.526 129.105 547.968 124.835 543.995C120.69 540.138 115.792 537.1 110.266 534.996C104.866 532.893 99.0891 531.724 93.1864 531.724H14.945C10.8006 531.724 7.28412 533.126 4.39559 535.814C1.50708 538.619 0 541.891 0 545.747V784.147C0 788.004 1.50708 791.393 4.39559 794.08C7.28412 796.768 10.8006 798.171 14.945 798.171H93.1864C99.0891 798.171 104.866 797.119 110.266 794.898C115.792 792.795 120.69 789.757 124.835 785.9C129.105 781.927 132.37 777.486 134.631 772.344C136.891 767.202 138.021 761.826 138.021 756.334V754.581L180.219 751.309C207.472 749.322 234.348 751.776 260.595 758.788C261.6 758.905 355.163 776.902 385.807 783.563C407.534 788.354 429.512 790.925 451.741 791.042C490.045 792.211 524.833 782.394 555.979 761.709C605.963 726.884 728.914 603.711 735.068 597.518C745.617 584.78 749.51 570.522 746.747 554.629ZM108.131 756.334C108.131 760.19 106.624 763.462 103.736 766.15C100.847 768.838 97.3308 770.24 93.1864 770.24H29.89V559.654H93.1864C97.3308 559.654 100.847 561.056 103.736 563.744C106.624 566.432 108.131 569.821 108.131 573.678V756.334ZM712.336 579.521C711.08 580.806 585.869 705.966 538.145 739.389C494.315 770.007 434.786 765.449 392.589 756.451C361.443 749.673 270.517 732.143 267.628 731.676C238.241 723.963 208.351 721.275 177.833 723.612L138.021 726.534V609.905C165.023 601.491 189.764 589.104 212.118 572.743C220.658 565.965 246.53 551.123 301.16 560.823C314.975 563.511 327.911 568.302 339.967 575.08C380.658 595.998 424.111 607.451 470.579 609.554C528.852 612.359 536.01 628.252 536.638 636.082C536.513 640.056 535.131 643.678 532.368 646.834C526.717 654.313 510.014 667.869 460.657 673.361C440.563 675.699 421.348 672.894 403.012 664.714C374.755 653.261 345.493 649.288 314.975 652.91C310.831 653.261 307.44 655.014 304.928 657.936C302.291 660.974 301.16 664.363 301.663 668.219C302.04 672.076 303.798 675.114 307.063 677.568C310.203 680.023 313.97 681.074 317.989 680.607C343.86 677.568 368.601 680.957 392.337 690.774C415.32 699.889 439.433 703.395 464.299 701.058C511.772 695.682 543.294 682.36 557.988 661.325C563.765 653.144 566.654 644.146 566.403 634.329L666.245 542.475C671.394 537.801 677.674 535.23 684.832 534.762C691.991 534.295 698.521 536.048 704.298 540.021C711.206 544.462 715.35 550.539 716.983 558.252C718.49 565.965 716.983 572.976 712.336 579.521ZM19.3406 159.517C0.376757 233.491 95.447 274.626 126.342 285.845C126.718 305.128 124.835 324.059 120.69 342.991C119.937 346.731 120.69 350.236 122.951 353.392C125.337 356.664 128.477 358.534 132.496 359.352C136.514 360.053 140.282 359.352 143.673 357.248C147.189 355.028 149.324 352.106 150.078 348.367C154.473 327.916 156.483 307.348 156.106 286.546C188.005 278.717 263.61 252.773 265.368 183.123C264.865 161.737 271.898 142.689 286.467 126.211C290.737 122.121 291.867 117.329 289.983 111.954C288.099 106.578 284.206 103.306 278.178 102.371C227.566 95.2424 187.754 99.5663 159.497 115.109C130.737 94.1907 85.3999 81.8032 22.9826 78.6479C16.5776 78.5311 12.0565 81.1021 9.04235 86.244C6.15381 91.5028 6.65619 96.5279 10.4238 101.202C22.8571 119.433 25.8712 138.832 19.3406 159.517ZM249.795 127.496C240.501 144.792 235.729 163.14 235.478 182.422C234.599 219.818 202.071 240.503 174.568 251.371C190.768 222.739 205.211 182.305 187.252 146.311C185.368 142.805 183.233 139.416 180.721 136.144C202.95 127.73 226.059 124.809 249.795 127.496ZM160.125 157.998C172.684 183.123 161.632 213.858 149.073 236.646C141.789 205.794 125.463 179.968 99.9682 159.166C96.7029 156.829 92.9352 156.011 88.9164 156.595C84.8976 157.18 81.6323 158.933 79.1205 161.971C76.7344 165.126 75.7296 168.515 76.3576 172.372C76.86 176.111 78.8694 179.15 82.1347 181.487C104.992 201.12 118.555 225.31 122.825 254.059C90.9258 240.269 37.1741 209.885 48.477 166.061C53.7518 146.662 53.1238 127.496 46.8444 108.448C108.131 114.758 147.064 131.704 160.125 157.998ZM270.14 434.728C276.545 443.259 285.336 447.466 296.388 447.232H296.514C319.371 447.232 332.055 430.287 334.19 396.748C334.567 391.723 339.465 388.918 355.163 382.724L362.322 379.686C376.89 372.674 385.681 361.572 388.695 346.497C393.217 332.707 391.082 319.852 382.416 307.932C372.62 297.298 360.187 293.091 345.367 295.077C336.325 295.428 335.948 295.077 334.441 292.623C332.557 289.234 331.302 285.728 330.548 281.989C328.664 269.134 321.757 259.434 309.7 252.89C298.9 248.8 287.974 247.865 276.545 250.085C265.242 252.306 255.572 257.331 247.534 265.161C239.497 272.99 234.599 282.222 232.715 292.974C230.831 303.608 232.338 313.892 237.11 323.709C239.999 328.968 244.143 333.058 249.544 336.096C254.693 338.667 259.214 341.939 262.982 346.029C268.382 356.196 269.387 366.714 265.87 377.582C257.832 397.215 259.34 416.264 270.14 434.728ZM264.865 312.022C255.446 303.024 262.856 287.598 272.526 281.638C277.55 278.483 283.076 276.73 289.23 276.379C298.272 276.379 299.528 281.872 301.537 289.001C303.044 295.428 305.43 301.388 308.821 307.114C312.715 313.074 318.24 317.515 325.022 320.437C331.93 323.358 339.088 324.176 346.623 323.008C355.289 322.657 356.922 323.008 359.057 325.462C361.192 330.253 361.317 335.044 359.685 339.953C358.68 346.029 355.415 350.821 350.014 354.327L343.358 357.015C326.655 363.793 305.807 372.09 304.3 395.112C303.421 410.304 300.407 419.419 296.514 419.419C291.867 419.419 291.365 409.72 291.239 406.915C290.988 399.552 292.118 392.541 294.504 385.529C295.635 381.789 304.551 348.484 285.839 327.916C282.699 324.41 279.182 321.255 275.164 318.567C271.522 316.697 268.131 314.477 264.865 312.022Z" fill="white"/>
</g>
</svg>
