<svg width="766" height="676" viewBox="0 0 766 676" fill="none" xmlns="http://www.w3.org/2000/svg">
<path fill-rule="evenodd" clip-rule="evenodd" d="M232.894 264.359H122.903C111.936 264.328 103.072 255.797 103.008 245.243V212.084C103.105 163.359 139.144 121.549 188.898 112.455C238.654 103.395 288.09 129.609 306.658 174.941C270.845 194.306 244.346 226.404 232.894 264.359ZM382.613 31.3212C409.076 31.29 432.95 46.6083 443.109 70.1456C453.267 93.6519 447.703 120.77 429.004 138.797C410.273 156.823 382.127 162.21 357.67 152.464C333.213 142.719 317.264 119.773 317.264 94.2743C317.264 59.5283 346.509 31.3523 382.613 31.3212ZM556.531 0C576.977 0 595.384 11.8623 603.213 30.0443C611.042 48.1952 606.675 69.1175 592.214 83.0345C577.753 96.9205 556.013 101.061 537.153 93.5267C518.261 85.9611 505.967 68.2144 505.999 48.538C506.064 21.7312 528.677 0 556.531 0ZM208.695 0C229.141 0 247.548 11.8623 255.377 30.0443C263.206 48.1952 258.838 69.1175 244.378 83.0345C229.917 96.9205 208.177 101.061 189.317 93.5267C170.424 85.9611 158.131 68.2144 158.163 48.538C158.228 21.7312 180.84 0 208.695 0ZM221.603 502.604C223.447 504.347 224.449 506.682 224.449 509.142C224.449 511.601 223.447 513.968 221.603 515.68C217.85 519.291 211.768 519.291 208.048 515.68L142.44 452.633C137.781 448.398 134.191 443.199 131.926 437.408L55.5778 287.094C49.884 273.987 41.4407 262.187 30.7323 252.411C24.7474 246.433 15.9476 243.88 7.53661 245.654C-3.23638 249.795 -0.259973 265.736 3.07222 274.173L71.5587 449.521C80.002 473.931 94.7544 495.849 114.359 513.284L180.614 576.238V576.269C196.368 590.839 205.103 611.046 204.812 632.061V668.893V668.862C204.812 672.442 207.821 675.338 211.509 675.338H335.736C339.457 675.338 342.433 672.442 342.433 668.862V589.407C342.433 565.496 338.13 537.133 323.313 517.207C314.967 505.251 303.547 495.6 290.186 489.155C280.643 484.391 271.876 478.289 264.176 471.066L215.65 424.521C198.504 407.957 179.805 405 165.959 409.047C158.648 410.791 152.566 415.616 149.395 422.185C147.292 428.755 149.783 435.885 155.607 439.901L220.794 502.637L221.603 502.604ZM543.948 502.604C542.136 504.347 541.101 506.682 541.101 509.142C541.101 511.601 542.136 513.968 543.948 515.68C547.7 519.291 553.782 519.291 557.535 515.68L622.786 452.633C627.445 448.398 631.036 443.199 633.3 437.408L709.583 287.094C715.244 273.987 723.72 262.187 734.429 252.411C740.413 246.433 749.18 243.88 757.624 245.654C768.462 249.391 765.906 265.829 762.186 274.173L693.667 449.051C685.224 473.429 670.471 495.379 650.866 512.814L584.612 575.767C568.857 590.338 560.123 610.544 560.413 631.56V668.392C560.413 671.972 557.405 674.837 553.717 674.837H429.489C425.769 674.837 422.793 671.972 422.793 668.392V589.404C422.793 565.493 427.095 537.129 441.912 517.203C450.259 505.248 461.678 495.597 475.039 489.152C484.583 484.388 493.35 478.286 501.049 471.063L549.576 424.518C566.722 408.016 585.42 404.997 599.267 409.044C606.578 410.787 612.66 415.613 615.83 422.182C617.933 428.752 615.442 435.882 609.619 439.898L544.432 502.634L543.948 502.604ZM519.102 305.743C519.102 258.762 493.06 215.359 450.777 191.855C408.494 168.35 356.406 168.349 314.127 191.855C271.848 215.361 245.802 258.762 245.802 305.743V348.708C245.802 355.278 248.519 361.567 253.34 366.206C258.192 370.845 264.727 373.429 271.553 373.429H493.415C500.241 373.429 506.808 370.845 511.628 366.206C516.448 361.567 519.166 355.278 519.166 348.708V305.587L519.102 305.743ZM662.22 212.092C662.123 163.366 626.084 121.556 576.329 112.462C526.574 103.402 477.138 129.617 458.57 174.948C494.382 194.314 520.878 226.413 532.33 264.368H642.321C653.287 264.336 662.151 255.806 662.216 245.251L662.22 212.092Z" fill="white"/>
</svg>
