<svg width="629" height="618" viewBox="0 0 629 618" fill="none" xmlns="http://www.w3.org/2000/svg">
<mask id="mask0_13_8434" style="mask-type:luminance" maskUnits="userSpaceOnUse" x="403" y="459" width="226" height="159">
<path d="M403.46 459.531H628.999V617.507H403.46V459.531Z" fill="white"/>
</mask>
<g mask="url(#mask0_13_8434)">
<path d="M619.254 617.507H422.648C417.223 617.507 412.803 613.168 412.803 607.843V542.759C412.803 504.202 444.75 472.745 484.031 472.745H557.771C597.052 472.745 628.999 504.202 628.999 542.759V607.843C628.999 613.168 624.679 617.507 619.254 617.507ZM432.493 598.179H609.409V542.759C609.409 514.852 586.202 492.073 557.771 492.073H484.031C455.6 492.073 432.493 514.852 432.493 542.759V598.179Z" fill="white"/>
</g>
<mask id="mask1_13_8434" style="mask-type:luminance" maskUnits="userSpaceOnUse" x="0" y="459" width="224" height="159">
<path d="M0 459.531H223.43V617.507H0V459.531Z" fill="white"/>
</mask>
<g mask="url(#mask1_13_8434)">
<path d="M206.351 617.506H9.74491C4.31992 617.506 0 613.168 0 607.843V542.759C0 504.202 31.9472 472.744 71.2282 472.744H144.968C184.249 472.744 216.196 504.202 216.196 542.759V607.843C216.196 613.168 211.776 617.506 206.351 617.506ZM19.5903 598.179H196.506V542.759C196.506 514.852 173.399 492.072 144.968 492.072H71.2282C42.7972 492.072 19.5903 514.852 19.5903 542.759V598.179Z" fill="white"/>
</g>
<mask id="mask2_13_8434" style="mask-type:luminance" maskUnits="userSpaceOnUse" x="43" y="535" width="27" height="83">
<path d="M43.4004 535.265H69.1189V617.507H43.4004V535.265Z" fill="white"/>
</mask>
<g mask="url(#mask2_13_8434)">
<path d="M58.9733 617.507C53.5483 617.507 49.1279 613.168 49.1279 607.843V549.958C49.1279 544.633 53.5483 540.294 58.9733 540.294C64.3983 540.294 68.7182 544.633 68.7182 549.958V607.843C68.7182 613.168 64.3983 617.507 58.9733 617.507Z" fill="white"/>
</g>
<mask id="mask3_13_8434" style="mask-type:luminance" maskUnits="userSpaceOnUse" x="146" y="535" width="26" height="83">
<path d="M146.275 535.265H171.994V617.507H146.275V535.265Z" fill="white"/>
</mask>
<g mask="url(#mask3_13_8434)">
<path d="M157.225 617.507C151.8 617.507 147.38 613.168 147.38 607.843V549.958C147.38 544.633 151.8 540.294 157.225 540.294C162.65 540.294 167.071 544.633 167.071 549.958V607.843C167.071 613.168 162.65 617.507 157.225 617.507Z" fill="white"/>
</g>
<path d="M108.099 492.072C75.5487 492.072 49.127 466.138 49.127 434.187C49.127 402.237 75.5487 376.302 108.099 376.302C140.548 376.302 167.07 402.237 167.07 434.187C167.07 466.138 140.548 492.072 108.099 492.072ZM108.099 395.63C86.3987 395.63 68.7172 412.887 68.7172 434.187C68.7172 455.488 86.3987 472.745 108.099 472.745C129.799 472.745 147.38 455.488 147.38 434.187C147.38 412.887 129.799 395.63 108.099 395.63Z" fill="white"/>
<path d="M412.804 241.204H216.198C210.773 241.204 206.353 236.866 206.353 231.541V166.457C206.353 127.9 238.3 96.541 277.681 96.541H351.321C390.702 96.541 422.649 127.9 422.649 166.457V231.541C422.649 236.866 418.229 241.204 412.804 241.204ZM226.043 221.975H402.959V166.457C402.959 138.55 379.852 115.77 351.321 115.77H277.681C249.15 115.77 226.043 138.55 226.043 166.457V221.975Z" fill="white"/>
<path d="M265.324 241.204C259.899 241.204 255.479 236.865 255.479 231.54V173.655C255.479 168.33 259.899 164.09 265.324 164.09C270.749 164.09 275.169 168.33 275.169 173.655V231.54C275.169 236.865 270.749 241.204 265.324 241.204Z" fill="white"/>
<path d="M363.675 241.204C358.25 241.204 353.83 236.865 353.83 231.54V173.655C353.83 168.33 358.25 164.09 363.675 164.09C369.1 164.09 373.521 168.33 373.521 173.655V231.54C373.521 236.865 369.1 241.204 363.675 241.204Z" fill="white"/>
<mask id="mask4_13_8434" style="mask-type:luminance" maskUnits="userSpaceOnUse" x="249" y="0" width="129" height="132">
<path d="M249.148 0H377.741V131.351H249.148V0Z" fill="white"/>
</mask>
<g mask="url(#mask4_13_8434)">
<path d="M314.449 115.77C282 115.77 255.478 89.8353 255.478 57.8851C255.478 26.0335 282 0 314.449 0C346.999 0 373.522 26.0335 373.522 57.8851C373.522 89.8353 346.999 115.77 314.449 115.77ZM314.449 19.3279C292.85 19.3279 275.168 36.585 275.168 57.8851C275.168 79.1853 292.85 96.5409 314.449 96.5409C336.149 96.5409 353.831 79.1853 353.831 57.8851C353.831 36.585 336.149 19.3279 314.449 19.3279Z" fill="white"/>
</g>
<path d="M137.534 356.975C135.524 356.975 133.415 356.383 131.707 355.101C127.286 351.847 126.483 345.831 129.698 341.591L188.669 264.378C191.985 260.138 198.113 259.25 202.433 262.505C206.753 265.66 207.657 271.675 204.442 275.916L145.47 353.129C143.461 355.693 140.548 356.975 137.534 356.975Z" fill="white"/>
<path d="M491.466 356.975C488.452 356.975 485.539 355.693 483.529 353.129L424.558 275.916C421.343 271.675 422.247 265.66 426.567 262.505C430.887 259.25 437.015 260.138 440.33 264.378L499.302 341.591C502.517 345.831 501.713 351.847 497.293 355.101C495.585 356.383 493.475 356.975 491.466 356.975Z" fill="white"/>
<path d="M383.268 588.614H245.734C240.309 588.614 235.889 584.275 235.889 578.95C235.889 573.625 240.309 569.286 245.734 569.286H383.268C388.693 569.286 393.113 573.625 393.113 578.95C393.113 584.275 388.693 588.614 383.268 588.614Z" fill="white"/>
<path d="M255.477 414.859C250.052 414.859 245.732 410.619 245.732 405.294C245.732 362.694 280.995 328.081 324.294 328.081C329.719 328.081 334.14 332.42 334.14 337.745C334.14 343.07 329.719 347.409 324.294 347.409C291.845 347.409 265.323 373.344 265.323 405.294C265.323 410.619 260.902 414.859 255.477 414.859Z" fill="white"/>
<path d="M314.451 376.302C313.446 376.302 312.442 376.105 311.437 375.809C306.213 374.133 303.501 368.709 305.208 363.582L313.045 340.309L297.674 325.222C293.856 321.474 293.856 315.36 297.674 311.613C301.592 307.866 307.82 307.866 311.638 311.613L331.228 330.842C333.941 333.505 334.845 337.252 333.639 340.802L323.794 369.695C322.488 373.739 318.57 376.302 314.451 376.302Z" fill="white"/>
<path d="M304.705 463.179C299.28 463.179 294.859 458.84 294.859 453.515C294.859 448.19 299.28 443.851 304.705 443.851C337.154 443.851 363.676 417.916 363.676 385.966C363.676 380.641 367.996 376.302 373.522 376.302C378.947 376.302 383.267 380.641 383.267 385.966C383.267 428.468 348.004 463.179 304.705 463.179Z" fill="white"/>
<path d="M324.295 482.409C321.783 482.409 319.272 481.522 317.363 479.648L297.672 460.32C295.06 457.756 294.156 453.91 295.361 450.459L305.207 421.467C306.915 416.438 312.44 413.677 317.564 415.353C322.788 417.03 325.5 422.552 323.792 427.581L315.956 450.854L331.227 465.941C335.145 469.688 335.145 475.802 331.227 479.648C329.318 481.522 326.806 482.409 324.295 482.409Z" fill="white"/>
<path d="M314.449 521.065C244.025 521.065 186.761 464.758 186.761 395.631C186.761 326.405 244.025 270.197 314.449 270.197C384.974 270.197 442.238 326.405 442.238 395.631C442.238 464.758 384.974 521.065 314.449 521.065ZM314.449 289.426C254.875 289.426 206.351 337.055 206.351 395.631C206.351 454.108 254.875 501.737 314.449 501.737C374.124 501.737 422.648 454.108 422.648 395.631C422.648 337.055 374.124 289.426 314.449 289.426Z" fill="white"/>
</svg>
