<svg width="737" height="644" viewBox="0 0 737 644" fill="none" xmlns="http://www.w3.org/2000/svg">
<path fill-rule="evenodd" clip-rule="evenodd" d="M613.813 431.582H567.081C566.232 431.582 565.51 431.582 564.64 431.711C548.588 434.482 550.308 459.274 566.805 459.425C567.23 459.425 660.098 459.425 660.671 459.425C677.147 459.274 679.016 434.482 662.816 431.711C662.115 431.582 661.244 431.582 660.395 431.582H613.813Z" fill="white"/>
<path fill-rule="evenodd" clip-rule="evenodd" d="M660.523 459.555H567.081C559.48 459.555 553.323 465.806 553.323 473.497C553.323 481.167 559.629 487.548 567.081 487.419H660.523C678.591 487.268 678.74 460.006 660.523 459.555Z" fill="white"/>
<path fill-rule="evenodd" clip-rule="evenodd" d="M660.523 487.547H566.36V503.208C566.36 511.78 573.387 518.87 581.838 518.87H645.767C654.217 518.87 661.245 511.78 661.245 503.208V487.547H660.523Z" fill="white"/>
<mask id="mask0_14_8902" style="mask-type:luminance" maskUnits="userSpaceOnUse" x="293" y="510" width="333" height="134">
<path d="M293.509 510.685H625.065V643.517H293.509V510.685Z" fill="white"/>
</mask>
<g mask="url(#mask0_14_8902)">
<path d="M486.974 644.763H304.528C296.503 644.763 296.205 632.131 304.528 632.131H486.974C502.452 632.131 515.063 619.37 515.063 603.708C515.063 581.086 533.259 562.675 555.616 562.675H588.292C598.908 562.675 607.655 553.974 607.655 543.103V518.87C607.655 510.62 620.118 510.62 620.118 518.87V543.103C620.118 560.784 605.787 575.286 588.292 575.286H555.765C540.287 575.286 527.675 588.047 527.675 603.708C527.675 626.33 509.331 644.763 486.974 644.763Z" fill="white"/>
</g>
<path d="M645.766 525.121H581.837C569.947 525.121 560.202 515.26 560.202 503.208V487.547C560.202 484.066 562.92 481.166 566.508 481.166H661.393C670.841 481.467 666.828 495.087 667.699 503.079C667.402 515.26 657.805 525.121 645.766 525.121ZM572.665 493.927C572.538 501.618 571.391 512.21 581.837 512.489H645.766C656.234 512.059 655.087 501.468 654.939 493.927H572.665Z" fill="white"/>
<path d="M660.523 465.956H567.081C540.711 465.505 540.711 425.782 567.081 425.331H660.523C686.893 425.782 686.893 465.505 660.523 465.956ZM567.081 437.963C557.187 437.963 557.187 453.174 567.081 453.324H660.523C670.417 453.324 670.417 438.092 660.523 437.963H567.081Z" fill="white"/>
<path d="M660.523 493.928H567.081C540.711 493.498 540.711 453.754 567.081 453.324H660.523C686.893 453.754 686.893 493.348 660.523 493.928ZM567.081 465.957C557.187 465.957 557.187 481.167 567.081 481.317H660.523C670.417 481.317 670.417 466.085 660.523 465.957H567.081Z" fill="white"/>
<path d="M613.813 437.962C610.373 437.962 607.507 435.062 607.507 431.582V378.646C607.507 375.166 610.225 372.266 613.813 372.266C617.252 372.266 620.119 375.016 620.119 378.646V431.582C620.119 435.191 617.252 437.962 613.813 437.962Z" fill="white"/>
<path fill-rule="evenodd" clip-rule="evenodd" d="M34.502 364.146L189.579 273.507C181.702 260.166 179.834 241.454 185.142 226.522C164.929 227.532 138.283 235.073 103.739 255.224C3.99188 313.531 34.502 364.146 34.502 364.146Z" fill="white"/>
<path fill-rule="evenodd" clip-rule="evenodd" d="M264.974 320.92C334.911 387.626 420.03 402.579 441.962 364.145L286.609 273.506C278.583 287.578 264.825 297.718 248.625 300.768C252.786 307.299 258.094 313.959 264.974 320.92Z" fill="white"/>
<path fill-rule="evenodd" clip-rule="evenodd" d="M238.158 188.518C255.079 188.518 270.281 196.059 280.6 208.111C289.772 189.828 296.779 162.716 296.779 122.392C296.779 5.80073 238.158 7.26162 238.158 7.26162V188.518Z" fill="white"/>
<path d="M276.714 596.468H199.622C197.902 596.468 196.309 595.737 195.163 594.577C194.016 593.267 193.316 591.677 193.443 589.937L206.352 295.398C206.777 287.277 219.112 287.578 218.815 295.978L206.203 583.836H270.133L258.667 321.221C258.519 317.741 261.236 314.841 264.676 314.54C268.689 314.26 270.982 317.161 271.279 320.641L283.02 589.786C283.169 593.417 280.154 596.597 276.714 596.468Z" fill="white"/>
<mask id="mask1_14_8902" style="mask-type:luminance" maskUnits="userSpaceOnUse" x="228" y="0" width="77" height="220">
<path d="M228.285 0H304.38V219.196H228.285V0Z" fill="white"/>
</mask>
<g mask="url(#mask1_14_8902)">
<path d="M280.6 214.491C276.014 214.62 272.85 209.4 274.995 205.339C301.089 157.775 296.651 24.6631 244.463 14.6518V188.668C244.463 196.939 232 196.939 232 188.668V7.39037C232 3.91004 234.718 1.16015 238.158 1.00977C283.891 4.36119 304.104 61.3355 303.085 122.542C303.085 159.085 297.352 188.819 286.184 211.14C285.038 213.181 282.744 214.491 280.6 214.491Z" fill="white"/>
</g>
<path d="M34.5016 370.526C32.3572 370.526 30.3614 369.517 29.2149 367.476C-4.18281 299.91 123.506 222.312 184.993 220.292C193.167 219.562 193.74 232.602 185.715 232.903C131.977 233.762 20.3187 304.25 37.8138 355.015L186.713 267.986C189.728 266.245 193.592 267.277 195.312 270.306C197.031 273.357 196.034 277.267 193.019 279.007L37.6652 369.646C36.6673 370.226 35.5207 370.526 34.5016 370.526Z" fill="white"/>
<path d="M395.528 391.989C350.538 393.879 266.693 343.994 243.466 304.4C239.028 297.59 249.623 290.479 253.933 297.59C281.598 344.123 397.821 406.92 432.514 366.165L283.594 279.157C276.587 275.247 282.893 263.925 289.9 268.287L445.126 358.925C448.141 360.666 449.138 364.425 447.419 367.476C447.121 368.056 438.82 383.137 416.59 389.368C410.008 390.979 402.98 391.989 395.528 391.989Z" fill="white"/>
<path d="M238.158 308.16C155.905 305.56 155.905 184.759 238.158 182.138C320.431 184.759 320.431 305.56 238.158 308.16ZM238.158 194.77C172.381 196.94 172.381 293.379 238.158 295.549C303.955 293.379 303.955 196.94 238.158 194.77Z" fill="white"/>
<mask id="mask2_14_8902" style="mask-type:luminance" maskUnits="userSpaceOnUse" x="0" y="0" width="484" height="489">
<path d="M0 0H483.746V488.685H0V0Z" fill="white"/>
</mask>
<g mask="url(#mask2_14_8902)">
<path d="M301.514 485.097C294.486 485.226 292.915 474.356 299.942 472.615C322.724 466.235 344.508 456.524 364.424 443.462C367.29 441.572 371.175 442.453 373.022 445.353C374.891 448.253 374.042 452.163 371.175 454.054C349.519 467.975 326.164 479.146 301.514 485.097ZM130.831 467.975C97.1358 453.474 67.8995 427.221 44.8205 398.519C39.8098 392.138 49.7038 384.146 54.7146 390.677C75.7765 417.94 103.166 440.562 133.697 456.073C139.43 458.694 137.137 468.276 130.831 467.975ZM472.345 201.279C469.479 201.279 466.91 199.259 466.188 196.359C452.43 131.242 412.301 74.6763 355.697 41.3339C348.67 37.4239 354.975 26.1021 362.003 30.4632C421.622 65.5458 464.043 125.163 478.375 193.738C479.373 197.669 476.23 201.429 472.345 201.279ZM10.9982 175.047C6.85796 175.047 3.69442 170.686 5.13818 166.776C32.7821 82.3674 103.442 18.991 189.579 1.58938C197.456 -0.000398755 200.195 12.3311 192.021 13.9209C110.321 30.5921 43.2493 90.6385 16.8794 170.686C16.0301 173.307 13.5885 175.047 10.9982 175.047Z" fill="white"/>
</g>
<path d="M299.645 433.903C292.915 434.182 291.046 423.591 297.649 421.571C315.421 415.47 332.194 406.49 347.523 395.168C350.241 393.149 354.254 393.729 356.271 396.479C358.266 399.229 357.693 403.289 354.975 405.33C338.054 417.661 319.582 428.231 299.645 433.903ZM162.488 428.382C149.303 424.321 137.264 416.05 125.672 408.509C122.805 406.49 122.083 402.58 124.079 399.68C126.096 396.779 129.96 396.199 132.827 398.068C142.869 405.179 153.761 411.281 164.929 416.201C171.235 418.822 169.091 428.682 162.488 428.382ZM48.5574 233.182C44.8206 233.182 41.9543 230.003 42.4002 226.222C48.7061 159.086 87.6877 100.2 146.733 68.8766C153.889 65.117 159.77 76.138 152.615 80.048C97.2845 109.48 60.8719 164.457 54.8633 227.382C54.4386 230.733 51.6997 233.182 48.5574 233.182ZM427.482 230.583C424.34 230.583 421.622 228.112 421.325 224.933C415.168 166.927 381.621 114.572 331.896 84.6885C324.869 80.6281 331.323 69.4567 338.202 73.8178C391.367 105.721 427.058 161.707 433.661 223.622C434.085 227.253 431.219 230.583 427.482 230.583Z" fill="white"/>
<path d="M173.825 370.955C161.489 366.745 151.022 357.034 141.277 348.333C138.856 345.863 138.708 341.953 141.001 339.353C143.442 336.883 147.306 336.732 149.875 339.052C157.901 346.894 167.073 353.554 176.819 358.925C182.424 361.975 179.982 371.106 173.825 370.955ZM371.302 270.176C367.587 270.176 364.572 266.696 365.145 262.915C370.305 224.631 358.563 186.348 332.894 157.646C327.31 151.695 336.779 142.994 342.066 149.074C370.305 180.397 383.214 222.461 377.481 264.505C377.035 267.856 374.466 270.176 371.302 270.176ZM122.232 182.588C117.497 182.717 114.333 177.067 116.775 173.006C135.417 140.953 166.5 117.042 201.915 107.611C209.792 105.57 213.083 117.622 205.057 119.792C172.806 128.493 144.44 150.234 127.391 179.387C126.52 181.428 124.376 182.588 122.232 182.588Z" fill="white"/>
<mask id="mask3_14_8902" style="mask-type:luminance" maskUnits="userSpaceOnUse" x="489" y="147" width="248" height="293">
<path d="M489.182 147.699H737V439.187H489.182V147.699Z" fill="white"/>
</mask>
<g mask="url(#mask3_14_8902)">
<path d="M662.964 438.242C658.23 438.242 656.51 433.903 656.51 429.971C657.529 348.635 724.876 358.044 723.73 274.237C723.73 212.88 674.43 162.996 613.813 162.996C513.195 162.566 467.631 290.908 537.123 353.554C553.174 370.806 571.667 391.559 571.094 430.122C571.243 442.883 555.043 439.832 558.907 427.651C557.485 394.008 543.153 378.497 527.951 362.105C451.856 292.219 500.88 150.535 613.813 150.385C681.309 150.385 736.193 205.92 736.193 274.237C736.193 322.532 716.702 343.543 699.653 362.105C684.472 378.497 670.268 394.008 668.697 427.651C669.992 431.582 668.548 438.393 662.964 438.242Z" fill="white"/>
</g>
<path d="M613.813 385.028C611.668 385.028 609.503 383.868 608.356 381.827L576.975 324.401C572.963 317.312 584.131 311.06 587.867 318.322L619.248 375.747C621.541 379.807 618.399 385.178 613.813 385.028Z" fill="white"/>
<path d="M613.813 385.027C609.227 385.178 605.936 379.657 608.356 375.596L639.758 318.171C643.474 310.931 654.663 317.161 650.65 324.272L619.248 381.698C618.102 383.867 615.957 385.027 613.813 385.027Z" fill="white"/>
<mask id="mask4_14_8902" style="mask-type:luminance" maskUnits="userSpaceOnUse" x="260" y="494" width="213" height="150">
<path d="M260.897 494.185H472.876V643.516H260.897V494.185Z" fill="white"/>
</mask>
<g mask="url(#mask4_14_8902)">
<path d="M422.323 644.763H268.413C260.239 644.763 260.239 632.131 268.413 632.131H422.195C442.408 632.131 458.735 615.459 458.735 595.157C458.735 575.865 444.552 560.053 425.635 558.313C423.915 558.184 422.323 557.303 421.176 555.864C418.607 552.513 420.9 548.452 420.475 544.693C420.475 525.121 404.7 509.009 385.358 509.009C370.305 509.009 356.844 518.741 351.96 533.242C350.665 537.431 345.081 538.892 341.939 535.992C321.875 516.85 286.035 530.471 283.594 558.313C281.025 570.795 260.536 559.774 272.128 551.503C278.307 520.33 316.991 503.938 343.659 521.34C367.162 477.256 435.529 496.247 433.087 546.712C489.543 560.053 480.37 644.032 422.323 644.763Z" fill="white"/>
</g>
</svg>
