<svg width="800" height="728" viewBox="0 0 800 728" fill="none" xmlns="http://www.w3.org/2000/svg">
<path d="M181.818 654.542C191.859 654.542 199.999 646.402 199.999 636.361C199.999 626.32 191.859 618.18 181.818 618.18C171.777 618.18 163.637 626.32 163.637 636.361C163.637 646.402 171.777 654.542 181.818 654.542Z" fill="white"/>
<path d="M618.181 654.542C628.222 654.542 636.363 646.402 636.363 636.361C636.363 626.32 628.222 618.18 618.181 618.18C608.14 618.18 600 626.32 600 636.361C600 646.402 608.14 654.542 618.181 654.542Z" fill="white"/>
<path d="M400 509.089C410.041 509.089 418.181 500.949 418.181 490.908C418.181 480.867 410.041 472.727 400 472.727C389.958 472.727 381.818 480.867 381.818 490.908C381.818 500.949 389.958 509.089 400 509.089Z" fill="white"/>
<path d="M727.273 425.453L636.364 407.272C618.183 403.636 601.819 394.544 589.091 381.817L492.727 285.453C472.727 265.453 445.453 254.544 416.362 254.544H345.453V236.363C345.453 216.363 361.817 199.998 381.817 199.998H490.908C530.908 199.998 563.634 167.272 563.634 127.272C563.634 87.2719 530.908 54.5453 490.908 54.5453H289.091C281.817 23.6359 252.727 0 218.181 0H181.817C170.908 0 163.636 7.27344 163.636 18.1812H127.273C116.364 18.1812 109.092 25.4547 109.092 36.3625C109.092 47.2703 116.366 54.5437 127.273 54.5437H163.637V90.9078H127.273C116.364 90.9078 109.092 98.1813 109.092 109.089C109.092 119.998 116.366 127.27 127.273 127.27H163.637C163.637 138.18 170.911 145.452 181.819 145.452H218.183C229.092 145.452 236.364 138.178 236.364 127.27C236.364 116.362 229.091 109.089 218.183 109.089H200V36.3609H218.181C238.181 36.3609 254.545 52.725 254.545 72.725C254.545 83.6344 261.819 90.9062 272.727 90.9062H490.908C510.908 90.9062 527.272 107.27 527.272 127.27C527.272 147.27 510.908 163.634 490.908 163.634H381.817C341.817 163.634 309.091 196.361 309.091 236.361V254.542H245.455C210.909 254.542 178.181 270.906 158.181 298.178L118.181 352.723C112.727 359.997 114.545 372.723 121.817 378.178C129.089 383.633 139.998 381.814 145.453 374.542L185.453 319.997C199.998 301.816 219.998 290.906 243.634 290.906H309.089V399.997H54.5453C23.6359 399.998 0 423.634 0 454.544V563.634C0 614.544 40 654.544 90.9094 654.544H92.7281C101.819 696.363 138.183 727.27 181.819 727.27C232.728 727.27 272.728 687.27 272.728 636.361C272.728 585.452 232.728 545.452 181.819 545.452C138.183 545.452 101.819 576.361 92.7281 618.178H90.9094C60 618.178 36.3641 594.542 36.3641 563.633V454.542C36.3641 443.633 43.6375 436.361 54.5453 436.361H309.091V636.361C309.091 647.27 316.364 654.542 327.272 654.542H529.091C538.181 696.361 574.545 727.269 618.181 727.269C661.817 727.269 698.181 696.359 707.272 654.542H745.453C776.362 654.542 799.998 630.906 799.998 599.997V514.542C800 470.908 769.091 432.725 727.273 425.453ZM181.819 581.816C212.728 581.816 236.364 605.452 236.364 636.361C236.364 667.27 212.728 690.906 181.819 690.906C150.909 690.906 127.273 667.27 127.273 636.361C127.273 605.453 150.909 581.816 181.819 581.816ZM618.181 690.906C587.272 690.906 563.636 667.27 563.636 636.361C563.636 605.452 587.272 581.816 618.181 581.816C649.091 581.816 672.727 605.452 672.727 636.361C672.727 667.27 649.091 690.906 618.181 690.906ZM745.455 618.18H707.273C698.183 576.361 661.819 545.453 618.183 545.453C574.547 545.453 538.183 576.362 529.092 618.18H345.455V436.361H509.091C520 436.361 527.272 429.088 527.272 418.18C527.272 407.272 519.998 399.998 509.091 399.998H345.455V290.908H416.364C436.364 290.908 454.545 298.181 467.273 312.727L561.819 409.091C580 427.272 601.819 438.181 627.273 443.636L718.183 461.817C743.638 467.272 761.819 489.091 761.819 514.544V599.998H763.638C763.636 610.906 756.364 618.18 745.455 618.18Z" fill="white"/>
</svg>
