<svg width="454" height="678" viewBox="0 0 454 678" fill="none" xmlns="http://www.w3.org/2000/svg">
<path d="M96.437 125.287C96.437 55.7882 154.072 0.92041 227.077 0.92041C300.082 0.92041 357.718 55.7882 357.718 125.287V286.233C415.353 326.469 453.777 388.653 453.777 461.81C453.777 582.519 353.875 677.623 227.077 677.623C100.279 677.623 0.37793 582.519 0.37793 461.81C0.37793 341.101 38.8016 322.811 96.437 286.233V125.287ZM134.861 337.443C92.5947 366.705 65.6981 414.257 65.6981 465.467C65.6981 549.598 138.703 619.097 227.077 619.097C315.452 619.097 388.457 549.598 388.457 465.467C388.457 381.337 361.56 366.705 319.294 337.443L292.398 319.153V125.287C292.398 92.3667 261.659 63.1039 227.077 63.1039C192.496 63.1039 161.757 92.3667 161.757 125.287V319.153L134.861 337.443Z" fill="#F6F6F6"/>
</svg>
