<svg width="434" height="558" viewBox="0 0 434 558" fill="none" xmlns="http://www.w3.org/2000/svg">
<path d="M162.02 425.144H271.979C275.561 393.214 292.194 366.859 319.199 338.059C322.237 334.815 341.744 315.042 344.056 312.217C367.051 284.132 379.75 249.374 379.75 212.572C379.75 124.522 306.886 53.1429 217 53.1429C127.116 53.1429 54.2501 124.522 54.2501 212.572C54.2501 249.355 66.9377 284.094 89.9092 312.173C92.2265 315.004 111.777 334.831 114.781 338.037C141.801 366.856 158.438 393.214 162.02 425.144ZM271.25 478.287H162.75V504.857H271.25V478.287ZM47.5761 345.409C17.8063 309.017 0 262.831 0 212.572C0 95.1716 97.1545 0 217 0C336.848 0 434 95.1716 434 212.572C434 262.859 416.174 309.068 386.379 345.466C369.552 366.018 325.5 398.571 325.5 438.431V504.857C325.5 534.208 301.212 558 271.25 558H162.75C132.789 558 108.5 534.208 108.5 504.857V438.431C108.5 398.571 64.4106 365.986 47.5761 345.409ZM244.126 212.7H311.94L189.876 372.127V265.841H122.063L244.126 106.286V212.7Z" fill="#F6F6F6"/>
</svg>
