<svg width="594" height="692" viewBox="0 0 594 692" fill="none" xmlns="http://www.w3.org/2000/svg">
<path d="M66.0002 113.373V402.271C66.0002 444.337 88.0573 483.622 124.78 506.956L296.999 616.393L469.22 506.956C505.942 483.622 528 444.337 528 402.271V113.373L296.999 64.444L66.0002 113.373ZM25.8414 57.4354L296.999 0L568.155 57.4354C583.256 60.6336 594 73.3985 594 88.141V402.271C594 465.37 560.912 524.298 505.828 559.3L296.999 692L88.1695 559.3C33.0863 524.298 0 465.37 0 402.271V88.141C0 73.3985 10.7426 60.6336 25.8414 57.4354ZM296.999 393.182L200.015 441.784L218.538 338.844L140.076 265.946L248.506 250.928L296.999 157.273L345.493 250.928L453.924 265.946L375.459 338.844L393.982 441.784L296.999 393.182Z" fill="#F6F6F6"/>
</svg>
