<svg width="492" height="522" viewBox="0 0 492 522" fill="none" xmlns="http://www.w3.org/2000/svg">
<path d="M488.784 0.0478516V55.4041C488.784 319.16 344.078 439.642 164 439.642H61.098C57.8824 465.692 54.6667 491.742 54.6667 521.048H0C0 485.229 -1.9167e-06 449.41 9.64706 420.104C3.21568 384.285 0 335.442 0 276.829C0 120.529 122.196 0.0478516 273.333 0.0478516C424.471 0.0478516 382.667 26.0979 492 0.0478516H488.784ZM273.333 55.4041C154.353 55.4041 57.8824 153.092 57.8824 276.829C57.8824 400.567 57.8824 296.367 57.8824 306.135C93.2549 250.779 141.49 208.448 205.804 172.629L231.529 221.473C154.353 267.06 102.902 315.904 77.1765 390.798H164C328 390.798 430.902 280.085 434.118 71.6854C395.529 74.9416 363.373 71.6853 318.353 65.1728C286.196 61.9166 279.765 58.6604 270.118 58.6604L273.333 55.4041Z" fill="#F6F6F6"/>
</svg>
