<svg width="474" height="399" viewBox="0 0 474 399" fill="none" xmlns="http://www.w3.org/2000/svg">
<path d="M0 399V356.736L47.4001 356.733V57.3897C47.4001 47.1766 55.5911 38.4252 66.8604 36.5984L291.337 0.206755C299.062 -1.04602 306.466 3.52354 307.873 10.4133C308.025 11.1617 308.101 11.9208 308.101 12.6814V39.7496L402.901 39.7531C415.991 39.7531 426.6 49.2146 426.6 60.8853V356.733L474 356.736V399H379.2V82.0175L308.101 82.014V399H0ZM260.701 48.1306L94.8002 75.0263V356.736H260.701V48.1306ZM236.999 187.679V229.943H189.6V187.679H236.999Z" fill="#F6F6F6"/>
</svg>
