<svg width="490" height="540" viewBox="0 0 490 540" fill="none" xmlns="http://www.w3.org/2000/svg">
<path d="M253.967 490.194H385.094V540H70.3874V490.194H201.516V464.058C115.144 455.915 41.0986 407.98 0 339.833L45.5483 315.118C81.7107 375.08 149.758 415.483 227.74 415.483C343.615 415.483 437.549 326.286 437.549 216.257C437.549 142.205 395 77.59 331.853 43.2513L357.882 0C436.815 42.9234 490 123.693 490 216.257C490 345.388 386.493 451.565 253.967 464.058V490.194ZM227.74 390.581C126.354 390.581 44.1617 312.532 44.1617 216.257C44.1617 119.982 126.354 41.9347 227.74 41.9347C329.13 41.9347 411.321 119.982 411.321 216.257C411.321 312.532 329.13 390.581 227.74 390.581ZM227.74 340.775C300.162 340.775 358.87 285.024 358.87 216.257C358.87 147.489 300.162 91.7412 227.74 91.7412C155.322 91.7412 96.6134 147.489 96.6134 216.257C96.6134 285.024 155.322 340.775 227.74 340.775Z" fill="#F6F6F6"/>
</svg>
