<svg width="483" height="532" viewBox="0 0 483 532" fill="none" xmlns="http://www.w3.org/2000/svg">
<path d="M54.0197 269.325C54.0197 279.3 66.7303 292.6 95.3289 309.225C133.461 329.175 184.303 339.15 241.5 339.15C298.697 339.15 349.539 325.85 387.671 309.225C425.803 292.6 428.98 279.3 428.98 269.325V209.475C384.493 239.4 317.763 256.025 241.5 256.025C165.237 256.025 98.5066 236.075 54.0197 209.475V269.325ZM428.98 345.8C384.493 375.725 317.763 392.35 241.5 392.35C165.237 392.35 98.5066 375.725 54.0197 345.8V405.65C54.0197 415.625 66.7303 428.925 95.3289 445.55C133.461 465.5 184.303 475.475 241.5 475.475C298.697 475.475 349.539 462.175 387.671 445.55C416.27 428.925 428.98 415.625 428.98 405.65V345.8ZM0 408.975V126.35C0 56.525 108.039 0 241.5 0C374.96 0 483 56.525 483 126.35V405.65C483 475.475 374.96 532 241.5 532C108.039 532 0 475.475 0 405.65V408.975ZM241.5 199.5C298.697 199.5 349.539 186.2 387.671 169.575C416.27 152.95 428.98 139.65 428.98 129.675C428.98 119.7 416.27 106.4 387.671 89.775C349.539 69.825 298.697 59.85 241.5 59.85C184.303 59.85 133.461 73.15 95.3289 89.775C66.7303 106.4 54.0197 119.7 54.0197 129.675C54.0197 139.65 66.7303 152.95 95.3289 169.575C133.461 189.525 184.303 199.5 241.5 199.5Z" fill="#F6F6F6"/>
</svg>
