<svg width="729" height="800" viewBox="0 0 729 800" fill="none" xmlns="http://www.w3.org/2000/svg">
<path d="M0 724.2H729V800H0V724.2ZM72.9003 421.001H145.8V686.298H72.9003V421.001ZM255.15 421.001H328.05V686.298H255.15V421.001ZM400.949 421.001H473.848V686.298H400.949V421.001ZM583.2 421.001H656.1V686.298H583.2V421.001ZM0 231.5L364.501 42L729 231.5V383.1H0V231.5ZM72.9003 278.347V307.3H656.1V278.347L364.501 126.747L72.9003 278.347ZM364.501 269.4C344.368 269.4 328.05 252.431 328.05 231.5C328.05 210.569 344.368 193.6 364.501 193.6C384.632 193.6 400.949 210.569 400.949 231.5C400.949 252.431 384.632 269.4 364.501 269.4Z" fill="#F6F6F6"/>
</svg>
